<?xml version="1.0" standalone="no"?>
<!DOCTYPE svg PUBLIC "-//W3C//DTD SVG 1.1//EN" "http://www.w3.org/Graphics/SVG/1.1/DTD/svg11.dtd" >
<svg xmlns="http://www.w3.org/2000/svg">
<metadata>
Created by FontPrep 20130207 at Tue Mar 29 23:15:41 2016
 By Nicolas Stefanis
Copyright (c) 2006 Parachute :, www.parachute.gr.  All rights reserved.
</metadata>
<defs>
<font id="bd84302afc188f9ad9c8d957abb7b455" horiz-adv-x='1024' >
  <font-face 
    font-family="PFAgoraSansPro-Regular"
    font-weight="400"
    font-stretch="normal"
    units-per-em="2048"
    panose-1="2 0 5 0 0 0 0 2 0 4"
    ascent="1536"
    descent="-512"
    x-height="997"
    cap-height="1403"
    bbox="-696 -537 3604 1927"
    underline-thickness="102"
    underline-position="-102"
    unicode-range="U+0020-FB05"
  />
<missing-glyph horiz-adv-x="892" 
d="M811 143v1121l-313 -564zM82 147l313 555l-313 555v-1110zM754 1321h-615l307 -545zM754 82l-308 545l-307 -545h615zM0 1403h893v-1403h-893v1403z" />
    <glyph glyph-name="fj" unicode="fj" horiz-adv-x="1134" 
d="M620 1352q-143 0 -202.5 -47.5t-59.5 -180.5v-125h615v-884q0 -102 -6 -184.5t-59 -183.5t-298 -191q-20 58 -45 108q150 85 196 154.5t46 204.5v854h-449l-2 -877h-161v877h-140v90l142 37v161q0 326 393 326q168 -5 305 -37l-25 -129q-178 27 -250 27z" />
    <glyph glyph-name="ffj" unicode="ffj" horiz-adv-x="1716" 
d="M635 1331q-161 0 -219 -58.5t-58 -191.5v-82h437l-2 177q0 76 18 131q-90 24 -176 24zM1186 1378q-116 0 -174 -47t-58 -182v-150h598v-909q0 -234 -71 -343t-291 -191l-45 108q150 85 195.5 153.5t45.5 205.5v854h-432v-877h-163v877h-433l-2 -877h-161v877h-140v90
l142 37v118q0 168 104.5 256t274.5 88t303 -39q89 89 290 89q148 0 314 -37l-25 -127q-156 26 -272 26z" />
    <glyph glyph-name="ff" unicode="ff" horiz-adv-x="1318" 
d="M627 1331q-153 0 -211 -58.5t-58 -191.5v-82h435v205q0 65 10 103q-98 24 -176 24zM580 1466q170 0 290 -36q84 84 244 83q111 0 209 -26l-25 -123q-86 14 -164 14q-77 0 -128.5 -37.5t-51.5 -136.5v-205h293v-122h-293v-877h-163v877h-433l-2 -877h-161v877h-140v90
l142 37v133q4 160 108.5 244.5t274.5 84.5z" />
    <glyph glyph-name="fi" unicode="fi" horiz-adv-x="1114" 
d="M578 1352q-103 0 -161.5 -46t-58.5 -182v-125h592v-999h-166v877h-426l-2 -877h-161v877h-140v90l142 37v126q0 290 148.5 325.5t274.5 33.5t275 -35l-25 -129q-189 27 -292 27z" />
    <glyph glyph-name="fl" unicode="fl" horiz-adv-x="1138" 
d="M577 1335q-102 0 -160.5 -47t-58.5 -182v-107h295v-122h-295l-2 -877h-161v877h-140v90l142 37v106q0 203 99.5 283t307.5 80q180 -11 260 -25l111 18l-2 -1466h-162v1315q-132 20 -234 20z" />
    <glyph glyph-name="ffi" unicode="ffi" horiz-adv-x="1712" 
d="M636 1331q-162 0 -220 -58.5t-58 -191.5v-80h435v187q0 65 20 119q-90 24 -177 24zM1230 1376q-158 0 -217 -47t-59 -180v-148h594v-1001h-166v877h-428v-877h-163v877h-433l-2 -877h-161v877h-140v90l142 37v133q0 165 110.5 248t274.5 83q165 0 297 -41q93 86 307 86
q149 0 307 -36l-25 -129q-154 28 -238 28z" />
    <glyph glyph-name="ffl" unicode="ffl" horiz-adv-x="1738" 
d="M636 1331q-162 0 -220 -58.5t-58 -191.5v-82h435q0 39 -2.5 139.5t22.5 159.5v9q-90 24 -177 24zM1175 1376q-102 0 -160.5 -47t-58.5 -180l-2 -150h297v-122h-297v-877h-163v877h-433l-2 -877h-161v877h-140v90l142 37v88q-8 182 95 278t306 96q149 0 281 -39
q102 86 269 86t335 -22l92 18v-1509h-166v1356q-132 20 -234 20z" />
    <glyph glyph-name="ft" unicode="ft" horiz-adv-x="1380" 
d="M809 236v643h-451v-879h-163v879h-140v90l142 37v168q0 150 81.5 228.5t230.5 78.5t245 -25l-25 -123q-92 15 -182 15t-139.5 -38t-49.5 -136v-173h459l55 234l103 18v-254h303v-120h-303v-592q0 -72 26.5 -118t104.5 -46t194 35l27 -113q-112 -55 -250 -55
q-268 0 -268 246z" />
    <glyph glyph-name=".notdef" horiz-adv-x="892" 
d="M811 143v1121l-313 -564zM82 147l313 555l-313 555v-1110zM754 1321h-615l307 -545zM754 82l-308 545l-307 -545h615zM0 1403h893v-1403h-893v1403z" />
    <glyph glyph-name=".null" horiz-adv-x="0" 
 />
    <glyph glyph-name="nonmarkingreturn" horiz-adv-x="681" 
 />
    <glyph glyph-name="space" unicode=" " horiz-adv-x="557" 
 />
    <glyph glyph-name="exclam" unicode="!" horiz-adv-x="460" 
d="M231.5 190q47.5 0 78 -30.5t30.5 -74.5t-32 -76t-78 -32t-77.5 32t-31.5 76t31.5 74.5t79 30.5zM313 1425l-4 -608l-18 -469h-113l-20 469l-8 608h163z" />
    <glyph glyph-name="quotedbl" unicode="&#x22;" horiz-adv-x="557" 
d="M123 987l-29 416h152l-31 -416h-92zM346 987l-29 416h150l-27 -416h-94z" />
    <glyph glyph-name="numbersign" unicode="#" horiz-adv-x="1091" 
d="M375 496h301l74 344h-299zM856 840l-76 -344h154l-19 -97h-155l-86 -399h-107l86 399h-299l-88 -399h-106l88 399h-154l19 97h155l76 344h-164l19 94h166l79 352h105l-78 -352h301l78 352h106l-77 -352h141l-19 -94h-145z" />
    <glyph glyph-name="dollar" unicode="$" horiz-adv-x="1142" 
d="M291 1022q0 -92 45 -135t117 -72v416q-68 -18 -115 -67.5t-47 -141.5zM881 385q0 90 -58.5 139t-146.5 82v-461q205 33 205 240zM528 -154h-75v164q-183 18 -314 96l51 119q130 -66 263 -84v533q-220 72 -261.5 167t-41.5 169q0 150 86 236.5t217 113.5v137h75v-1651z
M598 1497h78v-131q149 -9 256 -74l-41 -114q-121 54 -215 63v-493q66 -25 207 -87.5t141 -277.5q0 -157 -93 -248t-255 -119v-170h-78v1651z" />
    <glyph glyph-name="percent" unicode="%" horiz-adv-x="1679" 
d="M1499 403q0 133 -35 224.5t-153 91.5t-158.5 -93t-40.5 -190q0 -182 41 -260t160 -78q186 0 186 305zM1559 111.5q-79 -117.5 -261 -117.5q-325 0 -325 409q0 286 116.5 355t224.5 69t172 -41t108 -123t44 -258t-79 -293.5zM598 -45h-115l602 1481h111zM381 641
q186 0 186 305q0 133 -35 224.5t-151 91.5q-169 0 -185 -134.5t-16 -190.5q0 -138 41.5 -217t159.5 -79zM628 655.5q-79 -118.5 -261 -118.5q-326 0 -326 409q0 284 116.5 354t224.5 70t172 -41t108.5 -124t44.5 -257t-79 -292.5z" />
    <glyph glyph-name="ampersand" unicode="&#x26;" horiz-adv-x="1486" 
d="M756 1117q0 73 -43 115t-103 42t-86 -16.5t-50.5 -52t-24.5 -111.5q0 -75 96 -209q107 57 159 108t52 124zM522 100q175 0 355 119q-76 76 -158 182q-82 107 -136.5 176.5t-99.5 133.5q-113 -61 -187.5 -139t-74.5 -202t85 -197t216 -73zM70 375q0 257 340 444
q-111 156 -111 279t78.5 209t222.5 86t219.5 -80t75.5 -191q0 -151 -109.5 -231t-173.5 -117q62 -92 222 -295q37 -43 74.5 -87t78.5 -87q98 93 155 216.5t72 312.5h138q-21 -391 -271 -619q143 -140 308 -211l-64 -115q-107 43 -211 123t-143 117q-205 -152 -451 -152
q-195 0 -322.5 101.5t-127.5 296.5z" />
    <glyph glyph-name="quotesingle" unicode="'" horiz-adv-x="395" 
d="M152 987l-29 416h153l-30 -416h-94z" />
    <glyph glyph-name="parenleft" unicode="(" horiz-adv-x="583" 
d="M123 574q0 309 98 532.5t205 353.5l72 -45q-137 -208 -179.5 -434.5t-42.5 -404.5q0 -526 224 -875l-74 -51q-185 227 -244 485.5t-59 438.5z" />
    <glyph glyph-name="parenright" unicode=")" horiz-adv-x="587" 
d="M289 586q0 477 -221 829l71 45q190 -231 246.5 -468.5t56.5 -417.5q0 -320 -97.5 -554.5t-207.5 -369.5l-71 51q223 348 223 885z" />
    <glyph glyph-name="asterisk" unicode="*" horiz-adv-x="796" 
d="M313 1413q38 10 89.5 10t84.5 -10l-47 -231l207 110q35 -39 43 -76.5t12 -85.5q-61 -6 -120.5 -14t-120.5 -14l172 -162q-53 -68 -133 -100l-103 217l-100 -215q-81 32 -137 98l172 164l-232 31q8 97 54 163l206 -116z" />
    <glyph glyph-name="plus" unicode="+" horiz-adv-x="1142" 
d="M641 553v-344h-123v344h-336v119h336v332h123v-332h334v-119h-334z" />
    <glyph glyph-name="comma" unicode="," horiz-adv-x="430" 
d="M98 93q0 40 33 73t83 33t83 -38t33 -87q0 -94 -58.5 -188t-148.5 -140l-41 53q82 80 92 191q-76 22 -76 103z" />
    <glyph glyph-name="hyphen" unicode="-" horiz-adv-x="749" 
d="M111 471v139h528v-139h-528z" />
    <glyph glyph-name="period" unicode="." horiz-adv-x="425" 
d="M315 89q0 -46 -32.5 -77.5t-77.5 -31.5t-77 31.5t-32 77.5t32 78t78 32t77.5 -32t31.5 -78z" />
    <glyph glyph-name="slash" unicode="/" horiz-adv-x="681" 
d="M141 -57h-110l524 1493h111z" />
    <glyph glyph-name="zero" unicode="0" horiz-adv-x="1142" 
d="M903 661q0 252 -40 358.5t-104.5 167t-224.5 60.5t-228 -169.5t-68 -422.5t71.5 -395.5t261.5 -142.5q332 0 332 544zM1071 648q0 -98 -24.5 -220.5t-116.5 -282t-352 -159.5q-292 0 -400 189.5t-108 494.5q0 473 175 591.5t309 118.5t212 -32.5t133 -87t89 -126
t52.5 -150.5t24.5 -158.5t6 -177.5z" />
    <glyph glyph-name="one" unicode="1" horiz-adv-x="1142" 
d="M670 1360v-1360h-164v1198l-305 -20v114l317 68h152z" />
    <glyph glyph-name="two" unicode="2" horiz-adv-x="1142" 
d="M483 1241q-170 0 -348 -106l-57 98q199 147 434 147q295 0 358.5 -140t63.5 -248t-67.5 -231.5t-164 -237t-204 -213t-187.5 -175.5l4 -10h672v-125h-903v113q55 53 127 118.5t202 192t240.5 281.5t110.5 285t-78 190.5t-203 60.5z" />
    <glyph glyph-name="three" unicode="3" horiz-adv-x="1142" 
d="M451 696q-51 0 -113 -8l-31 98l422 424l-8 15l-580 2v133h799q12 -40 27 -103l-424 -421l6 -15h31q190 0 305.5 -98.5t115.5 -304.5t-144 -321t-357 -115q-246 4 -410 79l41 119q209 -61 356 -61q148 0 247.5 73.5t99.5 221.5q0 282 -383 282z" />
    <glyph glyph-name="four" unicode="4" horiz-adv-x="1142" 
d="M723 500v663h-12q-123 -166 -242 -331.5t-246 -331.5h500zM66 377v119l639 864h174v-860h198v-123h-198v-377h-160l2 377h-655z" />
    <glyph glyph-name="five" unicode="5" horiz-adv-x="1142" 
d="M492 121q153 0 252.5 73.5t99.5 224.5t-94.5 228.5t-223.5 77.5t-245 -55l-99 65l41 625h727v-133h-590l-26 -414q29 8 83 24.5t142 16.5q192 0 322.5 -106.5t130.5 -319.5q0 -214 -142 -330t-373 -116q-230 0 -397 81l39 119q200 -61 353 -61z" />
    <glyph glyph-name="six" unicode="6" horiz-adv-x="1142" 
d="M877 420q0 301 -281 301q-130 0 -215 -40.5t-109 -64.5v-43q0 -184 42 -274t102.5 -137t165.5 -47q145 0 220 86t75 219zM657 1249q-121 0 -192.5 -55t-130 -162.5t-64.5 -275.5l11 -6q78 41 159.5 70.5t173.5 29.5q189 0 306.5 -105t117.5 -314t-126.5 -327t-333.5 -118
q-260 0 -366 171.5t-106 489.5q0 317 136 525t405 208q174 0 297 -63l-37 -117q-129 49 -250 49z" />
    <glyph glyph-name="seven" unicode="7" horiz-adv-x="1142" 
d="M160 1227v133h829v-121l-559 -1239h-158l555 1227h-667z" />
    <glyph glyph-name="eight" unicode="8" horiz-adv-x="1142" 
d="M795 715q239 -127 239 -363q0 -155 -128.5 -261.5t-348.5 -106.5q-221 0 -340 98t-119 272t90.5 268.5t161.5 135.5q-98 57 -143 119.5t-45 149.5q0 161 120.5 259t293.5 98t297 -83t124 -248q0 -194 -202 -338zM794 183.5q80 74.5 80 184.5t-80.5 167t-155.5 90.5
t-167 72.5q-107 -65 -156 -157t-49 -163q0 -130 77.5 -199.5t224.5 -69.5q146 0 226 74.5zM649 774q191 130 191 242q0 154 -95.5 194.5t-165 40.5t-116.5 -22.5t-77 -55t-42 -69.5t-12 -76t24.5 -76t67.5 -65.5t100.5 -55t124.5 -57.5z" />
    <glyph glyph-name="nine" unicode="9" horiz-adv-x="1142" 
d="M250 944q0 -301 280 -301q184 0 324 105v45q0 182 -42 269t-102.5 134t-164.5 47q-147 0 -221 -83t-74 -216zM549 1380q471 0 471 -637q0 -342 -136.5 -548.5t-404.5 -206.5q-111 0 -195.5 21.5t-119.5 39.5l37 117q128 -49 258 -49q129 0 252.5 93.5t144.5 399.5l-10 6
q-172 -102 -346 -102q-280 0 -346 155t-66 263q0 207 126 327.5t335 120.5z" />
    <glyph glyph-name="colon" unicode=":" horiz-adv-x="419" 
d="M324 737q0 -47 -33 -78.5t-77 -31.5t-77 32.5t-33 78.5t32 77t78 31t78 -31t32 -78zM324 94q0 -45 -30 -77.5t-78 -32.5t-80 32.5t-32 77.5t32 77t78 32t78 -32t32 -77z" />
    <glyph glyph-name="semicolon" unicode=";" horiz-adv-x="419" 
d="M98 93q0 40 33 73t83 33t83 -38t33 -87q0 -92 -58.5 -186t-148.5 -140l-41 55q84 76 92 187q-76 22 -76 103zM324 737q0 -47 -33 -78.5t-77 -31.5t-77 32.5t-33 78.5t32 77t78 31t78 -31t32 -78z" />
    <glyph glyph-name="less" unicode="&#x3c;" horiz-adv-x="1142" 
d="M987 145l-815 412v102l815 410v-139l-665 -320l665 -327v-138z" />
    <glyph glyph-name="equal" unicode="=" horiz-adv-x="1142" 
d="M158 410v116h825v-116h-825zM158 707v118h825v-118h-825z" />
    <glyph glyph-name="greater" unicode="&#x3e;" horiz-adv-x="1142" 
d="M172 283l666 327l-666 320v139l815 -410v-102l-815 -412v138z" />
    <glyph glyph-name="question" unicode="?" horiz-adv-x="903" 
d="M498 83q0 -44 -32 -73.5t-76 -29.5t-75.5 30.5t-31.5 73.5t30.5 73.5t76.5 30.5t77 -30.5t31 -74.5zM264 512q0 117 59.5 197t163.5 169q103 90 143 145t40 111q0 93 -63 132t-188 39t-294 -56l-39 127q185 66 376 66q192 0 289 -77t97 -214q0 -173 -177 -318
t-221 -209.5t-44 -109.5t6 -79t12 -79l-135 -18q-25 105 -25 174z" />
    <glyph glyph-name="at" unicode="@" horiz-adv-x="1896" 
d="M764 539q0 -131 135 -131q96 0 203 88v186l-191 -16q-61 -6 -104 -39t-43 -88zM164 661.5q0 165.5 64.5 306t177 243t262 159.5t321.5 57q343 0 543.5 -192.5t200.5 -511.5q-4 -207 -113 -321.5t-260 -114.5q-66 0 -133.5 28.5t-98.5 90.5q-49 -49 -123.5 -81t-152.5 -32
q-133 0 -186.5 72.5t-53.5 167.5t66.5 156t189.5 73l234 20v45q0 96 -33 132t-135 36t-236 -45l-16 54q-4 10 -8 25t-10 26q151 65 292 65q142 0 212.5 -59.5t70.5 -208.5v-326q0 -59 34 -93t90 -34q106 0 177.5 82t71.5 230q0 147 -44 258.5t-126 188.5t-197 118t-258 41
t-271 -49t-279.5 -189.5t-151.5 -416.5t185 -463t460 -187q141 0 266 45l35 -100q-125 -57 -297 -57t-314.5 57t-244 158.5t-156.5 241t-55 305z" />
    <glyph glyph-name="A" unicode="A" horiz-adv-x="1185" 
d="M825 500q-47 156 -94 312.5t-96 309.5l-41 138h-6l-41 -140q-23 -76 -45.5 -148.5t-64 -210t-81.5 -261.5h469zM20 0l463 1403h222l458 -1403h-182q-52 165 -115 367h-553q-67 -212 -114 -367h-179z" />
    <glyph glyph-name="B" unicode="B" horiz-adv-x="1247" 
d="M905 1026q0 106 -64.5 174t-211.5 68h-293v-475h293q135 0 205.5 63.5t70.5 169.5zM873 585q-73 77 -207 77h-330v-529h330q142 0 211 74t69 188q0 113 -73 190zM164 1401h504q202 0 306.5 -99.5t104.5 -259.5q0 -86 -42 -170t-150 -139q122 -40 176.5 -142t54.5 -199
q0 -179 -114.5 -285.5t-280.5 -106.5h-559v1401z" />
    <glyph glyph-name="C" unicode="C" horiz-adv-x="1214" 
d="M727 -16q-604 0 -604 708q0 281 141.5 507t472.5 226q196 0 355 -57l-37 -129q-136 47 -276 47t-308 -81t-168 -513q0 -268 70.5 -374.5t159 -150.5t240.5 -44t319 49l32 -123q-115 -44 -231.5 -54.5t-165.5 -10.5z" />
    <glyph glyph-name="D" unicode="D" horiz-adv-x="1318" 
d="M582 135q434 0 434 555q0 453 -161 516.5t-263 63.5h-250v-1135h240zM621 1403q575 0 575 -698q0 -495 -211 -600t-383 -105h-438v1403h457z" />
    <glyph glyph-name="E" unicode="E" horiz-adv-x="1155" 
d="M164 0v1401h854v-131h-680v-465h573v-127h-573v-545h713v-133h-887z" />
    <glyph glyph-name="F" unicode="F" horiz-adv-x="1093" 
d="M164 0v1401h848v-133h-674v-473h557v-131h-557v-664h-174z" />
    <glyph glyph-name="G" unicode="G" horiz-adv-x="1288" 
d="M340 83.5q-217 99.5 -217 583.5q0 312 114 486.5t257 223t265 48.5q211 0 367 -57l-34 -129q-143 47 -288 47q-264 0 -382.5 -157.5t-118.5 -430.5t97 -422t337 -149q155 0 248 31v563h162v-672q-193 -65 -392 -65q-198 0 -415 99.5z" />
    <glyph glyph-name="H" unicode="H" horiz-adv-x="1337" 
d="M995 811v590h179v-1401h-179v670h-655l2 -670h-178v1401h178l-2 -590h655z" />
    <glyph glyph-name="I" unicode="I" horiz-adv-x="540" 
d="M184 0v1403h172v-1403h-172z" />
    <glyph glyph-name="J" unicode="J" horiz-adv-x="632" 
d="M254 1403h174l-2 -1135q0 -257 -117 -405t-356 -232l-49 125q197 111 272.5 216.5t75.5 285.5z" />
    <glyph glyph-name="K" unicode="K" horiz-adv-x="1187" 
d="M336 0h-172v1403h172v-637l612 637h197l-543 -559l563 -844h-194l-482 727l-153 -158v-569z" />
    <glyph glyph-name="L" unicode="L" horiz-adv-x="1099" 
d="M164 0v1401h174v-1272h741v-129h-915z" />
    <glyph glyph-name="M" unicode="M" horiz-adv-x="1681" 
d="M164 0v1401h196l476 -1075h12q66 150 134.5 299t133.5 301l213 475h189v-1401h-168v1096h-4l-123 -281q-37 -80 -73 -161t-75 -162q-39 -90 -78 -176.5t-79 -176.5h-162l-133 303q-45 102 -125.5 278t-163.5 374h-4l-2 -1094h-164z" />
    <glyph glyph-name="N" unicode="N" horiz-adv-x="1396" 
d="M330 0h-166v1401h174q131 -201 257 -397.5t255 -397.5l205 -321h10v1116h168v-1401h-170l-541 846l-184 295l-8 -2v-1139z" />
    <glyph glyph-name="O" unicode="O" horiz-adv-x="1429" 
d="M1124 690q0 602 -410.5 602t-410.5 -604q0 -281 98.5 -426t309.5 -145t312 159.5t101 413.5zM123 690q0 510 218 621.5t385 111.5q313 0 447 -203t134 -521q0 -319 -151.5 -517t-430.5 -198q-602 0 -602 706z" />
    <glyph glyph-name="P" unicode="P" horiz-adv-x="1136" 
d="M338 1270v-563h278q182 0 223.5 100t41.5 177q0 144 -75 215t-198 71h-270zM1059 1014q0 -179 -100 -309t-318 -130h-303l2 -575h-176v1403h459q199 0 285.5 -77t118.5 -153.5t32 -158.5z" />
    <glyph glyph-name="Q" unicode="Q" horiz-adv-x="1431" 
d="M1124 690q0 600 -411.5 600t-411.5 -604q0 -281 99.5 -426t310.5 -145t312 159.5t101 415.5zM123 680q0 332 144 537.5t457 205.5t447 -204t134 -541q0 -336 -120 -466t-200 -169l315 -84l-55 -145q-117 39 -230.5 76.5t-230.5 78.5l-61 8q-469 29 -534.5 288t-65.5 415z
" />
    <glyph glyph-name="R" unicode="R" horiz-adv-x="1202" 
d="M618 743q176 0 221.5 91.5t45.5 167.5q0 142 -75 204t-196 62h-278v-525h282zM1063 1016q0 -125 -62.5 -226.5t-185.5 -136.5q82 -25 119 -93t61 -154l115 -406h-174l-111 385q-56 190 -136.5 207.5t-131.5 17.5h-221v-610h-172v1403h481q207 0 312.5 -106.5
t105.5 -280.5z" />
    <glyph glyph-name="S" unicode="S" horiz-adv-x="1173" 
d="M541 123q176 0 265 56.5t89 205.5q0 116 -76 168t-197 84q-120 31 -204 57.5t-186.5 91.5t-102.5 246q0 180 128.5 286.5t351.5 106.5t370 -88l-55 -123q-160 72 -338 72q-123 0 -201 -62.5t-78 -179.5t86.5 -165.5t194.5 -73.5q109 -26 296 -82.5t187 -337.5
q0 -202 -139.5 -301.5t-388.5 -99.5t-441 108l60 127q203 -96 379 -96z" />
    <glyph glyph-name="T" unicode="T" horiz-adv-x="1153" 
d="M492 0v1266h-451v137h1071v-137h-448l-2 -1266h-170z" />
    <glyph glyph-name="U" unicode="U" horiz-adv-x="1361" 
d="M1217 504q0 -241 -134.5 -380.5t-409.5 -139.5q-274 0 -400 138t-126 382v899h172v-901q0 -193 94.5 -289t268.5 -96t269.5 95t95.5 290l-3 901h173v-899z" />
    <glyph glyph-name="V" unicode="V" horiz-adv-x="1134" 
d="M575 180l82 287l277 936h180l-444 -1403h-205l-445 1403h185l280 -938l80 -285h10z" />
    <glyph glyph-name="W" unicode="W" horiz-adv-x="1714" 
d="M1260 213q190 873 262 1188h172q-48 -208 -340 -1401h-205q-55 215 -111 416.5t-94 351.5t-57 225.5t-41 153.5l-15 2q-17 -83 -256 -1149h-210l-345 1401h181q231 -1026 268 -1190h10l74 334q25 115 49.5 221t48 210.5l47 209t47.5 215.5h185l225 -846q13 -40 35 -126.5
t36.5 -138.5t20.5 -77h13z" />
    <glyph glyph-name="X" unicode="X" horiz-adv-x="1140" 
d="M1108 1401q-260 -403 -434 -680l448 -721h-192q-92 152 -183.5 302.5t-183.5 303.5l-356 -606h-191l449 729q-277 448 -420 672h197q84 -141 165.5 -280.5t167.5 -280.5l338 561h195z" />
    <glyph glyph-name="Y" unicode="Y" horiz-adv-x="1097" 
d="M633 0h-182v606l-431 797h183l192 -369l144 -284h8l155 297l195 356h178l-442 -789v-614z" />
    <glyph glyph-name="Z" unicode="Z" horiz-adv-x="1089" 
d="M96 1403h914v-131l-752 -1131l789 -2v-139h-1002v131l750 1133h-699v139z" />
    <glyph glyph-name="bracketleft" unicode="[" horiz-adv-x="532" 
d="M111 -328v1755h350v-110h-199v-1532h199v-113h-350z" />
    <glyph glyph-name="backslash" unicode="\" horiz-adv-x="681" 
d="M31 1436h108l527 -1493h-113z" />
    <glyph glyph-name="bracketright" unicode="]" horiz-adv-x="532" 
d="M68 -328v113h198v1532h-198v110h348v-1755h-348z" />
    <glyph glyph-name="asciicircum" unicode="^" horiz-adv-x="907" 
d="M43 780l358 615h99l352 -615h-127l-276 486l-279 -486h-127z" />
    <glyph glyph-name="underscore" unicode="_" horiz-adv-x="1024" 
d="M0 -270v96h1024v-96h-1024z" />
    <glyph glyph-name="grave" unicode="`" horiz-adv-x="997" 
d="M270 1380l123 117l252 -332l-78 -69z" />
    <glyph glyph-name="a" unicode="a" horiz-adv-x="1085" 
d="M520 1016q183 0 273 -74t90 -258v-559h135l10 -98q-84 -41 -159 -41q-74 0 -107 24.5t-37 102.5l-2 2q-141 -121 -232.5 -126t-113.5 -5q-156 0 -223.5 89.5t-67.5 208.5t93 198t286 91l256 17v63q0 125 -45 176.5t-184 51.5t-295 -56l-37 113q177 80 360 80zM449 113
q129 0 272 131v233l-256 -16q-102 -4 -151.5 -51.5t-49.5 -129.5q0 -168 185 -167z" />
    <glyph glyph-name="b" unicode="b" horiz-adv-x="1067" 
d="M797 492q0 323 -93.5 358t-144.5 35q-132 0 -272 -84v-637q102 -47 238 -47t204 86t68 289zM575 1024q126 0 260 -74t134 -442q0 -369 -155 -445.5t-277 -76.5q-222 0 -418 90v1380h168v-293l-6 -219l10 -8q158 88 284 88z" />
    <glyph glyph-name="c" unicode="c" horiz-adv-x="933" 
d="M561 887q-137 0 -214 -104.5t-77 -278.5q0 -279 102.5 -332t209.5 -53t266 63l45 -110q-158 -84 -348 -84q-447 0 -447 499q0 345 158 440t313 95t275 -51l-39 -121q-107 37 -244 37z" />
    <glyph glyph-name="d" unicode="d" horiz-adv-x="1069" 
d="M528 889q-258 0 -258 -410q0 -289 96.5 -325.5t139.5 -36.5q77 0 159.5 35t114.5 67v598q-31 23 -105.5 47.5t-146.5 24.5zM98 481q0 381 147.5 461t252.5 80t178.5 -26.5t103.5 -47.5v508h168v-1456h-164v94l-4 4q-132 -110 -320 -110t-275 136.5t-87 356.5z" />
    <glyph glyph-name="e" unicode="e" horiz-adv-x="1034" 
d="M540 1022q400 0 400 -477v-80h-670q0 -350 285 -350q139 0 319 71l41 -106q-176 -92 -372 -92q-245 0 -345 136t-100 348q0 417 172.5 483.5t269.5 66.5zM540 899q-131 0 -195 -89.5t-73 -236.5h510q0 238 -85.5 282t-156.5 44z" />
    <glyph glyph-name="f" unicode="f" horiz-adv-x="747" 
d="M560 1343q-81 0 -130 -37.5t-49 -136.5v-168h293v-122h-293l-2 -879h-162v879h-139v90l141 37v161q0 150 81 229t241 79q113 0 209 -25l-23 -121q-86 14 -167 14z" />
    <glyph glyph-name="g" unicode="g" horiz-adv-x="1124" 
d="M782 663q0 105 -58.5 170.5t-180.5 65.5q-123 0 -183.5 -59.5t-60.5 -164.5t59.5 -165.5t159.5 -60.5q184 0 224 83t40 131zM533 -319q153 0 230 54t77 138t-49 136t-189 52h-227q-43 -13 -82 -69.5t-39 -104.5q0 -100 63 -153t216 -53zM100 229q0 80 43.5 117.5
t112.5 54.5l4 7q-51 29 -91 88.5t-40 161.5q0 186 119 276t259 90t212 -25h323v-106h-155l-4 -10q69 -73 69 -221q0 -149 -115.5 -240.5t-304.5 -91.5h-110q-74 0 -118 -14.5t-44 -61.5q0 -68 105 -68h262q184 0 282.5 -77.5t98.5 -225.5t-130.5 -236.5t-359.5 -88.5
q-428 0 -428 292q0 86 44 147.5t89 86.5q-123 25 -123 145z" />
    <glyph glyph-name="h" unicode="h" horiz-adv-x="1052" 
d="M630 1022q117 0 174.5 -29.5t86.5 -76t35 -103.5t6 -113v-700h-166v659q0 119 -22.5 157t-57.5 53.5t-94 15.5q-131 0 -305 -99v-786h-168v1456h166v-323l-6 -213l16 -9q218 111 335 111z" />
    <glyph glyph-name="i" unicode="i" horiz-adv-x="520" 
d="M371 1264q0 -45 -33 -78t-78 -33t-77.5 33t-32.5 78t32.5 76.5t77.5 31.5t78 -31.5t33 -76.5zM174 0v999h166v-999h-166z" />
    <glyph glyph-name="j" unicode="j" horiz-adv-x="542" 
d="M170 1263q0 46 31.5 77.5t77 31.5t78 -31.5t32.5 -77.5t-32.5 -78t-78 -32t-77 32t-31.5 78zM193 27v972h165v-225l-2 -766q-8 -188 -85.5 -284.5t-270.5 -167.5q-9 18 -49 112q149 87 195.5 157t46.5 202z" />
    <glyph glyph-name="k" unicode="k" horiz-adv-x="927" 
d="M287 0h-168v1454h168v-635l-8 -227l14 -6l405 413h189l-387 -393q16 -23 33.5 -42t33.5 -42l351 -522h-185q-86 127 -168 253t-166 253l-112 -113v-393z" />
    <glyph glyph-name="l" unicode="l" horiz-adv-x="466" 
d="M150 0v1456h165l-2 -1456h-163z" />
    <glyph glyph-name="m" unicode="m" horiz-adv-x="1656" 
d="M870 897q182 123 392 123q74 0 135 -32t100 -92.5t39 -209.5v-686h-168v659q0 118 -26.5 156.5t-62.5 53t-81 14.5q-159 0 -301 -88q12 -52 12 -136v-659h-166v692q0 98 -44 143.5t-152 45.5t-262 -97v-784h-166v999h162l2 -90l8 -6q176 115 340 115q165 0 239 -121z" />
    <glyph glyph-name="n" unicode="n" horiz-adv-x="1052" 
d="M291 909q179 113 363 113q166 0 222 -87t56 -235v-700h-166v659q0 119 -22.5 157t-57.5 53.5t-94 15.5q-131 0 -305 -99v-786h-168v999h164l2 -86z" />
    <glyph glyph-name="o" unicode="o" horiz-adv-x="1081" 
d="M549 113q260 0 260 389t-260 389q-152 0 -214.5 -115t-62.5 -286t57.5 -274t219.5 -103zM878 130.5q-105 -146.5 -342 -146.5t-337.5 141.5t-100.5 365.5q0 223 110.5 376t341.5 153t332 -148t101 -371q0 -224 -105 -370.5z" />
    <glyph glyph-name="p" unicode="p" horiz-adv-x="1067" 
d="M546 106q109 0 180 95.5t71 314.5q0 286 -97.5 322t-140.5 36q-77 0 -159.5 -35t-112.5 -67v-594q60 -45 137.5 -58.5t121.5 -13.5zM592 1012q202 0 288.5 -138t86.5 -362q0 -370 -145.5 -450t-256.5 -80q-186 0 -280 69v-477h-166v1425h162l2 -88l10 -8q136 109 299 109
z" />
    <glyph glyph-name="q" unicode="q" horiz-adv-x="1069" 
d="M508 113q127 0 272 82v645q-98 45 -226 45t-204 -91.5t-80 -297.5q0 -312 92.5 -347.5t145.5 -35.5zM100 463q0 388 157 469.5t286 81.5q212 0 405 -88l-2 -1352h-164v212q0 212 2 265l-16 8q-150 -82 -272 -82q-217 0 -306.5 128.5t-89.5 357.5z" />
    <glyph glyph-name="r" unicode="r" horiz-adv-x="718" 
d="M662 1024q51 0 51 -51q0 -45 -22.5 -91t-35.5 -61q-86 -10 -173 -21.5t-173 -21.5v-778h-168v999h164l-6 -133l12 -8q116 104 214 135t137 31z" />
    <glyph glyph-name="s" unicode="s" horiz-adv-x="913" 
d="M670 272q0 99 -86 130.5t-140 50.5t-190.5 68.5t-136.5 217.5q0 139 101 210t238 71q208 0 322 -72l-51 -117q-136 54 -262 54t-158.5 -53.5t-32.5 -90.5q0 -61 55.5 -91t137.5 -57q83 -27 145 -49t140.5 -75.5t78.5 -196.5q0 -142 -105.5 -213t-307.5 -71t-338 78
l53 114q150 -67 309 -67q228 0 228 159z" />
    <glyph glyph-name="t" unicode="t" horiz-adv-x="729" 
d="M186 879h-145v88l154 47l51 221l106 18v-254h301v-120h-303v-592q0 -72 28 -118t104 -46t196 35l27 -113q-112 -55 -250 -55q-268 0 -269 246v643z" />
    <glyph glyph-name="u" unicode="u" horiz-adv-x="1032" 
d="M119 297v702h166v-661q0 -118 22.5 -155.5t56.5 -52.5t92 -15t139 30.5t153 96.5v757l163 2v-1001h-161l-2 113l-5 4q-160 -140 -335 -140q-257 0 -273 132.5t-16 187.5z" />
    <glyph glyph-name="v" unicode="v" horiz-adv-x="948" 
d="M18 997h170q41 -131 85 -257t79 -234t62.5 -199.5t56.5 -177.5h10q6 14 33 105.5t86 277.5l162 485h168l-361 -997h-200z" />
    <glyph glyph-name="w" unicode="w" horiz-adv-x="1474" 
d="M1069 166l74 305l143 528h168l-297 -999h-182l-146 463l-100 354h-10l-92 -354l-133 -463h-183l-293 999h168l142 -516l78 -317h10l84 330l143 503h162l166 -526l86 -307h12z" />
    <glyph glyph-name="x" unicode="x" horiz-adv-x="884" 
d="M848 999l-311 -473q86 -133 168.5 -263t168.5 -263h-186q-173 295 -248 418l-252 -418h-180l336 522q-78 119 -152.5 238t-152.5 239h186q55 -92 108.5 -185t108.5 -185l222 370h184z" />
    <glyph glyph-name="y" unicode="y" horiz-adv-x="942" 
d="M208 -311q60 0 99 28.5t66 110.5l57 178h-80l-313 993h162l204 -686q20 -66 34 -123t22 -86h10l63 213q20 68 47 152t55 173t56.5 180t57.5 177h170q-192 -585 -269.5 -812.5t-119.5 -357.5t-109.5 -199.5t-183.5 -69.5q-23 2 -73 5t-143 29l27 117q101 -22 161 -22z" />
    <glyph glyph-name="z" unicode="z" horiz-adv-x="841" 
d="M819 123v-123h-794v104l559 758l-6 15h-492v122h711v-108l-557 -756l6 -12h573z" />
    <glyph glyph-name="braceleft" unicode="{" horiz-adv-x="542" 
d="M346 860q0 -216 -123 -254q115 -64 119 -160t4 -157v-391q0 -55 17.5 -94.5t76.5 -39.5h56v-110h-107q-120 0 -157 75.5t-37 180.5v432q0 191 -136 215v92q74 14 105 76.5t31 140.5v232q0 146 29 243t151 97h121v-111h-47q-103 0 -103 -135v-332z" />
    <glyph glyph-name="bar" unicode="|" horiz-adv-x="497" 
d="M182 -285v1719h119v-1719h-119z" />
    <glyph glyph-name="braceright" unicode="}" horiz-adv-x="542" 
d="M350 342v-432q0 -105 -37 -180.5t-157 -75.5h-107v110h55q59 0 77 39t18 95v391q0 144 20.5 209t102.5 108q-123 38 -123 254v332q0 135 -103 135h-47v111h121q120 0 150 -97t30 -243v-232q0 -78 31 -140t104 -77v-92q-135 -24 -135 -215z" />
    <glyph glyph-name="asciitilde" unicode="~" horiz-adv-x="1142" 
d="M798 506q-70 0 -127 15.5t-109 32.5t-99 32.5t-90 15.5l-150 -96l-69 57q35 80 95.5 127t122.5 47t119.5 -15t116 -32.5t111.5 -33t94 -15.5l139 98l68 -55q-33 -78 -92.5 -128t-129.5 -50z" />
    <glyph glyph-name="exclamdown" unicode="&#xa1;" horiz-adv-x="460" 
d="M338 908q0 -44 -31 -74.5t-78 -30.5t-77.5 30.5t-30.5 74.5t31.5 76t76.5 32t77 -32t32 -76zM305 -16l8 -414h-166q4 133 6.5 264t6.5 266t8 271.5t10 273.5h111z" />
    <glyph glyph-name="cent" unicode="&#xa2;" horiz-adv-x="1142" 
d="M344 504q0 -346 229 -381v756q-113 -25 -171 -124t-58 -251zM172 487q0 321 139.5 421t261.5 112v188h93v-186q140 -5 252 -51l-39 -121q-91 32 -213 37v-768q120 7 256 63l45 -110q-128 -74 -301 -82v-164h-93v164q-401 21 -401 497z" />
    <glyph glyph-name="sterling" unicode="&#xa3;" horiz-adv-x="1142" 
d="M719 1239q-197 0 -223.5 -110.5t-30.5 -174.5l-10 -209h379v-108h-385l-9 -166q-11 -267 -104 -346h694v-125h-907l2 123q148 63 160 352l8 162h-137v108h143l10 220q20 292 157.5 351.5t211.5 59.5q220 0 364 -67l-49 -125q-128 55 -274 55z" />
    <glyph glyph-name="currency" unicode="&#xa4;" horiz-adv-x="1126" 
d="M170 629q0 136 80 231l-129 131l76 78l131 -131q102 80 231 80t238 -80l129 131l80 -80l-134 -127q78 -105 78 -231t-78 -238l134 -123l-80 -82l-131 129q-94 -77 -231 -77t-234 77l-133 -131l-78 82l131 125q-80 100 -80 236zM366 434q79 -80 192 -80t194.5 79.5
t81.5 192.5t-80 193t-194 80t-193.5 -80.5t-79.5 -192.5t79 -192z" />
    <glyph glyph-name="yen" unicode="&#xa5;" horiz-adv-x="1142" 
d="M989 487v-84h-340v-403h-170v403h-336v84h846zM143 590v82h285q-86 174 -171 344t-171 344h174l303 -653h8q65 130 125 262l187 391h168l-353 -688h291v-82h-846z" />
    <glyph glyph-name="brokenbar" unicode="&#xa6;" horiz-adv-x="497" 
d="M301 498v-783h-119v783h119zM182 700v734h119v-734h-119z" />
    <glyph glyph-name="section" unicode="&#xa7;" horiz-adv-x="966" 
d="M610 412q99 99 99 195q0 87 -81 134t-139.5 71t-113.5 52q-107 -86 -107 -186t80 -144.5t141.5 -68t120.5 -53.5zM711 356q153 -93 153 -261q0 -147 -163.5 -262.5t-561.5 3.5l33 111q149 -49 279 -49q131 0 194.5 52t63.5 133t-50.5 125t-127.5 80t-147.5 65.5
t-167.5 93.5t-97 200q0 161 151 271q-68 47 -98.5 96.5t-30.5 121.5q0 144 105 226t280 82q176 0 299 -51l-39 -113q-134 43 -246 43t-179.5 -43t-67.5 -128t79 -131t136 -71.5t105 -47.5q111 -52 175 -115t64 -147q0 -83 -29.5 -149.5t-111.5 -134.5z" />
    <glyph glyph-name="dieresis" unicode="&#xa8;" horiz-adv-x="962" 
d="M391 1236q0 -40 -26.5 -65.5t-67.5 -25.5t-67.5 25.5t-26.5 64.5t28.5 64.5t67.5 25.5t65.5 -24.5t26.5 -64.5zM776 1236q0 -40 -28.5 -65.5t-69.5 -25.5t-65.5 25.5t-24.5 64.5t26.5 64.5t65.5 25.5t67.5 -24.5t28.5 -64.5z" />
    <glyph glyph-name="copyright" unicode="&#xa9;" horiz-adv-x="1710" 
d="M889 1087q-162 0 -243 -112t-81 -306t72.5 -300.5t253.5 -106.5q124 0 239 33l23 -92q-120 -47 -263 -47t-299.5 70t-156.5 440q0 336 155.5 431t294.5 95t249 -41l-27 -98q-87 34 -217 34zM1518 682q0 135 -52.5 255t-141.5 209t-211 140t-258 51t-257 -51t-212 -140
t-143.5 -209t-52.5 -255t52.5 -255t143.5 -209t212 -140t257 -51t258 51t211 140t141.5 209t52.5 255zM1608 682q0 -154 -59.5 -290t-163 -237.5t-240.5 -159.5t-292 -58t-291 58t-238.5 159.5t-162 237.5t-59.5 290t59.5 289t162 236.5t238.5 159.5t291 58t292 -58
t240.5 -159.5t163 -236.5t59.5 -289z" />
    <glyph glyph-name="ordfeminine" unicode="&#xaa;" horiz-adv-x="712" 
d="M184 741q0 -104 113 -104q35 0 84 20.5t86 49.5v147q-199 0 -241 -37t-42 -76zM344 1221q131 0 193.5 -50.5t62.5 -177.5v-342h92l8 -88q-58 -24 -136 -24t-95 69q-96 -73 -212 -73q-115 0 -165.5 58.5t-50.5 134.5q0 132 112 169t314 43v35q0 78 -27.5 106.5
t-114.5 28.5t-204 -41q-3 11 -33 94q125 58 256 58z" />
    <glyph glyph-name="guillemotleft" unicode="&#xab;" horiz-adv-x="886" 
d="M424 426l301 326l70 -54l-207 -313l207 -311l-68 -51l-303 323v80zM123 426l299 326l70 -54l-207 -313l207 -311l-68 -51l-301 323v80z" />
    <glyph glyph-name="logicalnot" unicode="&#xac;" horiz-adv-x="1142" 
d="M975 209h-125v344h-668v119h793v-463z" />
    <glyph glyph-name="sfthyphen" unicode="&#xad;" horiz-adv-x="749" 
d="M111 471v139h528v-139h-528z" />
    <glyph glyph-name="registered" unicode="&#xae;" horiz-adv-x="1189" 
d="M500 930v-258h-90v598h204q86 0 137.5 -41t51.5 -127q0 -39 -25.5 -87t-85.5 -73l125 -270h-98l-115 258h-104zM606 995q107 0 107 102q0 60 -32 83.5t-73 23.5h-108v-209h106zM1008 965q0 86 -33 162.5t-89.5 134t-134 91t-165.5 33.5t-166 -33.5t-135.5 -91t-90 -134
t-32.5 -162.5t32.5 -163t90 -133.5t134.5 -90t167 -33.5t167.5 33.5t134 90t88.5 133.5t32 163zM934 616.5q-147 -141.5 -350 -141.5t-349.5 142.5t-146.5 346t144.5 348t350.5 144.5t352 -143t146 -349t-147 -347.5z" />
    <glyph glyph-name="macron" unicode="&#xaf;" horiz-adv-x="1030" 
d="M172 1343h674v-131h-674v131z" />
    <glyph glyph-name="degree" unicode="&#xb0;" horiz-adv-x="710" 
d="M364 1280q-72 0 -123 -52t-51 -126t50.5 -125t122.5 -51t125 50.5t53 124.5q0 75 -52.5 127t-124.5 52zM561 907q-78 -78 -199 -78t-196.5 77.5t-75.5 192.5t82 197t195 82t192.5 -81.5t79.5 -196.5t-78 -193z" />
    <glyph glyph-name="plusminus" unicode="&#xb1;" horiz-adv-x="1142" 
d="M973 109v-109h-791v109h791zM641 549v-332h-125v332h-334v121h334v321h125v-321h332v-121h-332z" />
    <glyph glyph-name="twosuperior" unicode="&#xb2;" horiz-adv-x="745" 
d="M317 1556q301 0 301 -229q0 -168 -159.5 -307t-214.5 -184l409 -2v-107h-608v92q156 117 252 220.5t138 168t42 111.5q0 123 -164 123q-101 0 -223 -68l-53 88q138 94 280 94z" />
    <glyph glyph-name="threesuperior" unicode="&#xb3;" horiz-adv-x="745" 
d="M82 1438v106h539l20 -78q-23 -18 -45.5 -39.5t-52 -49t-67.5 -62.5t-89 -84q190 -14 232.5 -97t42.5 -145q0 -121 -97 -195.5t-252 -74.5t-268 51l35 100q92 -29 149.5 -32.5t94.5 -3.5q88 0 143 40.5t55 116.5t-63 107.5t-131 31.5t-117 -6l-27 74l250 229l-4 11h-348z
" />
    <glyph glyph-name="acute" unicode="&#xb4;" horiz-adv-x="1007" 
d="M471 1096l-74 63l252 332l119 -111z" />
    <glyph glyph-name="mu" unicode="&#xb5;" horiz-adv-x="1046" 
d="M408 -16q-53 0 -109 24l-12 -6v-428h-168v1430h166v-668q0 -102 43 -160.5t168 -58.5t262 125v762h168l-2 -1004h-164v113l-6 4q-135 -115 -214 -124t-132 -9z" />
    <glyph glyph-name="mu" unicode="&#x3bc;" horiz-adv-x="1046" 
d="M408 -16q-53 0 -109 24l-12 -6v-428h-168v1430h166v-668q0 -102 43 -160.5t168 -58.5t262 125v762h168l-2 -1004h-164v113l-6 4q-135 -115 -214 -124t-132 -9z" />
    <glyph glyph-name="paragraph" unicode="&#xb6;" horiz-adv-x="1073" 
d="M461 666q-159 0 -266 105.5t-107 265.5q0 159 107.5 270.5t265.5 111.5h422v-1816h-121v1695h-139l2 -1695h-125v1063h-39z" />
    <glyph glyph-name="periodcentered" unicode="&#xb7;" horiz-adv-x="419" 
d="M324 586q0 -47 -33 -79t-77 -32t-77 33t-33 79t32 76.5t78 30.5t78 -30.5t32 -77.5z" />
    <glyph glyph-name="cedilla" unicode="&#xb8;" horiz-adv-x="915" 
d="M686 -295q0 -82 -89 -143.5t-278 -61.5v74q242 22 242 121q0 84 -207 84l-26 39q192 248 198 256q16 -10 32 -19.5t32 -19.5q-61 -77 -127 -164q100 -4 161.5 -44t61.5 -122z" />
    <glyph glyph-name="onesuperior" unicode="&#xb9;" horiz-adv-x="745" 
d="M449 1544v-817h-138v686l-205 -29l-18 91l242 69h119z" />
    <glyph glyph-name="ordmasculine" unicode="&#xba;" horiz-adv-x="722" 
d="M535 877q0 158 -57.5 199.5t-131 41.5t-115 -69.5t-41.5 -144.5q0 -137 36.5 -199t140.5 -62q168 0 168 234zM596.5 633q-75.5 -96 -239.5 -96q-163 0 -234.5 93.5t-71.5 246.5q0 232 115 289t202 57t145 -30t108.5 -97.5t50.5 -216.5q0 -150 -75.5 -246z" />
    <glyph glyph-name="guillemotright" unicode="&#xbb;" horiz-adv-x="886" 
d="M473 346l-301 -323l-68 51l207 311l-207 313l70 54l299 -326v-80zM776 346l-301 -323l-67 51l204 311l-204 313l69 54l299 -326v-80z" />
    <glyph glyph-name="onequarter" unicode="&#xbc;" horiz-adv-x="1679" 
d="M1276 330v323h-8l-262 -323h270zM545 1360v-817h-137v686l-205 -29l-19 90l242 70h119zM582 -45h-115l602 1481h111zM1407 225v-227h-133v227h-416v92l418 500h131v-487h127v-105h-127z" />
    <glyph glyph-name="onehalf" unicode="&#xbd;" horiz-adv-x="1679" 
d="M508 1360v-817h-137v686l-205 -29l-19 90l242 70h119zM541 -45h-115l602 1481h111zM1226 829q142 0 222 -56t80 -173q0 -168 -160 -307t-215 -184l410 -3v-106h-609v92q163 122 256 223t134.5 165.5t41.5 111.5q0 123 -163 123q-102 0 -224 -68l-53 88q138 94 280 94z
" />
    <glyph glyph-name="threequarters" unicode="&#xbe;" horiz-adv-x="1679" 
d="M1341 330v323h-8l-262 -323h270zM639 -45h-115l602 1481h111zM358 649q217 0 217 160q0 74 -62 105.5t-131 31.5t-118 -6l-26 74l249 229l-4 10h-348v107h539l20 -78q-23 -18 -45 -39.5t-52 -49.5t-67.5 -62.5t-89.5 -83.5q191 -14 233 -97.5t42 -145.5
q0 -120 -96 -194.5t-252 -74.5t-269 51l35 100q118 -37 225 -37zM1473 225v-227h-134v227h-415v92l417 500h132v-487h126v-105h-126z" />
    <glyph glyph-name="questiondown" unicode="&#xbf;" horiz-adv-x="903" 
d="M434 908q0 44 32 76t77 32t76.5 -32t31.5 -76t-31.5 -74.5t-76.5 -30.5t-77 30.5t-32 74.5zM526 480q0 36 -16 155l135 18q25 -121 25 -182q0 -107 -62.5 -193t-199.5 -210q-68 -53 -106 -101.5t-38 -116.5q0 -161 221 -161q159 0 324 53l37 -123q-190 -68 -377 -68
t-284 75t-101 204q0 167 180 311q135 105 182.5 164.5t63.5 99t16 75.5z" />
    <glyph glyph-name="Agrave" unicode="&#xc0;" horiz-adv-x="1185" 
d="M299 1778l123 112l252 -329l-80 -68zM825 500q-47 156 -94 312.5t-96 309.5l-41 138h-6l-41 -140q-23 -76 -45.5 -148.5t-64 -210t-81.5 -261.5h469zM20 0l463 1403h222l458 -1403h-182q-52 165 -115 367h-553q-67 -212 -114 -367h-179z" />
    <glyph glyph-name="Aacute" unicode="&#xc1;" horiz-adv-x="1185" 
d="M608 1493l-78 63l252 330l123 -108zM825 500q-47 156 -94 312.5t-96 309.5l-41 138h-6l-41 -140q-23 -76 -45.5 -148.5t-64 -210t-81.5 -261.5h469zM20 0l463 1403h222l458 -1403h-182q-52 165 -115 367h-553q-67 -212 -114 -367h-179z" />
    <glyph glyph-name="Acircumflex" unicode="&#xc2;" horiz-adv-x="1185" 
d="M905 1495l-317 182l-316 -184l-47 57l307 283h113l311 -279zM825 500q-47 156 -94 312.5t-96 309.5l-41 138h-6l-41 -140q-23 -76 -45.5 -148.5t-64 -210t-81.5 -261.5h469zM20 0l463 1403h222l458 -1403h-182q-52 165 -115 367h-553q-67 -212 -114 -367h-179z" />
    <glyph glyph-name="Atilde" unicode="&#xc3;" horiz-adv-x="1185" 
d="M573.5 1600.5q-93.5 39.5 -131.5 39.5l-116 -79l-58 45q25 70 72 111.5t95 41.5q68 0 168.5 -40t137.5 -40l117 82l57 -45q-23 -70 -70 -112.5t-113 -42.5q-65 0 -158.5 39.5zM825 500q-47 156 -94 312.5t-96 309.5l-41 138h-6l-41 -140q-23 -76 -45.5 -148.5t-64 -210
t-81.5 -261.5h469zM20 0l463 1403h222l458 -1403h-182q-52 165 -115 367h-553q-67 -212 -114 -367h-179z" />
    <glyph glyph-name="Adieresis" unicode="&#xc4;" horiz-adv-x="1185" 
d="M874 1579q0 -41 -28.5 -65.5t-68.5 -24.5t-64.5 24.5t-24.5 63.5t25.5 65.5t64.5 26.5t67.5 -24.5t28.5 -65.5zM492 1579q0 -41 -27 -65.5t-68 -24.5t-67.5 24.5t-26.5 63.5t27.5 65.5t66.5 26.5t67 -24.5t28 -65.5zM825 500q-47 156 -94 312.5t-96 309.5l-41 138h-6
l-41 -140q-23 -76 -45.5 -148.5t-64 -210t-81.5 -261.5h469zM20 0l463 1403h222l458 -1403h-182q-52 165 -115 367h-553q-67 -212 -114 -367h-179z" />
    <glyph glyph-name="Aring" unicode="&#xc5;" horiz-adv-x="1185" 
d="M592 1788q-57 0 -93 -38t-36 -93t36 -92t93 -37t92 37t35 91t-35 93t-92 39zM435.5 1811.5q64.5 64.5 155.5 64.5t155.5 -62t64.5 -153q0 -92 -62.5 -153.5t-156.5 -61.5t-157.5 63.5t-63.5 150.5t64.5 151.5zM825 500q-47 156 -94 312.5t-96 309.5l-41 138h-6l-41 -140
q-23 -76 -45.5 -148.5t-64 -210t-81.5 -261.5h469zM20 0l463 1403h222l458 -1403h-182q-52 165 -115 367h-553q-67 -212 -114 -367h-179z" />
    <glyph glyph-name="AE" unicode="&#xc6;" horiz-adv-x="1937" 
d="M995 553v711h-10l-442 -711h452zM995 420h-530l-260 -420h-185l875 1401h911v-127h-637v-473h533v-125h-533v-547h670v-129h-844v420z" />
    <glyph glyph-name="Ccedilla" unicode="&#xc7;" horiz-adv-x="1214" 
d="M752 -340q0 84 -207 84l-27 39q41 51 78 102.5t78 100.5q-432 23 -491.5 288.5t-59.5 379.5t11 197t55.5 214t181.5 245.5t350 114.5t371 -57l-37 -129q-136 47 -276 47t-308 -81t-168 -513q0 -268 99.5 -418.5t355.5 -150.5q167 0 334 49l32 -123q-148 -54 -358 -63
q-29 -35 -56.5 -74t-56.5 -76q100 -4 162 -44t62 -122t-89.5 -143.5t-277.5 -61.5v74q242 22 242 121z" />
    <glyph glyph-name="Egrave" unicode="&#xc8;" horiz-adv-x="1155" 
d="M362 1778l123 112l252 -329l-80 -68zM164 0v1401h854v-131h-680v-465h573v-127h-573v-545h713v-133h-887z" />
    <glyph glyph-name="Eacute" unicode="&#xc9;" horiz-adv-x="1155" 
d="M618 1493l-77 63l252 330l122 -108zM164 0v1401h854v-131h-680v-465h573v-127h-573v-545h713v-133h-887z" />
    <glyph glyph-name="Ecircumflex" unicode="&#xca;" horiz-adv-x="1155" 
d="M915 1495l-317 182l-315 -184l-47 57l307 283h112l312 -279zM164 0v1401h854v-131h-680v-465h573v-127h-573v-545h713v-133h-887z" />
    <glyph glyph-name="Edieresis" unicode="&#xcb;" horiz-adv-x="1155" 
d="M512 1579q0 -41 -26.5 -65.5t-67.5 -24.5t-67.5 24.5t-26.5 63.5t27.5 65.5t66.5 26.5t66.5 -24.5t27.5 -65.5zM895 1579q0 -41 -28.5 -65.5t-68.5 -24.5t-64.5 24.5t-24.5 63.5t25.5 65.5t64.5 26.5t67.5 -24.5t28.5 -65.5zM164 0v1401h854v-131h-680v-465h573v-127
h-573v-545h713v-133h-887z" />
    <glyph glyph-name="Igrave" unicode="&#xcc;" horiz-adv-x="540" 
d="M-6 1778l123 112l252 -329l-80 -68zM184 0v1403h172v-1403h-172z" />
    <glyph glyph-name="Iacute" unicode="&#xcd;" horiz-adv-x="540" 
d="M276 1493l-77 63l252 330l122 -108zM184 0v1403h172v-1403h-172z" />
    <glyph glyph-name="Icircumflex" unicode="&#xce;" horiz-adv-x="540" 
d="M586 1495l-318 182l-315 -184l-47 57l307 283h113l311 -279zM184 0v1403h172v-1403h-172z" />
    <glyph glyph-name="Idieresis" unicode="&#xcf;" horiz-adv-x="540" 
d="M176 1579q0 -41 -26.5 -65.5t-67.5 -24.5t-67.5 24.5t-26.5 63.5t27.5 65.5t66.5 26.5t66.5 -24.5t27.5 -65.5zM559 1579q0 -41 -28.5 -65.5t-68.5 -24.5t-64.5 24.5t-24.5 63.5t25.5 65.5t64.5 26.5t67.5 -24.5t28.5 -65.5zM184 0v1403h172v-1403h-172z" />
    <glyph glyph-name="Eth" unicode="&#xd0;" horiz-adv-x="1318" 
d="M582 135q434 0 434 555q0 453 -161 516.5t-263 63.5h-250v-471h324v-125h-324v-539h240zM621 1403q575 0 575 -698q0 -495 -211 -600t-383 -105h-438v674h-127v125h127v604h457z" />
    <glyph glyph-name="Ntilde" unicode="&#xd1;" horiz-adv-x="1396" 
d="M672.5 1607q-95.5 40 -129.5 40l-117 -80l-57 45q25 70 72 111.5t95 41.5q69 0 167 -39.5t139 -39.5l116 81l58 -45q-23 -70 -70 -112.5t-112 -42.5q-66 0 -161.5 40zM330 0h-166v1401h174q131 -201 257 -397.5t255 -397.5l205 -321h10v1116h168v-1401h-170l-541 846
l-184 295l-8 -2v-1139z" />
    <glyph glyph-name="Ograve" unicode="&#xd2;" horiz-adv-x="1429" 
d="M436 1778l123 112l252 -329l-80 -68zM1124 690q0 602 -410.5 602t-410.5 -604q0 -281 98.5 -426t309.5 -145t312 159.5t101 413.5zM123 690q0 510 218 621.5t385 111.5q313 0 447 -203t134 -521q0 -319 -151.5 -517t-430.5 -198q-602 0 -602 706z" />
    <glyph glyph-name="Oacute" unicode="&#xd3;" horiz-adv-x="1429" 
d="M698 1493l-77 63l251 330l123 -108zM1124 690q0 602 -410.5 602t-410.5 -604q0 -281 98.5 -426t309.5 -145t312 159.5t101 413.5zM123 690q0 510 218 621.5t385 111.5q313 0 447 -203t134 -521q0 -319 -151.5 -517t-430.5 -198q-602 0 -602 706z" />
    <glyph glyph-name="Ocircumflex" unicode="&#xd4;" horiz-adv-x="1429" 
d="M1047 1495l-318 182l-315 -184l-47 57l307 283h112l312 -279zM1124 690q0 602 -410.5 602t-410.5 -604q0 -281 98.5 -426t309.5 -145t312 159.5t101 413.5zM123 690q0 510 218 621.5t385 111.5q313 0 447 -203t134 -521q0 -319 -151.5 -517t-430.5 -198q-602 0 -602 706z
" />
    <glyph glyph-name="Otilde" unicode="&#xd5;" horiz-adv-x="1429" 
d="M709.5 1611q-95.5 40 -129.5 40l-117 -80l-57 45q25 70 71.5 111.5t94.5 41.5q67 0 166.5 -39.5t140.5 -39.5l116 82l58 -46q-23 -70 -70 -112.5t-112 -42.5q-66 0 -161.5 40zM1124 690q0 602 -410.5 602t-410.5 -604q0 -281 98.5 -426t309.5 -145t312 159.5t101 413.5z
M123 690q0 510 218 621.5t385 111.5q313 0 447 -203t134 -521q0 -319 -151.5 -517t-430.5 -198q-602 0 -602 706z" />
    <glyph glyph-name="Odieresis" unicode="&#xd6;" horiz-adv-x="1429" 
d="M625 1599.5q0 -40.5 -27 -65.5t-68 -25t-67.5 25.5t-26.5 63.5t28 65t66 27t66.5 -25t28.5 -65.5zM1008 1599.5q0 -40.5 -29 -65.5t-69 -25t-64.5 25.5t-24.5 63.5t25.5 65t64.5 27t68 -25t29 -65.5zM1124 690q0 602 -410.5 602t-410.5 -604q0 -281 98.5 -426t309.5 -145
t312 159.5t101 413.5zM123 690q0 510 218 621.5t385 111.5q313 0 447 -203t134 -521q0 -319 -151.5 -517t-430.5 -198q-602 0 -602 706z" />
    <glyph glyph-name="multiply" unicode="&#xd7;" horiz-adv-x="1142" 
d="M580 506l-269 -268l-88 90l269 266l-265 264l86 84l262 -264l259 260l88 -88l-258 -260l262 -260l-86 -86z" />
    <glyph glyph-name="Oslash" unicode="&#xd8;" horiz-adv-x="1388" 
d="M705 1292q-422 0 -422 -604q0 -242 69 -369l635 844q-103 129 -282 129zM393 244q102 -127 305 -127t304.5 159.5t101.5 413.5q0 255 -76 400zM1143 1233q143 -191 143 -522t-150.5 -529t-422.5 -198t-420 135l-98 -131h-99l144 188q-138 176 -138 505t143.5 535.5
t459.5 206.5q243 0 382 -133l103 137h102z" />
    <glyph glyph-name="Ugrave" unicode="&#xd9;" horiz-adv-x="1361" 
d="M428 1778l123 112l252 -329l-80 -68zM1217 504q0 -241 -134.5 -380.5t-409.5 -139.5q-274 0 -400 138t-126 382v899h172v-901q0 -193 94.5 -289t268.5 -96t269.5 95t95.5 290l-3 901h173v-899z" />
    <glyph glyph-name="Uacute" unicode="&#xda;" horiz-adv-x="1361" 
d="M653 1493l-78 63l252 330l123 -108zM1217 504q0 -241 -134.5 -380.5t-409.5 -139.5q-274 0 -400 138t-126 382v899h172v-901q0 -193 94.5 -289t268.5 -96t269.5 95t95.5 290l-3 901h173v-899z" />
    <glyph glyph-name="Ucircumflex" unicode="&#xdb;" horiz-adv-x="1361" 
d="M1006 1495l-330 178l-328 -180l-49 55l319 279h117l324 -275zM1217 504q0 -241 -134.5 -380.5t-409.5 -139.5q-274 0 -400 138t-126 382v899h172v-901q0 -193 94.5 -289t268.5 -96t269.5 95t95.5 290l-3 901h173v-899z" />
    <glyph glyph-name="Udieresis" unicode="&#xdc;" horiz-adv-x="1361" 
d="M586 1591q0 -41 -27 -65.5t-67.5 -24.5t-67.5 24.5t-27 63.5t28.5 65.5t66.5 26.5t66 -24.5t28 -65.5zM969 1591q0 -41 -29 -65.5t-69 -24.5t-64.5 24.5t-24.5 63.5t26 65.5t64 26.5t67.5 -24.5t29.5 -65.5zM1217 504q0 -241 -134.5 -380.5t-409.5 -139.5
q-274 0 -400 138t-126 382v899h172v-901q0 -193 94.5 -289t268.5 -96t269.5 95t95.5 290l-3 901h173v-899z" />
    <glyph glyph-name="Yacute" unicode="&#xdd;" horiz-adv-x="1097" 
d="M535 1456l-78 64l252 329l122 -108zM633 0h-182v606l-431 797h183l192 -369l144 -284h8l155 297l195 356h178l-442 -789v-614z" />
    <glyph glyph-name="Thorn" unicode="&#xde;" horiz-adv-x="1136" 
d="M338 977v-563h278q182 0 223.5 100t41.5 177q0 144 -75 215t-198 71h-270zM1059 720q0 -178 -100 -307.5t-318 -129.5h-303v-283h-174v1403h174v-293h285q199 0 285.5 -77t118.5 -154t32 -159z" />
    <glyph glyph-name="germandbls" unicode="&#xdf;" horiz-adv-x="1200" 
d="M963 232q0 57 -17.5 95t-44.5 68.5t-59.5 57t-66.5 58.5q-109 102 -161.5 164.5t-52.5 131.5t34 116.5t74 90.5t73.5 84t33.5 90q0 94 -66 127t-128 33q-113 0 -166.5 -67t-53.5 -171v-1110h-165v786h-146v111h146v221q0 129 89 244t287 115t281.5 -83.5t83.5 -169.5
t-34 -140t-73.5 -97t-72.5 -80t-33 -85q0 -82 164 -210q45 -35 143 -114t98 -258q-14 -183 -132 -225t-202 -42q-173 0 -298 52l37 122q280 -98 354 -35t74 120z" />
    <glyph glyph-name="agrave" unicode="&#xe0;" horiz-adv-x="1085" 
d="M268 1380l123 117l252 -332l-78 -69zM520 1016q183 0 273 -74t90 -258v-559h135l10 -98q-84 -41 -159 -41q-74 0 -107 24.5t-37 102.5l-2 2q-141 -121 -232.5 -126t-113.5 -5q-156 0 -223.5 89.5t-67.5 208.5t93 198t286 91l256 17v63q0 125 -45 176.5t-184 51.5
t-295 -56l-37 113q177 80 360 80zM449 113q129 0 272 131v233l-256 -16q-102 -4 -151.5 -51.5t-49.5 -129.5q0 -168 185 -167z" />
    <glyph glyph-name="aacute" unicode="&#xe1;" horiz-adv-x="1085" 
d="M492 1096l-74 63l252 332l118 -111zM520 1016q183 0 273 -74t90 -258v-559h135l10 -98q-84 -41 -159 -41q-74 0 -107 24.5t-37 102.5l-2 2q-141 -121 -232.5 -126t-113.5 -5q-156 0 -223.5 89.5t-67.5 208.5t93 198t286 91l256 17v63q0 125 -45 176.5t-184 51.5t-295 -56
l-37 113q177 80 360 80zM449 113q129 0 272 131v233l-256 -16q-102 -4 -151.5 -51.5t-49.5 -129.5q0 -168 185 -167z" />
    <glyph glyph-name="acircumflex" unicode="&#xe2;" horiz-adv-x="1085" 
d="M829 1090l-317 190l-315 -193l-47 58l307 293h112l312 -289zM520 1016q183 0 273 -74t90 -258v-559h135l10 -98q-84 -41 -159 -41q-74 0 -107 24.5t-37 102.5l-2 2q-141 -121 -232.5 -126t-113.5 -5q-156 0 -223.5 89.5t-67.5 208.5t93 198t286 91l256 17v63
q0 125 -45 176.5t-184 51.5t-295 -56l-37 113q177 80 360 80zM449 113q129 0 272 131v233l-256 -16q-102 -4 -151.5 -51.5t-49.5 -129.5q0 -168 185 -167z" />
    <glyph glyph-name="atilde" unicode="&#xe3;" horiz-adv-x="1085" 
d="M502 1213.5q-94 39.5 -131 39.5l-117 -79l-57 45q25 70 72 111.5t95 41.5q69 0 168 -40t138 -40l116 82l58 -45q-23 -70 -70 -112.5t-112 -42.5q-66 0 -160 39.5zM520 1016q183 0 273 -74t90 -258v-559h135l10 -98q-84 -41 -159 -41q-74 0 -107 24.5t-37 102.5l-2 2
q-141 -121 -232.5 -126t-113.5 -5q-156 0 -223.5 89.5t-67.5 208.5t93 198t286 91l256 17v63q0 125 -45 176.5t-184 51.5t-295 -56l-37 113q177 80 360 80zM449 113q129 0 272 131v233l-256 -16q-102 -4 -151.5 -51.5t-49.5 -129.5q0 -168 185 -167z" />
    <glyph glyph-name="adieresis" unicode="&#xe4;" horiz-adv-x="1085" 
d="M428 1236q0 -40 -26.5 -65.5t-67.5 -25.5t-67.5 25.5t-26.5 64.5t28.5 64.5t67.5 25.5t65.5 -24.5t26.5 -64.5zM813 1236q0 -40 -28.5 -65.5t-69.5 -25.5t-65.5 25.5t-24.5 64.5t26.5 64.5t65.5 25.5t67.5 -24.5t28.5 -64.5zM520 1016q183 0 273 -74t90 -258v-559h135
l10 -98q-84 -41 -159 -41q-74 0 -107 24.5t-37 102.5l-2 2q-141 -121 -232.5 -126t-113.5 -5q-156 0 -223.5 89.5t-67.5 208.5t93 198t286 91l256 17v63q0 125 -45 176.5t-184 51.5t-295 -56l-37 113q177 80 360 80zM449 113q129 0 272 131v233l-256 -16
q-102 -4 -151.5 -51.5t-49.5 -129.5q0 -168 185 -167z" />
    <glyph glyph-name="aring" unicode="&#xe5;" horiz-adv-x="1085" 
d="M539 1470q-57 0 -93 -37t-36 -93t35 -93t93 -37t93 37t35 91t-35 93t-92 39zM382 1493.5q65 65.5 157 65.5t155.5 -62.5t63.5 -154.5q0 -91 -62.5 -152.5t-156.5 -61.5t-158 64t-64 150t65 151.5zM520 1016q183 0 273 -74t90 -258v-559h135l10 -98q-84 -41 -159 -41
q-74 0 -107 24.5t-37 102.5l-2 2q-141 -121 -232.5 -126t-113.5 -5q-156 0 -223.5 89.5t-67.5 208.5t93 198t286 91l256 17v63q0 125 -45 176.5t-184 51.5t-295 -56l-37 113q177 80 360 80zM449 113q129 0 272 131v233l-256 -16q-102 -4 -151.5 -51.5t-49.5 -129.5
q0 -168 185 -167z" />
    <glyph glyph-name="ae" unicode="&#xe6;" horiz-adv-x="1622" 
d="M1155 893q-130 0 -191.5 -90.5t-70.5 -233.5h502q0 237 -85 280.5t-155 43.5zM246 289q0 -183 186 -183q105 0 198 48.5t128 78.5q-33 93 -37 232h-264q-104 0 -157.5 -48t-53.5 -128zM889 465q0 -348 275 -348q148 0 323 69l39 -106q-172 -92 -367 -92q-248 0 -354 153
q-194 -147 -304 -152t-168 -5t-161.5 51.5t-103.5 244.5q0 119 94 202t268 85l293 2v84q0 129 -56.5 178.5t-196.5 49.5t-294 -56l-37 113q176 80 383 80q240 0 307 -160q107 164 328 164q395 0 395 -477v-80h-663z" />
    <glyph glyph-name="ccedilla" unicode="&#xe7;" horiz-adv-x="933" 
d="M561 887q-137 0 -214 -104.5t-77 -278.5q0 -279 102.5 -332t209.5 -53t266 63l45 -110q-144 -80 -340 -84l-88 -117q100 -4 161.5 -44t61.5 -122t-89 -143.5t-277 -61.5v74q241 22 241 121q0 84 -207 84l-26 39l133 174q-365 43 -365 495q0 345 158 440t313 95t275 -51
l-39 -121q-107 37 -244 37z" />
    <glyph glyph-name="egrave" unicode="&#xe8;" horiz-adv-x="1034" 
d="M266 1380l123 117l252 -332l-78 -69zM540 1022q400 0 400 -477v-80h-670q0 -350 285 -350q139 0 319 71l41 -106q-176 -92 -372 -92q-245 0 -345 136t-100 348q0 417 172.5 483.5t269.5 66.5zM540 899q-131 0 -195 -89.5t-73 -236.5h510q0 238 -85.5 282t-156.5 44z" />
    <glyph glyph-name="eacute" unicode="&#xe9;" horiz-adv-x="1034" 
d="M510 1096l-74 63l252 332l119 -111zM540 1022q400 0 400 -477v-80h-670q0 -350 285 -350q139 0 319 71l41 -106q-176 -92 -372 -92q-245 0 -345 136t-100 348q0 417 172.5 483.5t269.5 66.5zM540 899q-131 0 -195 -89.5t-73 -236.5h510q0 238 -85.5 282t-156.5 44z" />
    <glyph glyph-name="ecircumflex" unicode="&#xea;" horiz-adv-x="1034" 
d="M864 1090l-317 190l-316 -193l-47 58l308 293h112l311 -289zM540 1022q400 0 400 -477v-80h-670q0 -350 285 -350q139 0 319 71l41 -106q-176 -92 -372 -92q-245 0 -345 136t-100 348q0 417 172.5 483.5t269.5 66.5zM540 899q-131 0 -195 -89.5t-73 -236.5h510
q0 238 -85.5 282t-156.5 44z" />
    <glyph glyph-name="edieresis" unicode="&#xeb;" horiz-adv-x="1034" 
d="M453 1236q0 -40 -27 -65.5t-68 -25.5t-67.5 25.5t-26.5 64.5t29 64.5t67 25.5t65.5 -24.5t27.5 -64.5zM838 1236q0 -40 -29 -65.5t-70 -25.5t-65.5 25.5t-24.5 64.5t26.5 64.5t65.5 25.5t68 -24.5t29 -64.5zM540 1022q400 0 400 -477v-80h-670q0 -350 285 -350
q139 0 319 71l41 -106q-176 -92 -372 -92q-245 0 -345 136t-100 348q0 417 172.5 483.5t269.5 66.5zM540 899q-131 0 -195 -89.5t-73 -236.5h510q0 238 -85.5 282t-156.5 44z" />
    <glyph glyph-name="igrave" unicode="&#xec;" horiz-adv-x="520" 
d="M-12 1380l123 117l251 -332l-77 -69zM174 0v999h166v-999h-166z" />
    <glyph glyph-name="iacute" unicode="&#xed;" horiz-adv-x="520" 
d="M264 1096l-74 63l252 332l119 -111zM174 0v999h166v-999h-166z" />
    <glyph glyph-name="icircumflex" unicode="&#xee;" horiz-adv-x="557" 
d="M592 1090l-318 190l-315 -193l-47 58l307 293h113l311 -289zM199 0v999h166v-999h-166z" />
    <glyph glyph-name="idieresis" unicode="&#xef;" horiz-adv-x="520" 
d="M156 1236q0 -40 -27 -65.5t-68 -25.5t-67.5 25.5t-26.5 64.5t29.5 64.5t67.5 25.5t65 -24.5t27 -64.5zM541 1236q0 -40 -29 -65.5t-70 -25.5t-65.5 25.5t-24.5 64.5t27 64.5t65 25.5t67.5 -24.5t29.5 -64.5zM174 0v999h166v-999h-166z" />
    <glyph glyph-name="eth" unicode="&#xf0;" horiz-adv-x="1048" 
d="M512 795q-64 0 -163 -63t-99 -288q0 -140 38 -204t91 -95.5t142 -31.5q159 0 220.5 120.5t61.5 245.5t-25 240q-116 76 -266 76zM514 -16q-238 0 -333 134.5t-95 325.5q0 192 114 334t312 142q142 0 252 -60q-59 172 -160 295l-188 -127l-49 68l180 121q-89 93 -211 172
l55 94q147 -76 266 -191l187 125l49 -67l-176 -117q256 -288 248 -705q0 -356 -159 -450t-292 -94z" />
    <glyph glyph-name="ntilde" unicode="&#xf1;" horiz-adv-x="1052" 
d="M485.5 1238q-97.5 40 -131.5 40l-116 -80l-58 45q25 70 72 112t95 42q65 0 165.5 -40t140.5 -40l117 82l57 -45q-23 -70 -70 -113t-111 -43q-63 0 -160.5 40zM291 909q179 113 363 113q166 0 222 -87t56 -235v-700h-166v659q0 119 -22.5 157t-57.5 53.5t-94 15.5
q-131 0 -305 -99v-786h-168v999h164l2 -86z" />
    <glyph glyph-name="ograve" unicode="&#xf2;" horiz-adv-x="1081" 
d="M281 1380l122 117l252 -332l-77 -69zM549 113q260 0 260 389t-260 389q-152 0 -214.5 -115t-62.5 -286t57.5 -274t219.5 -103zM878 130.5q-105 -146.5 -342 -146.5t-337.5 141.5t-100.5 365.5q0 223 110.5 376t341.5 153t332 -148t101 -371q0 -224 -105 -370.5z" />
    <glyph glyph-name="oacute" unicode="&#xf3;" horiz-adv-x="1081" 
d="M553 1096l-74 63l252 332l119 -111zM549 113q260 0 260 389t-260 389q-152 0 -214.5 -115t-62.5 -286t57.5 -274t219.5 -103zM878 130.5q-105 -146.5 -342 -146.5t-337.5 141.5t-100.5 365.5q0 223 110.5 376t341.5 153t332 -148t101 -371q0 -224 -105 -370.5z" />
    <glyph glyph-name="ocircumflex" unicode="&#xf4;" horiz-adv-x="1081" 
d="M870 1090l-317 190l-315 -193l-48 58l308 293h112l312 -289zM549 113q260 0 260 389t-260 389q-152 0 -214.5 -115t-62.5 -286t57.5 -274t219.5 -103zM878 130.5q-105 -146.5 -342 -146.5t-337.5 141.5t-100.5 365.5q0 223 110.5 376t341.5 153t332 -148t101 -371
q0 -224 -105 -370.5z" />
    <glyph glyph-name="otilde" unicode="&#xf5;" horiz-adv-x="1081" 
d="M531.5 1211q-94.5 40 -132.5 40l-116 -80l-58 46q25 70 72 111.5t95 41.5q68 0 168.5 -40t137.5 -40l117 82l57 -45q-23 -70 -70 -113t-112 -43q-64 0 -158.5 40zM549 113q260 0 260 389t-260 389q-152 0 -214.5 -115t-62.5 -286t57.5 -274t219.5 -103zM878 130.5
q-105 -146.5 -342 -146.5t-337.5 141.5t-100.5 365.5q0 223 110.5 376t341.5 153t332 -148t101 -371q0 -224 -105 -370.5z" />
    <glyph glyph-name="odieresis" unicode="&#xf6;" horiz-adv-x="1081" 
d="M455 1236q0 -40 -27 -65.5t-68 -25.5t-67.5 25.5t-26.5 64.5t29 64.5t67 25.5t65.5 -24.5t27.5 -64.5zM840 1236q0 -40 -29 -65.5t-70 -25.5t-65.5 25.5t-24.5 64.5t27.5 64.5t65.5 25.5t67 -24.5t29 -64.5zM549 113q260 0 260 389t-260 389q-152 0 -214.5 -115
t-62.5 -286t57.5 -274t219.5 -103zM878 130.5q-105 -146.5 -342 -146.5t-337.5 141.5t-100.5 365.5q0 223 110.5 376t341.5 153t332 -148t101 -371q0 -224 -105 -370.5z" />
    <glyph glyph-name="divide" unicode="&#xf7;" horiz-adv-x="1142" 
d="M676 287q0 -43 -30 -74t-72 -31t-72.5 32t-30.5 74t29.5 70.5t72.5 28.5t73 -28.5t30 -71.5zM174 553v119h797v-119h-797zM676 936q0 -43 -30 -74t-72 -31t-72.5 32t-30.5 74t29.5 71.5t72.5 29.5t73 -29.5t30 -72.5z" />
    <glyph glyph-name="oslash" unicode="&#xf8;" horiz-adv-x="1046" 
d="M530 889q-149 0 -212.5 -114.5t-63.5 -270.5q0 -157 41 -248l418 549q-62 84 -183 84zM530 113q261 0 261 381q0 155 -46 249l-415 -553q68 -77 200 -77zM182 123q-100 131 -100 361t110.5 383t337.5 153q177 0 283 -98l74 96q20 0 40.5 1t41.5 1l-111 -143
q107 -138 107 -379q0 -350 -162 -431t-293 -81q-180 0 -281 88l-67 -86q-23 0 -44.5 -1t-43.5 -1z" />
    <glyph glyph-name="ugrave" unicode="&#xf9;" horiz-adv-x="1032" 
d="M262 1380l123 117l252 -332l-78 -69zM119 297v702h166v-661q0 -118 22.5 -155.5t56.5 -52.5t92 -15t139 30.5t153 96.5v757l163 2v-1001h-161l-2 113l-5 4q-160 -140 -335 -140q-257 0 -273 132.5t-16 187.5z" />
    <glyph glyph-name="uacute" unicode="&#xfa;" horiz-adv-x="1032" 
d="M506 1096l-74 63l252 332l119 -111zM119 297v702h166v-661q0 -118 22.5 -155.5t56.5 -52.5t92 -15t139 30.5t153 96.5v757l163 2v-1001h-161l-2 113l-5 4q-160 -140 -335 -140q-257 0 -273 132.5t-16 187.5z" />
    <glyph glyph-name="ucircumflex" unicode="&#xfb;" horiz-adv-x="1032" 
d="M834 1090l-318 190l-315 -193l-47 58l307 293h112l312 -289zM119 297v702h166v-661q0 -118 22.5 -155.5t56.5 -52.5t92 -15t139 30.5t153 96.5v757l163 2v-1001h-161l-2 113l-5 4q-160 -140 -335 -140q-257 0 -273 132.5t-16 187.5z" />
    <glyph glyph-name="udieresis" unicode="&#xfc;" horiz-adv-x="1032" 
d="M432 1236q0 -40 -26.5 -65.5t-67.5 -25.5t-67.5 25.5t-26.5 64.5t28.5 64.5t67.5 25.5t65.5 -24.5t26.5 -64.5zM817 1236q0 -40 -28.5 -65.5t-69.5 -25.5t-65.5 25.5t-24.5 64.5t26.5 64.5t65.5 25.5t67.5 -24.5t28.5 -64.5zM119 297v702h166v-661q0 -118 22.5 -155.5
t56.5 -52.5t92 -15t139 30.5t153 96.5v757l163 2v-1001h-161l-2 113l-5 4q-160 -140 -335 -140q-257 0 -273 132.5t-16 187.5z" />
    <glyph glyph-name="yacute" unicode="&#xfd;" horiz-adv-x="942" 
d="M449 1096l-74 63l252 332l118 -111zM208 -311q60 0 99 28.5t66 110.5l57 178h-80l-313 993h162l204 -686q20 -66 34 -123t22 -86h10l63 213q20 68 47 152t55 173t56.5 180t57.5 177h170q-192 -585 -269.5 -812.5t-119.5 -357.5t-109.5 -199.5t-183.5 -69.5q-23 2 -73 5
t-143 29l27 117q101 -22 161 -22z" />
    <glyph glyph-name="thorn" unicode="&#xfe;" horiz-adv-x="1067" 
d="M547 111q108 0 179 95t71 314q0 288 -96.5 324.5t-139.5 36.5q-74 0 -159.5 -36.5t-114.5 -66.5v-596q61 -46 139 -58.5t121 -12.5zM287 901q139 111 316 111q93 0 229.5 -75t136.5 -419q0 -384 -147.5 -461t-281.5 -77t-253 71l-2 -477h-166v1829h166v-500z" />
    <glyph glyph-name="ydieresis" unicode="&#xff;" horiz-adv-x="942" 
d="M391 1236q0 -40 -26.5 -65.5t-67.5 -25.5t-67.5 25.5t-26.5 64.5t28.5 64.5t67.5 25.5t65.5 -24.5t26.5 -64.5zM776 1236q0 -40 -28.5 -65.5t-69.5 -25.5t-65.5 25.5t-24.5 64.5t26.5 64.5t65.5 25.5t67.5 -24.5t28.5 -64.5zM208 -311q60 0 99 28.5t66 110.5l57 178h-80
l-313 993h162l204 -686q20 -66 34 -123t22 -86h10l63 213q20 68 47 152t55 173t56.5 180t57.5 177h170q-192 -585 -269.5 -812.5t-119.5 -357.5t-109.5 -199.5t-183.5 -69.5q-23 2 -73 5t-143 29l27 117q101 -22 161 -22z" />
    <glyph glyph-name="Amacron" unicode="&#x100;" horiz-adv-x="1185" 
d="M260 1661h668v-131h-668v131zM825 500q-47 156 -94 312.5t-96 309.5l-41 138h-6l-41 -140q-23 -76 -45.5 -148.5t-64 -210t-81.5 -261.5h469zM20 0l463 1403h222l458 -1403h-182q-52 165 -115 367h-553q-67 -212 -114 -367h-179z" />
    <glyph glyph-name="amacron" unicode="&#x101;" horiz-adv-x="1085" 
d="M190 1343h674v-131h-674v131zM520 1016q183 0 273 -74t90 -258v-559h135l10 -98q-84 -41 -159 -41q-74 0 -107 24.5t-37 102.5l-2 2q-141 -121 -232.5 -126t-113.5 -5q-156 0 -223.5 89.5t-67.5 208.5t93 198t286 91l256 17v63q0 125 -45 176.5t-184 51.5t-295 -56
l-37 113q177 80 360 80zM449 113q129 0 272 131v233l-256 -16q-102 -4 -151.5 -51.5t-49.5 -129.5q0 -168 185 -167z" />
    <glyph glyph-name="Abreve" unicode="&#x102;" horiz-adv-x="1185" 
d="M582 1495q-144 0 -222.5 93t-109.5 136l96 68q55 -76 119.5 -123t124.5 -47q127 0 291 158l55 -51q-163 -234 -354 -234zM825 500q-47 156 -94 312.5t-96 309.5l-41 138h-6l-41 -140q-23 -76 -45.5 -148.5t-64 -210t-81.5 -261.5h469zM20 0l463 1403h222l458 -1403h-182
q-52 165 -115 367h-553q-67 -212 -114 -367h-179z" />
    <glyph glyph-name="abreve" unicode="&#x103;" horiz-adv-x="1085" 
d="M512 1128q-166 0 -332 230l96 69q55 -78 119 -124t140 -46q114 0 276 156l55 -51q-163 -234 -354 -234zM520 1016q183 0 273 -74t90 -258v-559h135l10 -98q-84 -41 -159 -41q-74 0 -107 24.5t-37 102.5l-2 2q-141 -121 -232.5 -126t-113.5 -5q-156 0 -223.5 89.5
t-67.5 208.5t93 198t286 91l256 17v63q0 125 -45 176.5t-184 51.5t-295 -56l-37 113q177 80 360 80zM449 113q129 0 272 131v233l-256 -16q-102 -4 -151.5 -51.5t-49.5 -129.5q0 -168 185 -167z" />
    <glyph glyph-name="Aogonek" unicode="&#x104;" horiz-adv-x="1185" 
d="M825 500q-47 156 -94 312.5t-96 309.5l-41 138h-6l-41 -140q-23 -76 -45.5 -148.5t-64 -210t-81.5 -261.5h469zM1044 0q-94 -116 -94 -231q0 -99 121 -99q37 0 148 23l12 -66q-104 -53 -210 -53q-107 0 -157.5 39t-50.5 108q0 159 162 295l-109 351h-553
q-67 -212 -114 -367h-179l463 1403h222l458 -1403h-119z" />
    <glyph glyph-name="aogonek" unicode="&#x105;" horiz-adv-x="1085" 
d="M449 113q129 0 272 131v233l-256 -16q-102 -4 -151.5 -51.5t-49.5 -129.5q0 -168 185 -167zM520 1016q183 0 273 -74t90 -258v-559h135l10 -98q-71 -36 -166 -41q-80 -121 -80 -194q0 -72 33 -95t79 -23t157 23l12 -66q-104 -53 -210 -53q-208 0 -208 146t137 274
q-53 20 -57 115l-2 2q-141 -121 -232.5 -126t-113.5 -5q-156 0 -223.5 89.5t-67.5 208.5t93 198t286 91l256 17v63q0 125 -45 176.5t-184 51.5t-295 -56l-37 113q177 80 360 80z" />
    <glyph glyph-name="Cacute" unicode="&#x106;" horiz-adv-x="1214" 
d="M709 1493l-78 63l252 330l123 -108zM727 -16q-604 0 -604 708q0 281 141.5 507t472.5 226q196 0 355 -57l-37 -129q-136 47 -276 47t-308 -81t-168 -513q0 -268 70.5 -374.5t159 -150.5t240.5 -44t319 49l32 -123q-115 -44 -231.5 -54.5t-165.5 -10.5z" />
    <glyph glyph-name="cacute" unicode="&#x107;" horiz-adv-x="933" 
d="M479 1096l-73 63l251 332l119 -111zM561 887q-137 0 -214 -104.5t-77 -278.5q0 -279 102.5 -332t209.5 -53t266 63l45 -110q-158 -84 -348 -84q-447 0 -447 499q0 345 158 440t313 95t275 -51l-39 -121q-107 37 -244 37z" />
    <glyph glyph-name="Ccircumflex" unicode="&#x108;" horiz-adv-x="1214" 
d="M1006 1495l-318 182l-315 -184l-47 57l307 283h112l312 -279zM727 -16q-604 0 -604 708q0 281 141.5 507t472.5 226q196 0 355 -57l-37 -129q-136 47 -276 47t-308 -81t-168 -513q0 -268 70.5 -374.5t159 -150.5t240.5 -44t319 49l32 -123q-115 -44 -231.5 -54.5
t-165.5 -10.5z" />
    <glyph glyph-name="ccircumflex" unicode="&#x109;" horiz-adv-x="933" 
d="M836 1090l-318 190l-315 -193l-47 58l307 293h112l312 -289zM561 887q-137 0 -214 -104.5t-77 -278.5q0 -279 102.5 -332t209.5 -53t266 63l45 -110q-158 -84 -348 -84q-447 0 -447 499q0 345 158 440t313 95t275 -51l-39 -121q-107 37 -244 37z" />
    <glyph glyph-name="Cdotaccent" unicode="&#x10a;" horiz-adv-x="1214" 
d="M805 1677q0 -47 -35 -80.5t-82 -33.5t-80 33.5t-33 80.5t33 82t80 35t82 -35t35 -82zM727 -16q-604 0 -604 708q0 281 141.5 507t472.5 226q196 0 355 -57l-37 -129q-136 47 -276 47t-308 -81t-168 -513q0 -268 70.5 -374.5t159 -150.5t240.5 -44t319 49l32 -123
q-115 -44 -231.5 -54.5t-165.5 -10.5z" />
    <glyph glyph-name="cdotaccent" unicode="&#x10b;" horiz-adv-x="933" 
d="M633 1270q0 -47 -31 -79t-74 -32t-71.5 32t-28.5 79t28.5 79.5t71.5 32.5t74 -32.5t31 -79.5zM561 887q-137 0 -214 -104.5t-77 -278.5q0 -279 102.5 -332t209.5 -53t266 63l45 -110q-158 -84 -348 -84q-447 0 -447 499q0 345 158 440t313 95t275 -51l-39 -121
q-107 37 -244 37z" />
    <glyph glyph-name="Ccaron" unicode="&#x10c;" horiz-adv-x="1214" 
d="M1057 1767l-312 -276h-110l-309 281l47 55l317 -187l318 187zM727 -16q-604 0 -604 708q0 281 141.5 507t472.5 226q196 0 355 -57l-37 -129q-136 47 -276 47t-308 -81t-168 -513q0 -268 70.5 -374.5t159 -150.5t240.5 -44t319 49l32 -123q-115 -44 -231.5 -54.5
t-165.5 -10.5z" />
    <glyph glyph-name="ccaron" unicode="&#x10d;" horiz-adv-x="933" 
d="M907 1405l-311 -289h-111l-309 293l47 57l318 -198l317 196zM561 887q-137 0 -214 -104.5t-77 -278.5q0 -279 102.5 -332t209.5 -53t266 63l45 -110q-158 -84 -348 -84q-447 0 -447 499q0 345 158 440t313 95t275 -51l-39 -121q-107 37 -244 37z" />
    <glyph glyph-name="Dcaron" unicode="&#x10e;" horiz-adv-x="1318" 
d="M958 1767l-311 -276h-110l-310 281l47 55l318 -187l317 187zM582 135q434 0 434 555q0 453 -161 516.5t-263 63.5h-250v-1135h240zM621 1403q575 0 575 -698q0 -495 -211 -600t-383 -105h-438v1403h457z" />
    <glyph glyph-name="dcaron" unicode="&#x10f;" horiz-adv-x="1308" 
d="M528 889q-258 0 -258 -410q0 -289 96.5 -325.5t139.5 -36.5q77 0 159.5 35t114.5 67v598q-31 23 -105.5 47.5t-146.5 24.5zM98 481q0 381 147.5 461t252.5 80t178.5 -26.5t103.5 -47.5v508h168v-1456h-164v94l-4 4q-132 -110 -320 -110t-275 136.5t-87 356.5zM1083 1413
q0 41 31 72t80 31t81 -35t29 -101t-47.5 -130t-121.5 -105l-41 51q61 55 61 121q-72 20 -72 96z" />
    <glyph glyph-name="Dcroat" unicode="&#x110;" horiz-adv-x="1318" 
d="M582 135q434 0 434 555q0 453 -161 516.5t-263 63.5h-250v-471h324v-125h-324v-539h240zM621 1403q575 0 575 -698q0 -495 -211 -600t-383 -105h-438v674h-127v125h127v604h457z" />
    <glyph glyph-name="dcroat" unicode="&#x111;" horiz-adv-x="1069" 
d="M340.5 764q-70.5 -84 -70.5 -305q0 -283 96.5 -312.5t139.5 -29.5q77 0 159.5 35t114.5 67v557q-31 23 -105.5 47.5t-168.5 24.5q-95 0 -165.5 -84zM780 98q-132 -110 -322 -110q-188 0 -274 127.5t-86 345.5q0 520 406 520q99 0 172.5 -26.5t103.5 -47.5v211h-319v94
h319v244h168v-244h137v-94h-137v-1118h-164v94z" />
    <glyph glyph-name="Emacron" unicode="&#x112;" horiz-adv-x="1155" 
d="M270 1661h668v-131h-668v131zM164 0v1401h854v-131h-680v-465h573v-127h-573v-545h713v-133h-887z" />
    <glyph glyph-name="emacron" unicode="&#x113;" horiz-adv-x="1034" 
d="M199 1343h673v-131h-673v131zM540 1022q400 0 400 -477v-80h-670q0 -350 285 -350q139 0 319 71l41 -106q-176 -92 -372 -92q-245 0 -345 136t-100 348q0 417 172.5 483.5t269.5 66.5zM540 899q-131 0 -195 -89.5t-73 -236.5h510q0 238 -85.5 282t-156.5 44z" />
    <glyph glyph-name="Ebreve" unicode="&#x114;" horiz-adv-x="1155" 
d="M580 1495q-144 0 -222.5 93t-109.5 136l96 68q55 -76 119.5 -123t124.5 -47q127 0 291 158l55 -51q-163 -234 -354 -234zM164 0v1401h854v-131h-680v-465h573v-127h-573v-545h713v-133h-887z" />
    <glyph glyph-name="ebreve" unicode="&#x115;" horiz-adv-x="1034" 
d="M532 1128q-171 0 -331 230l96 69q55 -78 118.5 -124t139.5 -46q114 0 276 156l56 -51q-163 -234 -355 -234zM540 1022q400 0 400 -477v-80h-670q0 -350 285 -350q139 0 319 71l41 -106q-176 -92 -372 -92q-245 0 -345 136t-100 348q0 417 172.5 483.5t269.5 66.5z
M540 899q-131 0 -195 -89.5t-73 -236.5h510q0 238 -85.5 282t-156.5 44z" />
    <glyph glyph-name="Edotaccent" unicode="&#x116;" horiz-adv-x="1155" 
d="M752 1665q0 -47 -35 -81t-82 -34t-80 34t-33 81t33 82t80 35t82 -35t35 -82zM164 0v1401h854v-131h-680v-465h573v-127h-573v-545h713v-133h-887z" />
    <glyph glyph-name="edotaccent" unicode="&#x117;" horiz-adv-x="1034" 
d="M655 1268q0 -47 -34.5 -81t-81.5 -34t-80 34t-33 81t33 81.5t80 34.5t81.5 -34.5t34.5 -81.5zM540 1022q400 0 400 -477v-80h-670q0 -350 285 -350q139 0 319 71l41 -106q-176 -92 -372 -92q-245 0 -345 136t-100 348q0 417 172.5 483.5t269.5 66.5zM540 899
q-131 0 -195 -89.5t-73 -236.5h510q0 238 -85.5 282t-156.5 44z" />
    <glyph glyph-name="Eogonek" unicode="&#x118;" horiz-adv-x="1155" 
d="M1010 0q-92 -119 -92 -229q0 -99 120 -99q37 0 148 23l12 -66q-104 -53 -210 -53q-208 0 -208 148q0 51 28 124.5t114 151.5h-758v1401h854v-131h-680v-465h573v-127h-573v-545h713v-133h-41z" />
    <glyph glyph-name="eogonek" unicode="&#x119;" horiz-adv-x="1034" 
d="M540 899q-131 0 -195 -89.5t-73 -236.5h510q0 238 -85.5 282t-156.5 44zM540 1022q400 0 400 -477v-80h-670q0 -350 285 -350q139 0 319 71l41 -106q-66 -37 -122 -53q-70 -111 -70 -180q0 -70 32.5 -92.5t82.5 -22.5t153 22l13 -65q-106 -54 -212 -54q-206 0 -206 148
q0 115 82 215q-78 -10 -125 -10q-245 0 -345 136t-100 348q0 417 172.5 483.5t269.5 66.5z" />
    <glyph glyph-name="Ecaron" unicode="&#x11a;" horiz-adv-x="1155" 
d="M940 1767l-311 -276h-111l-309 281l47 55l317 -187l318 187zM164 0v1401h854v-131h-680v-465h573v-127h-573v-545h713v-133h-887z" />
    <glyph glyph-name="ecaron" unicode="&#x11b;" horiz-adv-x="1034" 
d="M897 1405l-311 -289h-111l-309 293l47 57l317 -198l318 196zM540 1022q400 0 400 -477v-80h-670q0 -350 285 -350q139 0 319 71l41 -106q-176 -92 -372 -92q-245 0 -345 136t-100 348q0 417 172.5 483.5t269.5 66.5zM540 899q-131 0 -195 -89.5t-73 -236.5h510
q0 238 -85.5 282t-156.5 44z" />
    <glyph glyph-name="Gcircumflex" unicode="&#x11c;" horiz-adv-x="1288" 
d="M1044 1495l-317 182l-315 -184l-47 57l307 283h112l312 -279zM340 83.5q-217 99.5 -217 583.5q0 312 114 486.5t257 223t265 48.5q211 0 367 -57l-34 -129q-143 47 -288 47q-264 0 -382.5 -157.5t-118.5 -430.5t97 -422t337 -149q155 0 248 31v563h162v-672
q-193 -65 -392 -65q-198 0 -415 99.5z" />
    <glyph glyph-name="gcircumflex" unicode="&#x11d;" horiz-adv-x="1124" 
d="M852 1090l-317 190l-316 -193l-47 58l307 293h113l311 -289zM782 663q0 105 -58.5 170.5t-180.5 65.5q-123 0 -183.5 -59.5t-60.5 -164.5t59.5 -165.5t159.5 -60.5q184 0 224 83t40 131zM533 -319q153 0 230 54t77 138t-49 136t-189 52h-227q-43 -13 -82 -69.5
t-39 -104.5q0 -100 63 -153t216 -53zM100 229q0 80 43.5 117.5t112.5 54.5l4 7q-51 29 -91 88.5t-40 161.5q0 186 119 276t259 90t212 -25h323v-106h-155l-4 -10q69 -73 69 -221q0 -149 -115.5 -240.5t-304.5 -91.5h-110q-74 0 -118 -14.5t-44 -61.5q0 -68 105 -68h262
q184 0 282.5 -77.5t98.5 -225.5t-130.5 -236.5t-359.5 -88.5q-428 0 -428 292q0 86 44 147.5t89 86.5q-123 25 -123 145z" />
    <glyph glyph-name="Gbreve" unicode="&#x11e;" horiz-adv-x="1288" 
d="M711 1495q-144 0 -222.5 93t-109.5 136l96 68q55 -76 119.5 -123t124.5 -47q127 0 291 158l55 -51q-163 -234 -354 -234zM340 83.5q-217 99.5 -217 583.5q0 312 114 486.5t257 223t265 48.5q211 0 367 -57l-34 -129q-143 47 -288 47q-264 0 -382.5 -157.5t-118.5 -430.5
t97 -422t337 -149q155 0 248 31v563h162v-672q-193 -65 -392 -65q-198 0 -415 99.5z" />
    <glyph glyph-name="gbreve" unicode="&#x11f;" horiz-adv-x="1124" 
d="M543 1128q-139 0 -220 93.5t-112 136.5l96 69q55 -78 118.5 -124t139.5 -46q112 0 277 156l55 -51q-163 -234 -354 -234zM782 663q0 105 -58.5 170.5t-180.5 65.5q-123 0 -183.5 -59.5t-60.5 -164.5t59.5 -165.5t159.5 -60.5q184 0 224 83t40 131zM533 -319q153 0 230 54
t77 138t-49 136t-189 52h-227q-43 -13 -82 -69.5t-39 -104.5q0 -100 63 -153t216 -53zM100 229q0 80 43.5 117.5t112.5 54.5l4 7q-51 29 -91 88.5t-40 161.5q0 186 119 276t259 90t212 -25h323v-106h-155l-4 -10q69 -73 69 -221q0 -149 -115.5 -240.5t-304.5 -91.5h-110
q-74 0 -118 -14.5t-44 -61.5q0 -68 105 -68h262q184 0 282.5 -77.5t98.5 -225.5t-130.5 -236.5t-359.5 -88.5q-428 0 -428 292q0 86 44 147.5t89 86.5q-123 25 -123 145z" />
    <glyph glyph-name="Gdotaccent" unicode="&#x120;" horiz-adv-x="1288" 
d="M870 1663q0 -47 -34.5 -81t-81.5 -34t-80 34t-33 81t33 82t80 35t81.5 -35t34.5 -82zM340 83.5q-217 99.5 -217 583.5q0 312 114 486.5t257 223t265 48.5q211 0 367 -57l-34 -129q-143 47 -288 47q-264 0 -382.5 -157.5t-118.5 -430.5t97 -422t337 -149q155 0 248 31v563
h162v-672q-193 -65 -392 -65q-198 0 -415 99.5z" />
    <glyph glyph-name="gdotaccent" unicode="&#x121;" horiz-adv-x="1124" 
d="M649 1268q0 -47 -34.5 -81t-82 -34t-80 34t-32.5 81t32.5 81.5t80 34.5t82 -34.5t34.5 -81.5zM782 663q0 105 -58.5 170.5t-180.5 65.5q-123 0 -183.5 -59.5t-60.5 -164.5t59.5 -165.5t159.5 -60.5q184 0 224 83t40 131zM533 -319q153 0 230 54t77 138t-49 136t-189 52
h-227q-43 -13 -82 -69.5t-39 -104.5q0 -100 63 -153t216 -53zM100 229q0 80 43.5 117.5t112.5 54.5l4 7q-51 29 -91 88.5t-40 161.5q0 186 119 276t259 90t212 -25h323v-106h-155l-4 -10q69 -73 69 -221q0 -149 -115.5 -240.5t-304.5 -91.5h-110q-74 0 -118 -14.5t-44 -61.5
q0 -68 105 -68h262q184 0 282.5 -77.5t98.5 -225.5t-130.5 -236.5t-359.5 -88.5q-428 0 -428 292q0 86 44 147.5t89 86.5q-123 25 -123 145z" />
    <glyph glyph-name="Gcommaaccent" unicode="&#x122;" horiz-adv-x="1288" 
d="M604 -184q0 41 31 71.5t80 30.5t80.5 -35t28.5 -101t-47 -130t-122 -105l-41 52q61 55 62 120q-72 21 -72 97zM340 83.5q-217 99.5 -217 583.5q0 312 114 486.5t257 223t265 48.5q211 0 367 -57l-34 -129q-143 47 -288 47q-264 0 -382.5 -157.5t-118.5 -430.5t97 -422
t337 -149q155 0 248 31v563h162v-672q-193 -65 -392 -65q-198 0 -415 99.5z" />
    <glyph glyph-name="gcommaaccent" unicode="&#x123;" horiz-adv-x="1124" 
d="M647 1221q0 -41 -32.5 -72t-81.5 -31t-81 34t-32 87v4q8 157 174 242l41 -51q-62 -58 -62 -115q74 -21 74 -98zM782 663q0 105 -58.5 170.5t-180.5 65.5q-123 0 -183.5 -59.5t-60.5 -164.5t59.5 -165.5t159.5 -60.5q184 0 224 83t40 131zM533 -319q153 0 230 54t77 138
t-49 136t-189 52h-227q-43 -13 -82 -69.5t-39 -104.5q0 -100 63 -153t216 -53zM100 229q0 80 43.5 117.5t112.5 54.5l4 7q-51 29 -91 88.5t-40 161.5q0 186 119 276t259 90t212 -25h323v-106h-155l-4 -10q69 -73 69 -221q0 -149 -115.5 -240.5t-304.5 -91.5h-110
q-74 0 -118 -14.5t-44 -61.5q0 -68 105 -68h262q184 0 282.5 -77.5t98.5 -225.5t-130.5 -236.5t-359.5 -88.5q-428 0 -428 292q0 86 44 147.5t89 86.5q-123 25 -123 145z" />
    <glyph glyph-name="Hcircumflex" unicode="&#x124;" horiz-adv-x="1337" 
d="M967 1495l-318 182l-315 -184l-47 57l307 283h113l311 -279zM995 811v590h179v-1401h-179v670h-655l2 -670h-178v1401h178l-2 -590h655z" />
    <glyph glyph-name="hcircumflex" unicode="&#x125;" horiz-adv-x="1052" 
d="M522 1522l-317 182l-316 -184l-47 57l308 283h112l311 -279zM630 1022q117 0 174.5 -29.5t86.5 -76t35 -103.5t6 -113v-700h-166v659q0 119 -22.5 157t-57.5 53.5t-94 15.5q-131 0 -305 -99v-786h-168v1456h166v-323l-6 -213l16 -9q218 111 335 111z" />
    <glyph glyph-name="Hbar" unicode="&#x126;" horiz-adv-x="1337" 
d="M995 811v227h-653v-227h653zM995 0v670h-653v-670h-178v1038h-135v97h135v266h178v-266h653v266h179v-266h131v-97h-131v-1038h-179z" />
    <glyph glyph-name="hbar" unicode="&#x127;" horiz-adv-x="1091" 
d="M971 639v-639h-166v598q0 118 -22.5 156.5t-57.5 53.5t-94 15q-133 0 -305 -98v-725h-168v1081h-148v97h148v278h166v-278h372v-97h-372v-237q216 117 360 117q180 0 233.5 -86.5t53.5 -235.5z" />
    <glyph glyph-name="Itilde" unicode="&#x128;" horiz-adv-x="540" 
d="M254 1584q-99 40 -131 40l-117 -80l-57 45q25 70 72 112t95 42q63 0 167 -40t139 -40l117 82l57 -45q-23 -70 -70 -113t-110 -43t-162 40zM184 0v1403h172v-1403h-172z" />
    <glyph glyph-name="itilde" unicode="&#x129;" horiz-adv-x="520" 
d="M244.5 1220q-95.5 40 -129.5 40l-117 -80l-57 45q25 70 72 111.5t95 41.5q69 0 168 -40t138 -40l116 82l58 -45q-23 -70 -70 -112.5t-112 -42.5q-66 0 -161.5 40zM174 0v999h166v-999h-166z" />
    <glyph glyph-name="Imacron" unicode="&#x12a;" horiz-adv-x="540" 
d="M-63 1661h667v-131h-667v131zM184 0v1403h172v-1403h-172z" />
    <glyph glyph-name="imacron" unicode="&#x12b;" horiz-adv-x="520" 
d="M-80 1343h674v-131h-674v131zM174 0v999h166v-999h-166z" />
    <glyph glyph-name="Ibreve" unicode="&#x12c;" horiz-adv-x="540" 
d="M184 0v1403h172v-1403h-172zM258 1501q-141 0 -221 93.5t-111 136.5l97 67q55 -76 119.5 -123t123.5 -47q127 0 291 158l55 -51q-163 -234 -354 -234z" />
    <glyph glyph-name="ibreve" unicode="&#x12d;" horiz-adv-x="563" 
d="M270 1128q-171 0 -331 230l96 69q55 -78 118.5 -124t139.5 -46q114 0 276 156l56 -51q-163 -234 -355 -234zM174 0v999h166v-999h-166z" />
    <glyph glyph-name="Iogonek" unicode="&#x12e;" horiz-adv-x="540" 
d="M301 0q-90 -116 -90 -228q0 -98 121 -98q40 0 147 23l13 -66q-104 -53 -211 -53q-207 0 -207 146t139 276h-29v1403h172v-1403h-55z" />
    <glyph glyph-name="iogonek" unicode="&#x12f;" horiz-adv-x="520" 
d="M371 1264q0 -45 -33 -78t-78 -33t-77.5 33t-32.5 78t32.5 76.5t77.5 31.5t78 -31.5t33 -76.5zM197 -211q0 -104 113 -104q48 0 155 22l12 -65q-106 -54 -211 -54q-207 0 -207 148q0 49 26 119.5t103 144.5h-14v999h166v-999h-59q-84 -114 -84 -211z" />
    <glyph glyph-name="Idotaccent" unicode="&#x130;" horiz-adv-x="540" 
d="M383 1661q0 -47 -35 -81t-82 -34t-79.5 34t-32.5 81t32.5 82t79.5 35t82 -35t35 -82zM184 0v1403h172v-1403h-172z" />
    <glyph glyph-name="dotlessi" unicode="&#x131;" horiz-adv-x="520" 
d="M174 0v999h166v-999h-166z" />
    <glyph glyph-name="IJ" unicode="&#x132;" horiz-adv-x="1132" 
d="M754 1403h174l-2 -1135q0 -371 -178.5 -483.5t-294.5 -153.5l-50 125q199 112 274 217t75 285zM184 0v1403h172v-1403h-172z" />
    <glyph glyph-name="ij" unicode="&#x133;" horiz-adv-x="970" 
d="M618 1263q0 46 32 77.5t77 31.5t78 -31.5t33 -77.5t-33 -78t-78 -32t-77 32t-32 78zM641 27v972h166v-225l-2 -766q-8 -188 -85.5 -284.5t-270.5 -167.5l-50 112q149 86 195.5 155.5t46.5 203.5zM371 1264q0 -45 -33 -78t-78 -33t-77.5 33t-32.5 78t32.5 76.5t77.5 31.5
t78 -31.5t33 -76.5zM174 0v999h166v-999h-166z" />
    <glyph glyph-name="Jcircumflex" unicode="&#x134;" horiz-adv-x="659" 
d="M657 1495l-317 182l-315 -184l-48 57l308 283h112l312 -279zM254 1405h174l-2 -1135q0 -371 -178 -483.5t-295 -153.5l-49 125q197 111 272.5 216.5t75.5 285.5z" />
    <glyph glyph-name="jcircumflex" unicode="&#x135;" horiz-adv-x="608" 
d="M618 1090l-317 190l-315 -193l-47 58l307 293h112l312 -289zM215 27v972h166v-531q0 -530 -21.5 -609.5t-82.5 -155.5t-254 -147l-50 112q149 86 195.5 155.5t46.5 203.5z" />
    <glyph glyph-name="Kcommaaccent" unicode="&#x136;" horiz-adv-x="1187" 
d="M496 -184q0 41 30.5 71.5t79.5 30.5t81 -35t29 -101t-47 -130t-122 -105l-41 52q61 55 61 120q-71 21 -71 97zM336 0h-172v1403h172v-637l612 637h197l-543 -559l563 -844h-194l-482 727l-153 -158v-569z" />
    <glyph glyph-name="kcommaaccent" unicode="&#x137;" horiz-adv-x="927" 
d="M358 -184q0 41 31 71.5t80 30.5t81 -35t29 -101t-47.5 -130t-121.5 -105l-41 52q61 55 61 120q-72 21 -72 97zM287 0h-168v1454h168v-635l-8 -227l14 -6l405 413h189l-387 -393q16 -23 33.5 -42t33.5 -42l351 -522h-185q-86 127 -168 253t-166 253l-112 -113v-393z" />
    <glyph glyph-name="kgreenlandic" unicode="&#x138;" horiz-adv-x="927" 
d="M287 0h-168v997h168v-178l-8 -227l14 -6l405 413h189l-387 -393q16 -23 33.5 -42t33.5 -42l351 -522h-185q-86 127 -168 253t-166 253l-112 -113v-393z" />
    <glyph glyph-name="Lacute" unicode="&#x139;" horiz-adv-x="1099" 
d="M270 1493l-77 63l251 330l123 -108zM164 0v1401h174v-1272h741v-129h-915z" />
    <glyph glyph-name="lacute" unicode="&#x13a;" horiz-adv-x="466" 
d="M223 1513l-78 64l252 330l123 -109zM150 0v1456h165l-2 -1456h-163z" />
    <glyph glyph-name="Lcommaaccent" unicode="&#x13b;" horiz-adv-x="1099" 
d="M479 -184q0 41 31 71.5t80 30.5t80.5 -35t28.5 -101t-47 -130t-122 -105l-41 52q61 55 62 120q-72 21 -72 97zM164 0v1401h174v-1272h741v-129h-915z" />
    <glyph glyph-name="lcommaaccent" unicode="&#x13c;" horiz-adv-x="466" 
d="M121 -184q0 41 30.5 71.5t79.5 30.5t81 -35t29 -101t-47 -130t-122 -105l-41 52q61 55 62 120q-72 21 -72 97zM150 0v1456h165l-2 -1456h-163z" />
    <glyph glyph-name="Lcaron" unicode="&#x13d;" horiz-adv-x="1099" 
d="M713 1278q0 41 30.5 71.5t79.5 30.5t81 -34.5t29 -100.5t-47 -130t-122 -105l-41 51q61 55 61 121q-71 20 -71 96zM164 0v1401h174v-1272h741v-129h-915z" />
    <glyph glyph-name="lcaron" unicode="&#x13e;" horiz-adv-x="798" 
d="M272 0v1456h166l-2 -1456h-164zM559 1358q0 41 31 71.5t80 30.5t80.5 -34.5t28.5 -100.5t-47 -130.5t-122 -104.5l-41 51q61 55 62 121q-72 20 -72 96z" />
    <glyph glyph-name="Ldot" unicode="&#x13f;" horiz-adv-x="1099" 
d="M936 788.5q0 -47.5 -35 -81t-82 -33.5t-79.5 33.5t-32.5 81t32.5 82t79.5 34.5t82 -34.5t35 -82zM164 0v1401h174v-1272h741v-129h-915z" />
    <glyph glyph-name="ldot" unicode="&#x140;" horiz-adv-x="765" 
d="M272 0v1456h166l-2 -1456h-164zM778 717q0 -47 -34.5 -81t-82 -34t-80 34t-32.5 81t32.5 82t80 35t82 -35t34.5 -82z" />
    <glyph glyph-name="Lslash" unicode="&#x141;" horiz-adv-x="1099" 
d="M164 0v487l-146 -84l-57 91l203 114v793h174v-692l256 147l55 -86l-311 -180v-461h741v-129h-915z" />
    <glyph glyph-name="lslash" unicode="&#x142;" horiz-adv-x="561" 
d="M358 0h-163v602l-183 -106l-53 88l236 135v737h165l-2 -641l191 109q48 -79 53 -86q-185 -110 -244 -142v-696z" />
    <glyph glyph-name="Nacute" unicode="&#x143;" horiz-adv-x="1396" 
d="M692 1464l-78 64l252 330l123 -109zM330 0h-166v1401h174q131 -201 257 -397.5t255 -397.5l205 -321h10v1116h168v-1401h-170l-541 846l-184 295l-8 -2v-1139z" />
    <glyph glyph-name="nacute" unicode="&#x144;" horiz-adv-x="1052" 
d="M451 1096l-74 63l252 332l119 -111zM291 909q179 113 363 113q166 0 222 -87t56 -235v-700h-166v659q0 119 -22.5 157t-57.5 53.5t-94 15.5q-131 0 -305 -99v-786h-168v999h164l2 -86z" />
    <glyph glyph-name="Ncommaaccent" unicode="&#x145;" horiz-adv-x="1396" 
d="M569 -184q0 41 31 71.5t80 30.5t81 -35t29 -101t-47.5 -130t-121.5 -105l-41 52q61 55 61 120q-72 21 -72 97zM330 0h-166v1401h174q131 -201 257 -397.5t255 -397.5l205 -321h10v1116h168v-1401h-170l-541 846l-184 295l-8 -2v-1139z" />
    <glyph glyph-name="ncommaaccent" unicode="&#x146;" horiz-adv-x="1052" 
d="M430 -184q0 41 31 71.5t80 30.5t80.5 -35t28.5 -101t-47 -130t-122 -105l-41 52q61 55 62 120q-72 21 -72 97zM291 909q179 113 363 113q166 0 222 -87t56 -235v-700h-166v659q0 119 -22.5 157t-57.5 53.5t-94 15.5q-131 0 -305 -99v-786h-168v999h164l2 -86z" />
    <glyph glyph-name="Ncaron" unicode="&#x147;" horiz-adv-x="1396" 
d="M1098 1767l-312 -276h-110l-309 281l47 55l317 -187l318 187zM330 0h-166v1401h174q131 -201 257 -397.5t255 -397.5l205 -321h10v1116h168v-1401h-170l-541 846l-184 295l-8 -2v-1139z" />
    <glyph glyph-name="ncaron" unicode="&#x148;" horiz-adv-x="1052" 
d="M877 1405l-312 -289h-110l-310 293l48 57l317 -198l317 196zM291 909q179 113 363 113q166 0 222 -87t56 -235v-700h-166v659q0 119 -22.5 157t-57.5 53.5t-94 15.5q-131 0 -305 -99v-786h-168v999h164l2 -86z" />
    <glyph glyph-name="napostrophe" unicode="&#x149;" horiz-adv-x="1218" 
d="M2 1251q0 41 30 72t80 31t81.5 -35t28.5 -101t-47 -130t-122 -105l-41 51q61 55 62 121q-72 20 -72 96zM457 909q179 113 363 113q167 0 222.5 -88t55.5 -234v-700h-166v659q0 119 -22.5 157t-57.5 53.5t-94 15.5q-131 0 -305 -99v-786h-168v999h164l2 -86z" />
    <glyph glyph-name="Eng" unicode="&#x14a;" horiz-adv-x="1396" 
d="M330 0h-166v1401h174q131 -201 257 -397.5t255 -397.5l205 -321h10v1116h168l-2 -1493q0 -145 -88 -219t-236 -74q-94 0 -188 23l20 122q92 -10 158 -10t122 36t56 120v74q-121 188 -234.5 367t-184 288.5t-134.5 210.5l-184 295l-8 -2v-1139z" />
    <glyph glyph-name="eng" unicode="&#x14b;" horiz-adv-x="1052" 
d="M291 911q180 111 359 111q167 0 223.5 -89.5t56.5 -232.5v-336q0 -335 -2 -384q-4 -150 -89 -224.5t-239 -74.5q-98 0 -188 20l18 117q96 -11 133 -11q92 0 146.5 37t54.5 138v677q0 120 -34.5 173t-154.5 53t-288 -99v-786h-168v999h166v-84z" />
    <glyph glyph-name="Omacron" unicode="&#x14c;" horiz-adv-x="1429" 
d="M381 1661h668v-131h-668v131zM1124 690q0 602 -410.5 602t-410.5 -604q0 -281 98.5 -426t309.5 -145t312 159.5t101 413.5zM123 690q0 510 218 621.5t385 111.5q313 0 447 -203t134 -521q0 -319 -151.5 -517t-430.5 -198q-602 0 -602 706z" />
    <glyph glyph-name="omacron" unicode="&#x14d;" horiz-adv-x="1081" 
d="M209 1343h674v-131h-674v131zM549 113q260 0 260 389t-260 389q-152 0 -214.5 -115t-62.5 -286t57.5 -274t219.5 -103zM878 130.5q-105 -146.5 -342 -146.5t-337.5 141.5t-100.5 365.5q0 223 110.5 376t341.5 153t332 -148t101 -371q0 -224 -105 -370.5z" />
    <glyph glyph-name="Obreve" unicode="&#x14e;" horiz-adv-x="1429" 
d="M713 1495q-144 0 -222.5 93t-109.5 136l96 68q55 -76 120 -123t124 -47q127 0 291 158l55 -51q-163 -234 -354 -234zM1124 690q0 602 -410.5 602t-410.5 -604q0 -281 98.5 -426t309.5 -145t312 159.5t101 413.5zM123 690q0 510 218 621.5t385 111.5q313 0 447 -203
t134 -521q0 -319 -151.5 -517t-430.5 -198q-602 0 -602 706z" />
    <glyph glyph-name="obreve" unicode="&#x14f;" horiz-adv-x="1081" 
d="M543 1128q-139 0 -220 93.5t-112 136.5l96 69q55 -78 118.5 -124t139.5 -46q112 0 277 156l55 -51q-163 -234 -354 -234zM549 113q260 0 260 389t-260 389q-152 0 -214.5 -115t-62.5 -286t57.5 -274t219.5 -103zM878 130.5q-105 -146.5 -342 -146.5t-337.5 141.5
t-100.5 365.5q0 223 110.5 376t341.5 153t332 -148t101 -371q0 -224 -105 -370.5z" />
    <glyph glyph-name="Ohungarumlaut" unicode="&#x150;" horiz-adv-x="1429" 
d="M598 1497l-84 59l240 340l131 -100zM850 1497l-82 59l240 340l131 -100zM1124 690q0 602 -410.5 602t-410.5 -604q0 -281 98.5 -426t309.5 -145t312 159.5t101 413.5zM123 690q0 510 218 621.5t385 111.5q313 0 447 -203t134 -521q0 -319 -151.5 -517t-430.5 -198
q-602 0 -602 706z" />
    <glyph glyph-name="ohungarumlaut" unicode="&#x151;" horiz-adv-x="1081" 
d="M639 1094l-74 57l240 342l123 -100zM379 1094l-74 57l240 342l123 -100zM549 113q260 0 260 389t-260 389q-152 0 -214.5 -115t-62.5 -286t57.5 -274t219.5 -103zM878 130.5q-105 -146.5 -342 -146.5t-337.5 141.5t-100.5 365.5q0 223 110.5 376t341.5 153t332 -148
t101 -371q0 -224 -105 -370.5z" />
    <glyph glyph-name="OE" unicode="&#x152;" horiz-adv-x="1658" 
d="M698 1290q-419 0 -419 -611q0 -274 98 -419t323 -145h18q19 0 32 2v1171zM98 690q0 320 143.5 526.5t458.5 206.5q104 0 189 -24h676v-127h-639v-473h534v-125h-534v-547h671v-127h-751q-82 -14 -146 -14q-602 0 -602 704z" />
    <glyph glyph-name="oe" unicode="&#x153;" horiz-adv-x="1703" 
d="M1475 569q0 238 -86 282t-156 44q-132 0 -193.5 -90.5t-70.5 -235.5h506zM528 113q263 0 263 389t-263 389q-150 0 -212 -112t-62 -287q0 -176 58 -277.5t216 -101.5zM181.5 125.5q-101.5 141.5 -101.5 364.5q0 224 110.5 377t344.5 153t344 -201q114 203 361 203
t316 -144.5t72.5 -222t3.5 -108.5v-78h-665q0 -249 99 -300.5t183 -51.5q146 0 316 71l41 -106q-176 -92 -369 -92q-265 0 -363 184q-111 -190 -351 -190t-341.5 141.5z" />
    <glyph glyph-name="Racute" unicode="&#x154;" horiz-adv-x="1202" 
d="M543 1493l-78 63l252 330l123 -108zM618 743q176 0 221.5 91.5t45.5 167.5q0 142 -75 204t-196 62h-278v-525h282zM1063 1016q0 -125 -62.5 -226.5t-185.5 -136.5q82 -25 119 -93t61 -154l115 -406h-174l-111 385q-56 190 -136.5 207.5t-131.5 17.5h-221v-610h-172v1403
h481q207 0 312.5 -106.5t105.5 -280.5z" />
    <glyph glyph-name="racute" unicode="&#x155;" horiz-adv-x="718" 
d="M291 1096l-74 63l252 332l119 -111zM662 1024q51 0 51 -51q0 -45 -22.5 -91t-35.5 -61q-86 -10 -173 -21.5t-173 -21.5v-778h-168v999h164l-6 -133l12 -8q116 104 214 135t137 31z" />
    <glyph glyph-name="Rcommaaccent" unicode="&#x156;" horiz-adv-x="1202" 
d="M494 -184q0 41 30.5 71.5t79.5 30.5t81 -35t29 -101t-47 -130t-122 -105l-41 52q61 55 61 120q-71 21 -71 97zM618 743q176 0 221.5 91.5t45.5 167.5q0 142 -75 204t-196 62h-278v-525h282zM1063 1016q0 -125 -62.5 -226.5t-185.5 -136.5q82 -25 119 -93t61 -154
l115 -406h-174l-111 385q-56 190 -136.5 207.5t-131.5 17.5h-221v-610h-172v1403h481q207 0 312.5 -106.5t105.5 -280.5z" />
    <glyph glyph-name="rcommaaccent" unicode="&#x157;" horiz-adv-x="718" 
d="M119 -184q0 41 30.5 71.5t79.5 30.5t81 -35t29 -101t-47 -130t-122 -105l-41 52q61 55 61 120q-71 21 -71 97zM662 1024q51 0 51 -51q0 -45 -22.5 -91t-35.5 -61q-86 -10 -173 -21.5t-173 -21.5v-778h-168v999h164l-6 -133l12 -8q116 104 214 135t137 31z" />
    <glyph glyph-name="Rcaron" unicode="&#x158;" horiz-adv-x="1202" 
d="M913 1767l-311 -276h-110l-310 281l47 55l318 -187l317 187zM618 743q176 0 221.5 91.5t45.5 167.5q0 142 -75 204t-196 62h-278v-525h282zM1063 1016q0 -125 -62.5 -226.5t-185.5 -136.5q82 -25 119 -93t61 -154l115 -406h-174l-111 385q-56 190 -136.5 207.5
t-131.5 17.5h-221v-610h-172v1403h481q207 0 312.5 -106.5t105.5 -280.5z" />
    <glyph glyph-name="rcaron" unicode="&#x159;" horiz-adv-x="718" 
d="M700 1405l-311 -289h-110l-310 293l47 57l318 -198l317 196zM662 1024q51 0 51 -51q0 -45 -22.5 -91t-35.5 -61q-86 -10 -173 -21.5t-173 -21.5v-778h-168v999h164l-6 -133l12 -8q116 104 214 135t137 31z" />
    <glyph glyph-name="Sacute" unicode="&#x15a;" horiz-adv-x="1173" 
d="M559 1489l-78 63l252 330l123 -108zM541 123q176 0 265 56.5t89 205.5q0 116 -76 168t-197 84q-120 31 -204 57.5t-186.5 91.5t-102.5 246q0 180 128.5 286.5t351.5 106.5t370 -88l-55 -123q-160 72 -338 72q-123 0 -201 -62.5t-78 -179.5t86.5 -165.5t194.5 -73.5
q109 -26 296 -82.5t187 -337.5q0 -202 -139.5 -301.5t-388.5 -99.5t-441 108l60 127q203 -96 379 -96z" />
    <glyph glyph-name="sacute" unicode="&#x15b;" horiz-adv-x="913" 
d="M422 1096l-74 63l252 332l119 -111zM670 272q0 99 -86 130.5t-140 50.5t-190.5 68.5t-136.5 217.5q0 139 101 210t238 71q208 0 322 -72l-51 -117q-136 54 -262 54t-158.5 -53.5t-32.5 -90.5q0 -61 55.5 -91t137.5 -57q83 -27 145 -49t140.5 -75.5t78.5 -196.5
q0 -142 -105.5 -213t-307.5 -71t-338 78l53 114q150 -67 309 -67q228 0 228 159z" />
    <glyph glyph-name="Scircumflex" unicode="&#x15c;" horiz-adv-x="1173" 
d="M915 1495l-317 182l-315 -184l-47 57l307 283h112l312 -279zM541 123q176 0 265 56.5t89 205.5q0 116 -76 168t-197 84q-120 31 -204 57.5t-186.5 91.5t-102.5 246q0 180 128.5 286.5t351.5 106.5t370 -88l-55 -123q-160 72 -338 72q-123 0 -201 -62.5t-78 -179.5
t86.5 -165.5t194.5 -73.5q109 -26 296 -82.5t187 -337.5q0 -202 -139.5 -301.5t-388.5 -99.5t-441 108l60 127q203 -96 379 -96z" />
    <glyph glyph-name="scircumflex" unicode="&#x15d;" horiz-adv-x="913" 
d="M786 1090l-317 190l-315 -193l-48 58l308 293h112l312 -289zM670 272q0 99 -86 130.5t-140 50.5t-190.5 68.5t-136.5 217.5q0 139 101 210t238 71q208 0 322 -72l-51 -117q-136 54 -262 54t-158.5 -53.5t-32.5 -90.5q0 -61 55.5 -91t137.5 -57q83 -27 145 -49
t140.5 -75.5t78.5 -196.5q0 -142 -105.5 -213t-307.5 -71t-338 78l53 114q150 -67 309 -67q228 0 228 159z" />
    <glyph glyph-name="Scedilla" unicode="&#x15e;" horiz-adv-x="1173" 
d="M541 123q176 0 265 56.5t89 205.5q0 116 -76 168t-197 84q-120 31 -204 57.5t-186.5 91.5t-102.5 246q0 180 128.5 286.5t351.5 106.5t370 -88l-55 -123q-160 72 -338 72q-123 0 -201 -62.5t-78 -179.5t86.5 -165.5t194.5 -73.5q109 -26 296 -82.5t187 -337.5
q0 -188 -120.5 -287.5t-327.5 -111.5q-51 -65 -86 -115q100 -4 161.5 -44t61.5 -122t-89 -143.5t-278 -61.5v74q242 22 242 121q0 84 -207 84l-27 39q33 41 64 83t63 83q-255 10 -426 108l60 127q203 -96 379 -96z" />
    <glyph glyph-name="scedilla" unicode="&#x15f;" horiz-adv-x="913" 
d="M670 272q0 99 -86 130.5t-140 50.5t-190.5 68.5t-136.5 217.5q0 139 101 210t238 71q208 0 322 -72l-51 -117q-136 54 -262 54t-158.5 -53.5t-32.5 -90.5q0 -61 55.5 -91t137.5 -57q83 -27 145 -49t140.5 -75.5t78.5 -192.5t-93 -207.5t-240 -78.5l-90 -119
q100 -4 161.5 -44t61.5 -122t-89 -143.5t-278 -61.5v74q242 22 242 121q0 84 -207 84l-27 39q35 43 66 86t63 84q-202 10 -321 78l53 114q150 -67 309 -67q228 0 228 159z" />
    <glyph glyph-name="Scaron" unicode="&#x160;" horiz-adv-x="1173" 
d="M950 1767l-311 -276h-111l-309 281l47 55l318 -187l317 187zM541 123q176 0 265 56.5t89 205.5q0 116 -76 168t-197 84q-120 31 -204 57.5t-186.5 91.5t-102.5 246q0 180 128.5 286.5t351.5 106.5t370 -88l-55 -123q-160 72 -338 72q-123 0 -201 -62.5t-78 -179.5
t86.5 -165.5t194.5 -73.5q109 -26 296 -82.5t187 -337.5q0 -202 -139.5 -301.5t-388.5 -99.5t-441 108l60 127q203 -96 379 -96z" />
    <glyph glyph-name="scaron" unicode="&#x161;" horiz-adv-x="913" 
d="M817 1405l-311 -289h-111l-309 293l47 57l318 -198l317 196zM670 272q0 99 -86 130.5t-140 50.5t-190.5 68.5t-136.5 217.5q0 139 101 210t238 71q208 0 322 -72l-51 -117q-136 54 -262 54t-158.5 -53.5t-32.5 -90.5q0 -61 55.5 -91t137.5 -57q83 -27 145 -49
t140.5 -75.5t78.5 -196.5q0 -142 -105.5 -213t-307.5 -71t-338 78l53 114q150 -67 309 -67q228 0 228 159z" />
    <glyph glyph-name="Tcommaaccent" unicode="&#x162;" horiz-adv-x="1153" 
d="M465 -184q0 41 30.5 71.5t79.5 30.5t81 -35t29 -101t-47 -130t-122 -105l-41 52q61 55 62 120q-72 21 -72 97zM492 0v1266h-451v137h1071v-137h-448l-2 -1266h-170z" />
    <glyph glyph-name="tcommaaccent" unicode="&#x163;" horiz-adv-x="729" 
d="M274 -184q0 41 31 71.5t80 30.5t81 -35t29 -101t-47.5 -130t-121.5 -105l-41 52q61 55 61 120q-72 21 -72 97zM186 879h-145v88l154 47l51 221l106 18v-254h301v-120h-303v-592q0 -72 28 -118t104 -46t196 35l27 -113q-112 -55 -250 -55q-268 0 -269 246v643z" />
    <glyph glyph-name="Tcaron" unicode="&#x164;" horiz-adv-x="1153" 
d="M940 1767l-311 -276h-111l-309 281l47 55l317 -187l318 187zM492 0v1266h-451v137h1071v-137h-448l-2 -1266h-170z" />
    <glyph glyph-name="tcaron" unicode="&#x165;" horiz-adv-x="901" 
d="M186 879h-145v88l154 47l51 221l106 18v-254h301v-120h-303v-592q0 -72 28 -118t104 -46t196 35l27 -113q-112 -55 -250 -55q-268 0 -269 246v643zM643 1327q0 41 31 72t80 31t80.5 -35t28.5 -101t-47 -130t-122 -105l-41 51q61 55 62 121q-72 20 -72 96z" />
    <glyph glyph-name="Tbar" unicode="&#x166;" horiz-adv-x="1153" 
d="M492 0v696h-332v107h332v463h-451v137h1071v-137h-448l-2 -463h309v-107h-309v-696h-170z" />
    <glyph glyph-name="tbar" unicode="&#x167;" horiz-adv-x="755" 
d="M182 242v362h-141v105h141v170h-145v88l153 45l52 223l106 16v-252h301v-120h-301v-170h295v-105h-295v-332q2 -63 30 -106t104 -43t192 33l26 -113q-117 -53 -244 -53q-128 0 -201 56t-73 196z" />
    <glyph glyph-name="Utilde" unicode="&#x168;" horiz-adv-x="1361" 
d="M666.5 1596q-94.5 40 -131.5 40l-117 -80l-58 46q25 70 72.5 111.5t95.5 41.5q67 0 167.5 -40t138.5 -40l116 82l58 -45q-23 -70 -70.5 -113t-112.5 -43q-64 0 -158.5 40zM1217 504q0 -241 -134.5 -380.5t-409.5 -139.5q-274 0 -400 138t-126 382v899h172v-901
q0 -193 94.5 -289t268.5 -96t269.5 95t95.5 290l-3 901h173v-899z" />
    <glyph glyph-name="utilde" unicode="&#x169;" horiz-adv-x="1032" 
d="M499.5 1211q-95.5 40 -132.5 40l-117 -80l-57 46q25 70 72 111.5t95 41.5q67 0 167.5 -40t138.5 -40l116 82l58 -45q-23 -70 -70 -113t-111 -43t-159.5 40zM119 297v702h166v-661q0 -118 22.5 -155.5t56.5 -52.5t92 -15t139 30.5t153 96.5v757l163 2v-1001h-161l-2 113
l-5 4q-160 -140 -335 -140q-257 0 -273 132.5t-16 187.5z" />
    <glyph glyph-name="Umacron" unicode="&#x16a;" horiz-adv-x="1361" 
d="M344 1661h668v-131h-668v131zM1217 504q0 -241 -134.5 -380.5t-409.5 -139.5q-274 0 -400 138t-126 382v899h172v-901q0 -193 94.5 -289t268.5 -96t269.5 95t95.5 290l-3 901h173v-899z" />
    <glyph glyph-name="umacron" unicode="&#x16b;" horiz-adv-x="1032" 
d="M168 1343h674v-131h-674v131zM119 297v702h166v-661q0 -118 22.5 -155.5t56.5 -52.5t92 -15t139 30.5t153 96.5v757l163 2v-1001h-161l-2 113l-5 4q-160 -140 -335 -140q-257 0 -273 132.5t-16 187.5z" />
    <glyph glyph-name="Ubreve" unicode="&#x16c;" horiz-adv-x="1361" 
d="M709 1485q-140 0 -220.5 93t-111.5 136l96 70q55 -78 118.5 -124t123.5 -46t124 28t169 127l55 -51q-163 -233 -354 -233zM1217 504q0 -241 -134.5 -380.5t-409.5 -139.5q-274 0 -400 138t-126 382v899h172v-901q0 -193 94.5 -289t268.5 -96t269.5 95t95.5 290l-3 901
h173v-899z" />
    <glyph glyph-name="ubreve" unicode="&#x16d;" horiz-adv-x="1032" 
d="M494 1128q-139 0 -220 93.5t-112 136.5l96 69q55 -78 118.5 -124t139.5 -46q112 0 277 156l55 -51q-163 -234 -354 -234zM119 297v702h166v-661q0 -118 22.5 -155.5t56.5 -52.5t92 -15t139 30.5t153 96.5v757l163 2v-1001h-161l-2 113l-5 4q-160 -140 -335 -140
q-257 0 -273 132.5t-16 187.5z" />
    <glyph glyph-name="Uring" unicode="&#x16e;" horiz-adv-x="1361" 
d="M686 1802q-57 0 -93 -38t-36 -93t36 -92t93 -37t92 37t35 91t-35 93t-92 39zM529.5 1825.5q64.5 64.5 155.5 64.5t155.5 -62t64.5 -153q0 -92 -62.5 -153.5t-156.5 -61.5t-157.5 63.5t-63.5 150.5t64.5 151.5zM1217 504q0 -241 -134.5 -380.5t-409.5 -139.5
q-274 0 -400 138t-126 382v899h172v-901q0 -193 94.5 -289t268.5 -96t269.5 95t95.5 290l-3 901h173v-899z" />
    <glyph glyph-name="uring" unicode="&#x16f;" horiz-adv-x="1032" 
d="M516 1470q-57 0 -93 -37t-36 -93t36 -93t93 -37t92 37t35 91t-35 93t-92 39zM735 1342q0 -91 -62.5 -152.5t-156.5 -61.5t-157.5 64t-63.5 150t64 151.5t156 65.5t156 -63t64 -154zM119 297v702h166v-661q0 -118 22.5 -155.5t56.5 -52.5t92 -15t139 30.5t153 96.5v757
l163 2v-1001h-161l-2 113l-5 4q-160 -140 -335 -140q-257 0 -273 132.5t-16 187.5z" />
    <glyph glyph-name="Uhungarumlaut" unicode="&#x170;" horiz-adv-x="1361" 
d="M549 1497l-84 59l240 340l131 -100zM801 1497l-82 59l239 340l132 -100zM1217 504q0 -241 -134.5 -380.5t-409.5 -139.5q-274 0 -400 138t-126 382v899h172v-901q0 -193 94.5 -289t268.5 -96t269.5 95t95.5 290l-3 901h173v-899z" />
    <glyph glyph-name="uhungarumlaut" unicode="&#x171;" horiz-adv-x="1032" 
d="M614 1094l-73 57l239 342l123 -100zM354 1094l-73 57l239 342l123 -100zM119 297v702h166v-661q0 -118 22.5 -155.5t56.5 -52.5t92 -15t139 30.5t153 96.5v757l163 2v-1001h-161l-2 113l-5 4q-160 -140 -335 -140q-257 0 -273 132.5t-16 187.5z" />
    <glyph glyph-name="Uogonek" unicode="&#x172;" horiz-adv-x="1361" 
d="M643 -223q0 -105 113 -105q47 0 155 23l13 -66q-104 -53 -211 -53q-207 0 -207 148q0 140 125 262q-484 23 -484 518v899h172v-901q0 -193 94.5 -289t268.5 -96t269.5 95t95.5 290l-3 901h173v-899q0 -356 -183.5 -434t-308.5 -84q-82 -117 -82 -209z" />
    <glyph glyph-name="uogonek" unicode="&#x173;" horiz-adv-x="1032" 
d="M745 -205q0 -104 114 -104q48 0 155 22l12 -65q-106 -54 -211 -54q-207 0 -207 148q0 51 28 124t114 150l-2 97l-5 4q-160 -140 -335 -140q-257 0 -273 132.5t-16 187.5v702h166v-661q0 -118 22.5 -155.5t56.5 -52.5t92 -15t139 30.5t153 96.5v757l163 2v-1001h-86
q-80 -110 -80 -205z" />
    <glyph glyph-name="Wcircumflex" unicode="&#x174;" horiz-adv-x="1714" 
d="M1155 1495l-317 182l-316 -184l-47 57l307 283h113l311 -279zM1260 213q190 873 262 1188h172q-48 -208 -340 -1401h-205q-55 215 -111 416.5t-94 351.5t-57 225.5t-41 153.5l-15 2q-17 -83 -256 -1149h-210l-345 1401h181q231 -1026 268 -1190h10l74 334
q25 115 49.5 221t48 210.5l47 209t47.5 215.5h185l225 -846q13 -40 35 -126.5t36.5 -138.5t20.5 -77h13z" />
    <glyph glyph-name="wcircumflex" unicode="&#x175;" horiz-adv-x="1474" 
d="M1036 1090l-317 190l-316 -193l-47 58l308 293h112l311 -289zM1069 166l74 305l143 528h168l-297 -999h-182l-146 463l-100 354h-10l-92 -354l-133 -463h-183l-293 999h168l142 -516l78 -317h10l84 330l143 503h162l166 -526l86 -307h12z" />
    <glyph glyph-name="Ycircumflex" unicode="&#x176;" horiz-adv-x="1097" 
d="M860 1495l-317 182l-316 -184l-47 57l307 283h113l311 -279zM633 0h-182v606l-431 797h183l192 -369l144 -284h8l155 297l195 356h178l-442 -789v-614z" />
    <glyph glyph-name="ycircumflex" unicode="&#x177;" horiz-adv-x="942" 
d="M797 1090l-318 190l-315 -193l-47 58l307 293h113l311 -289zM208 -311q60 0 99 28.5t66 110.5l57 178h-80l-313 993h162l204 -686q20 -66 34 -123t22 -86h10l63 213q20 68 47 152t55 173t56.5 180t57.5 177h170q-192 -585 -269.5 -812.5t-119.5 -357.5t-109.5 -199.5
t-183.5 -69.5q-23 2 -73 5t-143 29l27 117q101 -22 161 -22z" />
    <glyph glyph-name="Ydieresis" unicode="&#x178;" horiz-adv-x="1097" 
d="M444 1579q0 -41 -26.5 -65.5t-67.5 -24.5t-67.5 24.5t-26.5 63.5t27.5 65.5t66.5 26.5t66.5 -24.5t27.5 -65.5zM827 1579q0 -41 -28.5 -65.5t-68.5 -24.5t-64.5 24.5t-24.5 63.5t25.5 65.5t64.5 26.5t67.5 -24.5t28.5 -65.5zM633 0h-182v606l-431 797h183l192 -369
l144 -284h8l155 297l195 356h178l-442 -789v-614z" />
    <glyph glyph-name="Zacute" unicode="&#x179;" horiz-adv-x="1089" 
d="M528 1493l-77 63l251 330l123 -108zM96 1403h914v-131l-752 -1131l789 -2v-139h-1002v131l750 1133h-699v139z" />
    <glyph glyph-name="zacute" unicode="&#x17a;" horiz-adv-x="841" 
d="M393 1096l-74 63l252 332l119 -111zM819 123v-123h-794v104l559 758l-6 15h-492v122h711v-108l-557 -756l6 -12h573z" />
    <glyph glyph-name="Zdotaccent" unicode="&#x17b;" horiz-adv-x="1089" 
d="M680 1661q0 -47 -35 -81t-82 -34t-79.5 34t-32.5 81t32.5 82t79.5 35t82 -35t35 -82zM96 1403h914v-131l-752 -1131l789 -2v-139h-1002v131l750 1133h-699v139z" />
    <glyph glyph-name="zdotaccent" unicode="&#x17c;" horiz-adv-x="841" 
d="M567 1268q0 -47 -34.5 -81t-82 -34t-80 34t-32.5 81t32.5 81.5t80 34.5t82 -34.5t34.5 -81.5zM819 123v-123h-794v104l559 758l-6 15h-492v122h711v-108l-557 -756l6 -12h573z" />
    <glyph glyph-name="Zcaron" unicode="&#x17d;" horiz-adv-x="1089" 
d="M946 1767l-311 -276h-111l-309 281l47 55l318 -187l317 187zM96 1403h914v-131l-752 -1131l789 -2v-139h-1002v131l750 1133h-699v139z" />
    <glyph glyph-name="zcaron" unicode="&#x17e;" horiz-adv-x="841" 
d="M823 1405l-311 -289h-111l-309 293l47 57l318 -198l317 196zM819 123v-123h-794v104l559 758l-6 15h-492v122h711v-108l-557 -756l6 -12h573z" />
    <glyph glyph-name="florin" unicode="&#x192;" horiz-adv-x="1142" 
d="M227 -119q97 0 144 63.5t71 205.5q16 79 37.5 269t32.5 277h-184v115h198q22 213 49 306t87 179t223 86q96 0 188 -30l-31 -113q-75 16 -131 16q-103 0 -146.5 -66t-59.5 -196l-23 -182h209v-115h-221q-15 -92 -39 -297.5t-35 -273.5q-30 -174 -108 -273.5t-230 -99.5
q-101 0 -184 37l37 111q65 -19 116 -19z" />
    <glyph glyph-name="Ohorn" unicode="&#x1a0;" horiz-adv-x="1437" 
d="M557 1292q-274 0 -274 -604q0 -281 98 -426t324 -145q196 0 297.5 159.5t101.5 413.5q0 410 -136.5 506t-410.5 96zM1286 696q0 -316 -150.5 -514t-430.5 -198q-603 0 -603 706q0 320 143.5 526.5t453.5 206.5t452 -209h23q80 0 109.5 47.5t29.5 127.5v149h125v-164
q0 -246 -221 -266q69 -172 69 -412z" />
    <glyph glyph-name="ohorn" unicode="&#x1a1;" horiz-adv-x="1122" 
d="M530 113q263 0 263 389t-263 389q-151 0 -212.5 -113t-61.5 -288q0 -174 58 -275.5t216 -101.5zM965 517q0 -241 -106 -387t-340 -146t-335.5 141.5t-101.5 364.5q0 224 110.5 377t340.5 153t341 -166q72 4 97.5 50t25.5 124v150h125v-166q0 -235 -194 -262
q37 -118 37 -233z" />
    <glyph glyph-name="Uhorn" unicode="&#x1af;" horiz-adv-x="1486" 
d="M1217 1200h47q80 0 115.5 31t35.5 110v199h133v-205q0 -254 -258 -254h-73v-577q0 -241 -134.5 -380.5t-409.5 -139.5q-274 0 -400 138t-126 382v899h172v-901q0 -193 94.5 -289t268.5 -96t269.5 95t95.5 290v901h170v-203z" />
    <glyph glyph-name="uhorn" unicode="&#x1b0;" horiz-adv-x="1181" 
d="M119 297v702h166v-661q0 -118 22.5 -155.5t56.5 -52.5t92 -15t139 30.5t153 96.5v757h163v-135h15q80 0 108.5 36t28.5 116v164h131v-166q0 -183 -92 -224.5t-170 -41.5h-21v-748h-163v113l-5 4q-160 -140 -335 -140q-257 0 -273 132.5t-16 187.5z" />
    <glyph glyph-name="AEacute" unicode="&#x1fc;" horiz-adv-x="1953" 
d="M1171 1493l-77 63l252 330l122 -108zM995 553v711h-10l-442 -711h452zM995 420h-530l-260 -420h-185l875 1401h911v-127h-637v-473h533v-125h-533v-547h670v-129h-844v420z" />
    <glyph glyph-name="aeacute" unicode="&#x1fd;" horiz-adv-x="1622" 
d="M844 1096l-74 63l252 332l119 -111zM1155 893q-130 0 -191.5 -90.5t-70.5 -233.5h502q0 237 -85 280.5t-155 43.5zM246 289q0 -183 186 -183q105 0 198 48.5t128 78.5q-33 93 -37 232h-264q-104 0 -157.5 -48t-53.5 -128zM889 465q0 -348 275 -348q148 0 323 69l39 -106
q-172 -92 -367 -92q-248 0 -354 153q-194 -147 -304 -152t-168 -5t-161.5 51.5t-103.5 244.5q0 119 94 202t268 85l293 2v84q0 129 -56.5 178.5t-196.5 49.5t-294 -56l-37 113q176 80 383 80q240 0 307 -160q107 164 328 164q395 0 395 -477v-80h-663z" />
    <glyph glyph-name="Oslashacute" unicode="&#x1fe;" horiz-adv-x="1388" 
d="M717 1493l-78 63l252 330l123 -108zM705 1292q-422 0 -422 -604q0 -242 69 -369l635 844q-103 129 -282 129zM393 244q102 -127 305 -127t304.5 159.5t101.5 413.5q0 255 -76 400zM1143 1233q143 -191 143 -522t-150.5 -529t-422.5 -198t-420 135l-98 -131h-99l144 188
q-138 176 -138 505t143.5 535.5t459.5 206.5q243 0 382 -133l103 137h102z" />
    <glyph glyph-name="oslashacute" unicode="&#x1ff;" horiz-adv-x="1046" 
d="M528 1096l-73 63l252 332l118 -111zM530 889q-149 0 -212.5 -114.5t-63.5 -270.5q0 -157 41 -248l418 549q-62 84 -183 84zM530 113q261 0 261 381q0 155 -46 249l-415 -553q68 -77 200 -77zM182 123q-100 131 -100 361t110.5 383t337.5 153q177 0 283 -98l74 96
q20 0 40.5 1t41.5 1l-111 -143q107 -138 107 -379q0 -350 -162 -431t-293 -81q-180 0 -281 88l-67 -86q-23 0 -44.5 -1t-43.5 -1z" />
    <glyph glyph-name="Scommaaccent" unicode="&#x218;" horiz-adv-x="1173" 
d="M430 -184q0 41 31 71.5t80 30.5t80.5 -35t28.5 -101t-47 -130t-122 -105l-41 52q61 55 62 120q-72 21 -72 97zM541 123q176 0 265 56.5t89 205.5q0 116 -76 168t-197 84q-120 31 -204 57.5t-186.5 91.5t-102.5 246q0 180 128.5 286.5t351.5 106.5t370 -88l-55 -123
q-160 72 -338 72q-123 0 -201 -62.5t-78 -179.5t86.5 -165.5t194.5 -73.5q109 -26 296 -82.5t187 -337.5q0 -202 -139.5 -301.5t-388.5 -99.5t-441 108l60 127q203 -96 379 -96z" />
    <glyph glyph-name="scommaaccent" unicode="&#x219;" horiz-adv-x="913" 
d="M326 -184q0 41 30.5 71.5t79.5 30.5t81 -35t29 -101t-47 -130t-122 -105l-41 52q61 55 61 120q-71 21 -71 97zM670 272q0 99 -86 130.5t-140 50.5t-190.5 68.5t-136.5 217.5q0 139 101 210t238 71q208 0 322 -72l-51 -117q-136 54 -262 54t-158.5 -53.5t-32.5 -90.5
q0 -61 55.5 -91t137.5 -57q83 -27 145 -49t140.5 -75.5t78.5 -196.5q0 -142 -105.5 -213t-307.5 -71t-338 78l53 114q150 -67 309 -67q228 0 228 159z" />
    <glyph glyph-name="schwa" unicode="&#x259;" horiz-adv-x="993" 
d="M487 1022q247 0 344 -135.5t97 -374.5q0 -330 -149 -427t-267 -97t-186 26.5t-151 107.5t-83 343v76h666q0 352 -283 352q-143 0 -315 -70l-41 105q173 94 368 94zM491 117q131 0 193.5 90.5t71.5 232.5h-504q0 -236 84.5 -279.5t154.5 -43.5z" />
    <glyph glyph-name="primemod" unicode="&#x2b9;" horiz-adv-x="479" 
d="M166 801l-78 45l291 567l131 -76z" />
    <glyph glyph-name="circumflex" unicode="&#x2c6;" horiz-adv-x="1030" 
d="M829 1090l-317 190l-315 -193l-47 58l307 293h112l312 -289z" />
    <glyph glyph-name="caron" unicode="&#x2c7;" horiz-adv-x="1030" 
d="M881 1405l-312 -289h-110l-309 293l47 57l317 -198l317 196z" />
    <glyph glyph-name="breve" unicode="&#x2d8;" horiz-adv-x="1073" 
d="M522 1128q-166 0 -332 230l97 69q55 -78 118.5 -124t139.5 -46q114 0 276 156l56 -51q-163 -234 -355 -234z" />
    <glyph glyph-name="dotaccent" unicode="&#x2d9;" horiz-adv-x="1032" 
d="M637 1268q0 -47 -35 -81t-82 -34t-79.5 34t-32.5 81t32.5 81.5t79.5 34.5t82 -34.5t35 -81.5z" />
    <glyph glyph-name="ring" unicode="&#x2da;" horiz-adv-x="1032" 
d="M516 1470q-57 0 -93 -37t-36 -93t36 -93t93 -37t92 37t35 91t-35 93t-92 39zM735 1342q0 -91 -62.5 -152.5t-156.5 -61.5t-157.5 64t-63.5 150t64 151.5t156 65.5t156 -63t64 -154z" />
    <glyph glyph-name="ogonek" unicode="&#x2db;" horiz-adv-x="1077" 
d="M812 -428q-107 0 -157.5 39t-50.5 108q0 187 225 340l33 -30q-53 -57 -87 -130t-34 -129q0 -102 121 -102q37 0 148 23l12 -66q-103 -53 -210 -53z" />
    <glyph glyph-name="tilde" unicode="&#x2dc;" horiz-adv-x="1030" 
d="M501.5 1211q-95.5 40 -132.5 40l-117 -80l-57 46q25 70 72 111.5t95 41.5q67 0 167.5 -40t138.5 -40l116 82l58 -45q-23 -70 -70 -113t-111 -43t-159.5 40z" />
    <glyph glyph-name="hungarumlaut" unicode="&#x2dd;" horiz-adv-x="1032" 
d="M606 1094l-74 57l240 342l123 -100zM346 1094l-74 57l240 342l123 -100z" />
    <glyph glyph-name="tonos" unicode="&#x384;" horiz-adv-x="1007" 
d="M485 1083l-84 64l228 350l131 -100z" />
    <glyph glyph-name="dieresistonos" unicode="&#x385;" horiz-adv-x="999" 
d="M471 1094l-92 34l147 392l146 -66zM354 1238q0 -40 -26.5 -64.5t-67.5 -24.5t-67.5 24.5t-26.5 63.5t27.5 65.5t66.5 26.5t66.5 -25.5t27.5 -65.5zM815 1238q0 -40 -29.5 -64.5t-68.5 -24.5t-63.5 24.5t-24.5 63.5t28.5 65.5t65.5 26.5t64.5 -25.5t27.5 -65.5z" />
    <glyph glyph-name="Alphatonos" unicode="&#x386;" horiz-adv-x="1185" 
d="M37 1069l-84 64l227 350l131 -101zM825 500q-47 156 -94 312.5t-96 309.5l-41 138h-6l-41 -140q-23 -76 -45.5 -148.5t-64 -210t-81.5 -261.5h469zM20 0l463 1403h222l458 -1403h-182q-52 165 -115 367h-553q-67 -212 -114 -367h-179z" />
    <glyph glyph-name="anoteleia" unicode="&#x387;" horiz-adv-x="419" 
d="M324 737q0 -47 -33 -78.5t-77 -31.5t-77 32.5t-33 78.5t32 77t78 31t78 -31t32 -78z" />
    <glyph glyph-name="Epsilontonos" unicode="&#x388;" horiz-adv-x="1155" 
d="M-221 1071l-84 64l227 350l131 -101zM164 0v1401h854v-131h-680v-465h573v-127h-573v-545h713v-133h-887z" />
    <glyph glyph-name="Etatonos" unicode="&#x389;" horiz-adv-x="1337" 
d="M-188 1069l-84 64l227 350l131 -101zM995 811v590h179v-1401h-179v670h-655l2 -670h-178v1401h178l-2 -590h655z" />
    <glyph glyph-name="Iotatonos" unicode="&#x38a;" horiz-adv-x="540" 
d="M-195 1069l-84 64l228 350l131 -101zM184 0v1403h172v-1403h-172z" />
    <glyph glyph-name="Omicrontonos" unicode="&#x38c;" horiz-adv-x="1429" 
d="M-123 1071l-84 64l227 350l132 -101zM1124 690q0 602 -410.5 602t-410.5 -604q0 -281 98.5 -426t309.5 -145t312 159.5t101 413.5zM123 690q0 510 218 621.5t385 111.5q313 0 447 -203t134 -521q0 -319 -151.5 -517t-430.5 -198q-602 0 -602 706z" />
    <glyph glyph-name="Upsilontonos" unicode="&#x38e;" horiz-adv-x="1097" 
d="M-289 1071l-84 64l228 350l131 -101zM633 0h-182v606l-431 797h183l192 -369l144 -284h8l155 297l195 356h178l-442 -789v-614z" />
    <glyph glyph-name="Omegatonos" unicode="&#x38f;" horiz-adv-x="1423" 
d="M-84 1071l-84 64l227 350l131 -101zM1124 721q0 569 -403 569q-219 0 -319.5 -153.5t-100.5 -411.5q0 -387 97.5 -478t176.5 -110v-137h-497v127h225l2 4q-155 113 -168.5 308t-13.5 311t32.5 243t146.5 279.5t420 152.5q307 0 446 -196t139 -500q0 -435 -207 -598l4 -4
h239v-127h-503v135q284 68 284 586z" />
    <glyph glyph-name="iotadieresistonos" unicode="&#x390;" horiz-adv-x="489" 
d="M221 1094l-92 34l147 392l146 -66zM104 1238q0 -40 -26.5 -64.5t-67.5 -24.5t-67.5 24.5t-26.5 63.5t27.5 65.5t66.5 26.5t66.5 -25.5t27.5 -65.5zM565 1238q0 -40 -29.5 -64.5t-68.5 -24.5t-63.5 24.5t-24.5 63.5t28.5 65.5t65.5 26.5t64.5 -25.5t27.5 -65.5zM292 -10
q-149 0 -149 151v858h166v-874h121l8 -100q-77 -35 -146 -35z" />
    <glyph glyph-name="Alpha" unicode="&#x391;" horiz-adv-x="1185" 
d="M825 500q-47 156 -94 312.5t-96 309.5l-41 138h-6l-41 -140q-23 -76 -45.5 -148.5t-64 -210t-81.5 -261.5h469zM20 0l463 1403h222l458 -1403h-182q-52 165 -115 367h-553q-67 -212 -114 -367h-179z" />
    <glyph glyph-name="Beta" unicode="&#x392;" horiz-adv-x="1247" 
d="M905 1026q0 106 -64.5 174t-211.5 68h-293v-475h293q135 0 205.5 63.5t70.5 169.5zM873 585q-73 77 -207 77h-330v-529h330q142 0 211 74t69 188q0 113 -73 190zM164 1401h504q202 0 306.5 -99.5t104.5 -259.5q0 -86 -42 -170t-150 -139q122 -40 176.5 -142t54.5 -199
q0 -179 -114.5 -285.5t-280.5 -106.5h-559v1401z" />
    <glyph glyph-name="Gamma" unicode="&#x393;" horiz-adv-x="1058" 
d="M164 0v1401h848v-137h-674v-1264h-174z" />
    <glyph glyph-name="Delta" unicode="&#x394;" horiz-adv-x="1357" 
d="M670 1255q-27 -72 -51.5 -142.5t-49.5 -141.5l-311 -844h827l-305 846l-96 280zM1264 0h-1174v94q111 334 237 656.5t244 652.5h213l480 -1290v-113z" />
    <glyph glyph-name="Delta" unicode="&#x2206;" horiz-adv-x="1357" 
d="M670 1255q-27 -72 -51.5 -142.5t-49.5 -141.5l-311 -844h827l-305 846l-96 280zM1264 0h-1174v94q111 334 237 656.5t244 652.5h213l480 -1290v-113z" />
    <glyph glyph-name="Epsilon" unicode="&#x395;" horiz-adv-x="1155" 
d="M164 0v1401h854v-131h-680v-465h573v-127h-573v-545h713v-133h-887z" />
    <glyph glyph-name="Zeta" unicode="&#x396;" horiz-adv-x="1089" 
d="M96 1403h914v-131l-752 -1131l789 -2v-139h-1002v131l750 1133h-699v139z" />
    <glyph glyph-name="Eta" unicode="&#x397;" horiz-adv-x="1337" 
d="M995 811v590h179v-1401h-179v670h-655l2 -670h-178v1401h178l-2 -590h655z" />
    <glyph glyph-name="Theta" unicode="&#x398;" horiz-adv-x="1388" 
d="M557 1292q-274 0 -274 -604q0 -281 98 -426t324 -145q196 0 297.5 159.5t101.5 413.5q0 410 -136.5 506t-410.5 96zM102 690q0 320 143.5 526.5t458.5 206.5t448.5 -202t133.5 -521t-150.5 -517.5t-430.5 -198.5q-603 0 -603 706zM406 801h571v-142h-571v142z" />
    <glyph glyph-name="Iota" unicode="&#x399;" horiz-adv-x="540" 
d="M184 0v1403h172v-1403h-172z" />
    <glyph glyph-name="Kappa" unicode="&#x39a;" horiz-adv-x="1187" 
d="M336 0h-172v1403h172v-637l612 637h197l-543 -559l563 -844h-194l-482 727l-153 -158v-569z" />
    <glyph glyph-name="Lambda" unicode="&#x39b;" horiz-adv-x="1185" 
d="M23 0l462 1403h222l456 -1403h-182l-336 1092l-49 170h-4q-39 -117 -393 -1262h-176z" />
    <glyph glyph-name="Mu" unicode="&#x39c;" horiz-adv-x="1681" 
d="M164 0v1401h196l476 -1075h12q66 150 134.5 299t133.5 301l213 475h189v-1401h-168v1096h-4l-123 -281q-37 -80 -73 -161t-75 -162q-39 -90 -78 -176.5t-79 -176.5h-162l-133 303q-45 102 -125.5 278t-163.5 374h-4l-2 -1094h-164z" />
    <glyph glyph-name="Nu" unicode="&#x39d;" horiz-adv-x="1396" 
d="M330 0h-166v1401h174q131 -201 257 -397.5t255 -397.5l205 -321h10v1116h168v-1401h-170l-541 846l-184 295l-8 -2v-1139z" />
    <glyph glyph-name="Xi" unicode="&#x39e;" horiz-adv-x="1120" 
d="M197 657v150h737v-150h-737zM1069 152v-152h-1020v152h1020zM82 1247v154h952v-154h-952z" />
    <glyph glyph-name="Omicron" unicode="&#x39f;" horiz-adv-x="1429" 
d="M1124 690q0 602 -410.5 602t-410.5 -604q0 -281 98.5 -426t309.5 -145t312 159.5t101 413.5zM123 690q0 510 218 621.5t385 111.5q313 0 447 -203t134 -521q0 -319 -151.5 -517t-430.5 -198q-602 0 -602 706z" />
    <glyph glyph-name="Pi" unicode="&#x3a0;" horiz-adv-x="1337" 
d="M995 0v1257h-655l2 -1257h-178v1403h1010v-1403h-179z" />
    <glyph glyph-name="Rho" unicode="&#x3a1;" horiz-adv-x="1136" 
d="M338 1270v-563h278q182 0 223.5 100t41.5 177q0 144 -75 215t-198 71h-270zM1059 1014q0 -179 -100 -309t-318 -130h-303l2 -575h-176v1403h459q199 0 285.5 -77t118.5 -153.5t32 -158.5z" />
    <glyph glyph-name="Sigma" unicode="&#x3a3;" horiz-adv-x="1110" 
d="M1053 141v-141h-987v129l380 608l-378 541v125h962v-137h-735l-8 -15l346 -491v-43l-354 -565l12 -11h762z" />
    <glyph glyph-name="Tau" unicode="&#x3a4;" horiz-adv-x="1153" 
d="M492 0v1266h-451v137h1071v-137h-448l-2 -1266h-170z" />
    <glyph glyph-name="Upsilon" unicode="&#x3a5;" horiz-adv-x="1097" 
d="M633 0h-182v606l-431 797h183l192 -369l144 -284h8l155 297l195 356h178l-442 -789v-614z" />
    <glyph glyph-name="Phi" unicode="&#x3a6;" horiz-adv-x="1636" 
d="M1274.5 1007.5q-109.5 120.5 -361.5 131.5v-852q224 12 347.5 129t123.5 294t-109.5 297.5zM250 707q0 -391 491 -420v852q-256 -15 -373.5 -132.5t-117.5 -299.5zM1385.5 331q-168.5 -153 -474.5 -169v-162h-170v162q-499 23 -579 225.5t-80 314.5q0 233 171.5 393
t487.5 175v131h170v-131q330 -11 486.5 -167t156.5 -387q0 -232 -168.5 -385z" />
    <glyph glyph-name="Chi" unicode="&#x3a7;" horiz-adv-x="1140" 
d="M1108 1401q-260 -403 -434 -680l448 -721h-192q-92 152 -183.5 302.5t-183.5 303.5l-356 -606h-191l449 729q-277 448 -420 672h197q84 -141 165.5 -280.5t167.5 -280.5l338 561h195z" />
    <glyph glyph-name="Psi" unicode="&#x3a8;" horiz-adv-x="1568" 
d="M868 0h-170v373q-555 31 -555 520v508h172v-522q0 -170 102.5 -267.5t280.5 -107.5v897h170v-897q195 12 291 104t96 279v514h168l2 -533q0 -220 -146 -352.5t-411 -140.5v-375z" />
    <glyph glyph-name="Omega" unicode="&#x3a9;" horiz-adv-x="1423" 
d="M1124 721q0 569 -403 569q-219 0 -319.5 -153.5t-100.5 -411.5q0 -387 97.5 -478t176.5 -110v-137h-497v127h225l2 4q-155 113 -168.5 308t-13.5 311t32.5 243t146.5 279.5t420 152.5q307 0 446 -196t139 -500q0 -435 -207 -598l4 -4h239v-127h-503v135q284 68 284 586z
" />
    <glyph glyph-name="Iotadieresis" unicode="&#x3aa;" horiz-adv-x="540" 
d="M174 1579q0 -41 -26.5 -65.5t-67.5 -24.5t-67.5 24.5t-26.5 63.5t27.5 65.5t66.5 26.5t66.5 -24.5t27.5 -65.5zM557 1579q0 -41 -28.5 -65.5t-68.5 -24.5t-64.5 24.5t-24.5 63.5t25.5 65.5t64.5 26.5t67.5 -24.5t28.5 -65.5zM184 0v1403h172v-1403h-172z" />
    <glyph glyph-name="Upsilondieresis" unicode="&#x3ab;" horiz-adv-x="1097" 
d="M442 1579q0 -41 -26.5 -65.5t-67.5 -24.5t-67.5 24.5t-26.5 63.5t27.5 65.5t66.5 26.5t66.5 -24.5t27.5 -65.5zM825 1579q0 -41 -28.5 -65.5t-68.5 -24.5t-64.5 24.5t-24.5 63.5t25.5 65.5t64.5 26.5t67.5 -24.5t28.5 -65.5zM633 0h-182v606l-431 797h183l192 -369
l144 -284h8l155 297l195 356h178l-442 -789v-614z" />
    <glyph glyph-name="alphatonos" unicode="&#x3ac;" horiz-adv-x="1114" 
d="M494 1083l-84 64l227 350l131 -100zM496 883q-54 0 -105 -33t-96 -109t-45 -217q0 -238 61.5 -321.5t184.5 -83.5q124 0 262 121l2 528q-67 67 -138.5 91t-125.5 24zM758 104q-147 -120 -330 -120t-266.5 135.5t-83.5 361.5t100.5 379.5t308.5 153.5q159 0 283 -113
l39 98h115v-874h120l9 -100q-77 -35 -145 -35q-69 0 -100.5 29.5t-41.5 82.5z" />
    <glyph glyph-name="epsilontonos" unicode="&#x3ad;" horiz-adv-x="899" 
d="M434 1083l-84 64l228 350l131 -100zM511 -14q-198 0 -313.5 71t-115.5 224q0 96 55.5 161.5t132.5 89.5l2 7q-66 18 -119 67t-53 123q0 140 107 217.5t288 77.5t312 -53l-37 -113q-139 43 -237 43t-140.5 -13.5t-81.5 -45t-39 -91.5q0 -99 58 -126t151 -27h137v-115h-139
q-148 0 -186.5 -64.5t-38.5 -117.5q0 -192 272 -192q131 0 297 71l39 -102q-61 -35 -158.5 -63.5t-192.5 -28.5z" />
    <glyph glyph-name="etatonos" unicode="&#x3ae;" horiz-adv-x="1052" 
d="M446 1083l-84 64l228 350l131 -100zM291 909q179 113 363 113q166 0 222 -87t56 -235v-700h-166v659q0 119 -22.5 157t-57.5 53.5t-94 15.5q-131 0 -305 -99v-786h-168v999h166v-86z" />
    <glyph glyph-name="iotatonos" unicode="&#x3af;" horiz-adv-x="489" 
d="M205 1083l-84 64l227 350l131 -100zM292 -10q-149 0 -149 151v858h166v-874h121l8 -100q-77 -35 -146 -35z" />
    <glyph glyph-name="upsilondieresistonos" unicode="&#x3b0;" horiz-adv-x="1054" 
d="M528 1094l-92 34l148 392l145 -66zM412 1238q0 -40 -27 -64.5t-68 -24.5t-67.5 24.5t-26.5 63.5t28.5 65.5t66.5 26.5t66 -25.5t28 -65.5zM872 1238q0 -40 -29.5 -64.5t-68.5 -24.5t-63.5 24.5t-24.5 63.5t28.5 65.5t65.5 26.5t64.5 -25.5t27.5 -65.5zM932 999v-608
q0 -178 -108.5 -290.5t-305.5 -112.5t-296 104.5t-99 272.5v634h168v-634q0 -109 50 -176.5t176 -67.5t185.5 74.5t59.5 187.5v616h170z" />
    <glyph glyph-name="alpha" unicode="&#x3b1;" horiz-adv-x="1114" 
d="M496 883q-54 0 -105 -33t-96 -109t-45 -217q0 -238 61.5 -321.5t184.5 -83.5q124 0 262 121l2 528q-67 67 -138.5 91t-125.5 24zM758 104q-147 -120 -330 -120t-266.5 135.5t-83.5 361.5t100.5 379.5t308.5 153.5q159 0 283 -113l39 98h115v-874h120l9 -100
q-77 -35 -145 -35q-69 0 -100.5 29.5t-41.5 82.5z" />
    <glyph glyph-name="beta" unicode="&#x3b2;" horiz-adv-x="1026" 
d="M776 459q0 305 -282 305h-105v119h103q92 0 155.5 64.5t63.5 170.5t-60.5 167t-162.5 61t-162 -62.5t-60 -183.5v-916q105 -73 242 -73t202.5 95t65.5 253zM264 -412h-166v1426q0 325 141.5 392t252.5 67q188 0 286.5 -93.5t98.5 -249.5q0 -100 -52.5 -181t-119.5 -113
q193 -63 216 -192.5t23 -221.5t-29.5 -178t-111 -175t-264.5 -89q-76 0 -151 20t-118 51l-6 -6v-457z" />
    <glyph glyph-name="gamma" unicode="&#x3b3;" horiz-adv-x="991" 
d="M155 1022q71 0 96 -37t45 -94t44.5 -142t58.5 -198t99 -344h6q12 47 23.5 83t21.5 67.5t21.5 62.5t23.5 67l168 517h166l-344 -965v-465h-168v451l-289 847l-109 -18l-30 96q96 72 167 72z" />
    <glyph glyph-name="delta" unicode="&#x3b4;" horiz-adv-x="1083" 
d="M747.5 695.5q-67.5 81.5 -200.5 162.5q-134 -31 -204.5 -146t-70.5 -265q0 -151 56.5 -242.5t209.5 -91.5t215 104.5t62 250.5t-67.5 227.5zM596 1341q-74 0 -128 -35.5t-54 -99.5t42 -102.5t105.5 -76.5t241.5 -146t178 -406q0 -324 -159.5 -407.5t-285.5 -83.5
q-231 0 -332.5 129.5t-101.5 332.5q0 151 75.5 292.5t240.5 195.5q-72 47 -121 104.5t-49 153.5q0 137 94 210t258 73t291 -52l-39 -120q-109 38 -256 38z" />
    <glyph glyph-name="epsilon" unicode="&#x3b5;" horiz-adv-x="899" 
d="M511 -14q-198 0 -313.5 71t-115.5 224q0 96 55.5 161.5t132.5 89.5l2 7q-66 18 -119 67t-53 123q0 140 107 217.5t288 77.5t312 -53l-37 -113q-139 43 -237 43t-140.5 -13.5t-81.5 -45t-39 -91.5q0 -99 58 -126t151 -27h137v-115h-139q-148 0 -186.5 -64.5t-38.5 -117.5
q0 -192 272 -192q131 0 297 71l39 -102q-61 -35 -158.5 -63.5t-192.5 -28.5z" />
    <glyph glyph-name="zeta" unicode="&#x3b6;" horiz-adv-x="798" 
d="M123 1440h751v-115q-443 -368 -535.5 -586.5t-92.5 -290.5t22.5 -114.5t87 -85.5t328.5 -131q101 -40 127.5 -67t33.5 -50t7 -63t-65 -130t-146 -169l-90 73q78 98 108.5 142.5t30.5 68.5q0 43 -112 83t-204.5 73t-157 75t-99.5 104.5t-35 150.5q0 178 153.5 425.5
t430.5 475.5l-2 6l-541 -2v127z" />
    <glyph glyph-name="eta" unicode="&#x3b7;" horiz-adv-x="1052" 
d="M291 909q179 113 363 113q166 0 222 -87t56 -235v-700h-166v659q0 119 -22.5 157t-57.5 53.5t-94 15.5q-131 0 -305 -99v-786h-168v999h166v-86z" />
    <glyph glyph-name="theta" unicode="&#x3b8;" horiz-adv-x="1079" 
d="M544 1339q-161 0 -218 -139t-62 -371h551q-5 233 -42.5 326.5t-89.5 138.5t-139 45zM262 705q0 -322 53 -456t222 -134q157 0 218.5 146t61.5 398v46h-555zM987 729q0 -741 -455 -741q-261 0 -350.5 191.5t-89.5 533.5t97 551t355 209t350.5 -207.5t92.5 -536.5z" />
    <glyph glyph-name="iota" unicode="&#x3b9;" horiz-adv-x="489" 
d="M292 -10q-149 0 -149 151v858h166v-874h121l8 -100q-77 -35 -146 -35z" />
    <glyph glyph-name="kappa" unicode="&#x3ba;" horiz-adv-x="927" 
d="M287 0h-168v997h168v-178l-8 -227l14 -6l405 413h189l-387 -393q16 -23 33.5 -42t33.5 -42l351 -522h-185q-86 127 -168 253t-166 253l-112 -113v-393z" />
    <glyph glyph-name="lambda" unicode="&#x3bb;" horiz-adv-x="1013" 
d="M862 -14q-61 0 -87.5 14t-37.5 51l-225 799h-8l-332 -850h-160l377 952h96l-88 299q-16 55 -35.5 75t-56.5 20t-110 -13l-23 113q100 35 159 35q103 0 145.5 -42.5t80.5 -174.5l322 -1153h92l10 -97q-58 -28 -119 -28z" />
    <glyph glyph-name="nu" unicode="&#x3bd;" horiz-adv-x="948" 
d="M18 997h170q41 -131 85 -257t79 -234t62.5 -199.5t56.5 -177.5h10q6 14 33 105.5t86 277.5l162 485h168l-361 -997h-200z" />
    <glyph glyph-name="xi" unicode="&#x3be;" horiz-adv-x="886" 
d="M111 1120q0 168 116.5 263.5t313.5 95.5q119 0 203.5 -22.5t119.5 -39.5l-35 -119q-148 50 -289 50q-140 0 -200.5 -70t-60.5 -180t87 -171t218 -61h180v-125h-195q-167 0 -248 -89.5t-81 -213.5q0 -125 67.5 -187t249.5 -128t230.5 -94.5t70 -57t21.5 -65.5
q0 -65 -45.5 -132.5t-137.5 -164.5l-90 69q57 78 83 117t26 65q-1 50 -107 90t-198.5 72.5t-166 80t-121.5 118t-50 182.5q0 300 260 406q-115 43 -168 129t-53 182z" />
    <glyph glyph-name="omicron" unicode="&#x3bf;" horiz-adv-x="1081" 
d="M549 113q260 0 260 389t-260 389q-152 0 -214.5 -115t-62.5 -286t57.5 -274t219.5 -103zM878 130.5q-105 -146.5 -342 -146.5t-337.5 141.5t-100.5 365.5q0 223 110.5 376t341.5 153t332 -148t101 -371q0 -224 -105 -370.5z" />
    <glyph glyph-name="pi" unicode="&#x3c0;" horiz-adv-x="1054" 
d="M766 0v872h-481v-872h-166v997h815l-2 -997h-166z" />
    <glyph glyph-name="rho" unicode="&#x3c1;" horiz-adv-x="1054" 
d="M520 887q-121 0 -187.5 -96.5t-66.5 -231.5v-375q58 -44 133.5 -58.5t123.5 -14.5q125 0 201.5 86.5t76.5 318.5q0 299 -109.5 335t-171.5 36zM509 -20q-136 0 -235 65l-8 -4v-465h-170v821q0 95 5 188q11 197 126.5 316t322.5 119q206 0 313.5 -138.5t107.5 -371.5
q0 -377 -163 -453.5t-299 -76.5z" />
    <glyph glyph-name="sigma1" unicode="&#x3c2;" horiz-adv-x="905" 
d="M580 893q-101 0 -215.5 -57.5t-114.5 -321.5q0 -141 63 -216t227 -150q164 -74 214.5 -119t50.5 -121t-172 -252l-92 70q27 41 60.5 87t33.5 78t-33.5 55t-141.5 69q-220 93 -301 201t-81 318q0 209 121 348.5t338 139.5q159 0 309 -55l-39 -121q-126 47 -227 47z" />
    <glyph glyph-name="sigma" unicode="&#x3c3;" horiz-adv-x="1079" 
d="M526 872q-278 0 -278 -393q0 -178 64.5 -271t203.5 -93t205.5 103.5t66.5 266.5q0 268 -89 327.5t-173 59.5zM958 485q0 -217 -115 -356t-323 -139q-442 0 -442 495q0 221 108.5 367.5t339.5 146.5h512v-122h-198l-6 -9q124 -110 124 -383z" />
    <glyph glyph-name="tau" unicode="&#x3c4;" horiz-adv-x="811" 
d="M250 236v643h-236v120h738v-120h-338v-592q0 -74 28.5 -119t110.5 -45t192 33l27 -111q-112 -55 -252 -55q-270 0 -270 246z" />
    <glyph glyph-name="upsilon" unicode="&#x3c5;" horiz-adv-x="1054" 
d="M932 999v-608q0 -178 -108.5 -290.5t-305.5 -112.5t-296 104.5t-99 272.5v634h168v-634q0 -109 50 -176.5t176 -67.5t185.5 74.5t59.5 187.5v616h170z" />
    <glyph glyph-name="phi" unicode="&#x3c6;" horiz-adv-x="1355" 
d="M1110 508q0 179 -78 279t-276 100v-778q354 7 354 399zM422 1006l47 -105q-119 -47 -171 -156t-52 -221t29.5 -258t322.5 -157v907h199q234 0 356.5 -139t122.5 -369q0 -360 -189.5 -438t-332.5 -84v-410h-158v410q-291 11 -403.5 147t-112.5 342q0 421 342 531z" />
    <glyph glyph-name="chi" unicode="&#x3c7;" horiz-adv-x="884" 
d="M848 999l-311 -473q86 -133 168.5 -263t168.5 -263h-186q-173 295 -248 418l-252 -418h-180l336 522q-78 119 -152.5 238t-152.5 239h186q55 -92 108.5 -185t108.5 -185l222 370h184z" />
    <glyph glyph-name="psi" unicode="&#x3c8;" horiz-adv-x="1388" 
d="M285 997v-614q0 -109 77.5 -184.5t247.5 -81.5v1040h168v-1040q152 4 239 77.5t87 188.5v614h164v-612q0 -170 -132.5 -281.5t-357.5 -115.5v-414h-168v414q-230 4 -360.5 115.5t-130.5 281.5l2 612h164z" />
    <glyph glyph-name="omega" unicode="&#x3c9;" horiz-adv-x="1495" 
d="M748 143q-82 -157 -290 -157q-203 0 -290.5 137.5t-87.5 368.5q0 306 121 403.5t213 120.5l35 -111q-203 -100 -203 -416q0 -167 33.5 -236t81 -101.5t110.5 -32.5q108 0 157.5 60t49.5 145v364h153l3 -364q0 -136 65.5 -170.5t110.5 -34.5q239 0 239 370q0 323 -205 416
l37 111q173 -43 253.5 -185.5t80.5 -338.5q0 -344 -144.5 -425t-246.5 -81t-172 43t-98 114h-6z" />
    <glyph glyph-name="iotadieresis" unicode="&#x3ca;" horiz-adv-x="489" 
d="M131 1236q0 -40 -26.5 -65.5t-67.5 -25.5t-67.5 25.5t-26.5 64.5t28.5 64.5t67.5 25.5t65.5 -24.5t26.5 -64.5zM516 1236q0 -40 -28.5 -65.5t-69.5 -25.5t-65.5 25.5t-24.5 64.5t26.5 64.5t65.5 25.5t67.5 -24.5t28.5 -64.5zM292 -10q-149 0 -149 151v858h166v-874h121
l8 -100q-77 -35 -146 -35z" />
    <glyph glyph-name="upsilondieresis" unicode="&#x3cb;" horiz-adv-x="1054" 
d="M428 1236q0 -40 -26.5 -65.5t-67.5 -25.5t-67.5 25.5t-26.5 64.5t28.5 64.5t67.5 25.5t65.5 -24.5t26.5 -64.5zM813 1236q0 -40 -28.5 -65.5t-69.5 -25.5t-65.5 25.5t-24.5 64.5t26.5 64.5t65.5 25.5t67.5 -24.5t28.5 -64.5zM932 999v-608q0 -178 -108.5 -290.5
t-305.5 -112.5t-296 104.5t-99 272.5v634h168v-634q0 -109 50 -176.5t176 -67.5t185.5 74.5t59.5 187.5v616h170z" />
    <glyph glyph-name="omicrontonos" unicode="&#x3cc;" horiz-adv-x="1081" 
d="M524 1083l-84 64l228 350l131 -100zM549 113q260 0 260 389t-260 389q-152 0 -214.5 -115t-62.5 -286t57.5 -274t219.5 -103zM878 130.5q-105 -146.5 -342 -146.5t-337.5 141.5t-100.5 365.5q0 223 110.5 376t341.5 153t332 -148t101 -371q0 -224 -105 -370.5z" />
    <glyph glyph-name="upsilontonos" unicode="&#x3cd;" horiz-adv-x="1054" 
d="M535 1083l-84 64l227 350l131 -100zM932 999v-608q0 -178 -108.5 -290.5t-305.5 -112.5t-296 104.5t-99 272.5v634h168v-634q0 -109 50 -176.5t176 -67.5t185.5 74.5t59.5 187.5v616h170z" />
    <glyph glyph-name="omegatonos" unicode="&#x3ce;" horiz-adv-x="1495" 
d="M723 1083l-84 64l227 350l131 -100zM748 143q-82 -157 -290 -157q-203 0 -290.5 137.5t-87.5 368.5q0 306 121 403.5t213 120.5l35 -111q-203 -100 -203 -416q0 -167 33.5 -236t81 -101.5t110.5 -32.5q108 0 157.5 60t49.5 145v364h153l3 -364q0 -136 65.5 -170.5
t110.5 -34.5q239 0 239 370q0 323 -205 416l37 111q173 -43 253.5 -185.5t80.5 -338.5q0 -344 -144.5 -425t-246.5 -81t-172 43t-98 114h-6z" />
    <glyph glyph-name="Stigmagreek" unicode="&#x3da;" horiz-adv-x="1396" 
d="M418 1110q-150 -109 -150 -291t132.5 -297.5t445.5 -189.5q215 -53 315.5 -126t100.5 -177q0 -135 -226 -273q-6 6 -17 19.5t-23.5 27t-23.5 25.5t-18 18q53 43 94.5 79t41.5 74q0 68 -58 103t-234 77q-364 87 -529 244t-165 399t191 394.5t589 154.5q225 1 400 56
l39 -137q-165 -65 -460 -68t-445 -112z" />
    <glyph glyph-name="stigmagreek" unicode="&#x3db;" horiz-adv-x="1198" 
d="M731 -156q103 74 103 116q0 43 -34 62.5t-171 55.5q-280 72 -407.5 191t-127.5 309t145 308t429 122q209 0 327 41l37 -127q-111 -46 -342 -49t-344 -82.5t-113 -217.5q0 -192 156.5 -259.5t298.5 -103.5t220.5 -91.5t78.5 -138.5q0 -105 -184 -222z" />
    <glyph glyph-name="Digammagreek" unicode="&#x3dc;" horiz-adv-x="1091" 
d="M995 1409v-125h-692v-483q393 6 535 10v-139l-535 8l2 -680h-174l2 1409h862z" />
    <glyph glyph-name="digammagreek" unicode="&#x3dd;" horiz-adv-x="1169" 
d="M995 1004v-123l-692 -2v-484l535 11v-140l-535 8l2 -677h-174l2 1407h862z" />
    <glyph glyph-name="Koppagreek" unicode="&#x3de;" horiz-adv-x="1282" 
d="M543 1423q121 0 121 -100q0 -28 -11 -57l-264 -676l526 147q29 11 60 11q66 0 65 -58q0 -10 -4 -26l-202 -699l264 76l43 -74q-56 -56 -155.5 -103.5t-176.5 -47.5q-115 0 -115 96q0 31 6 55l193 641l-555 -159q-58 -19 -85.5 9t-27.5 46v18q0 17 4 25l291 719l-262 -80
l-49 78q103 103 197 131t137 28z" />
    <glyph glyph-name="koppagreek" unicode="&#x3df;" horiz-adv-x="944" 
d="M709 573q104 1 104 -59q0 -28 -12 -49q-121 -354 -248 -713l-170 19q74 170 143.5 336.5t143.5 336.5h-336q-90 0 -90 70q0 14 30.5 159.5t47.5 241.5l-232 -73q-1 2 -41 78q40 40 135 83.5t150 43.5t86 -24t31 -103q-22 -155 -58 -347h316z" />
    <glyph glyph-name="Sampigreek" unicode="&#x3e0;" horiz-adv-x="1370" 
d="M1251 270q0 -223 -61 -469l-90 17q26 182 26 374t-57 394l-586 -369l-63 107l620 350q-64 158 -141 260l-590 -367l-67 109l600 334q-276 333 -723 376l10 82q545 -31 833.5 -357t288.5 -841z" />
    <glyph glyph-name="sampigreek" unicode="&#x3e1;" horiz-adv-x="1228" 
d="M1059 53q0 -191 -49 -393l-92 18q22 189 22 328q0 138 -47 295l-469 -305l-64 102l508 283q-49 116 -108 203l-484 -303l-65 104l491 268q-104 117 -244.5 197t-340.5 100l14 86q458 -23 693 -292t235 -691z" />
    <glyph glyph-name="afii10023" unicode="&#x401;" horiz-adv-x="1177" 
d="M164 0v1401h854v-131h-680v-465h573v-127h-573v-545h713v-133h-887zM492 1579q0 -41 -27 -65.5t-68 -24.5t-67.5 24.5t-26.5 63.5t27.5 65.5t66.5 26.5t67 -24.5t28 -65.5zM874 1579q0 -41 -28.5 -65.5t-68.5 -24.5t-64.5 24.5t-24.5 63.5t25.5 65.5t64.5 26.5
t67.5 -24.5t28.5 -65.5z" />
    <glyph glyph-name="afii10051" unicode="&#x402;" horiz-adv-x="1552" 
d="M664 801q195 80 383 80t299.5 -124t111.5 -328q0 -205 -114 -373.5t-283 -268.5l-68 90q287 221 287 533q0 166 -79 249.5t-230 83.5t-309 -67v-676h-170v1268h-451v133h1186v-133h-563v-467z" />
    <glyph glyph-name="afii10052" unicode="&#x403;" horiz-adv-x="1058" 
d="M164 0v1401h848v-137h-674v-1264h-174zM528 1495l-77 64l251 329l123 -108z" />
    <glyph glyph-name="afii10053" unicode="&#x404;" horiz-adv-x="1214" 
d="M727 -16q-604 0 -604 708q0 281 141.5 507t472.5 226q196 0 355 -57l-37 -129q-136 47 -301 47q-209 0 -318.5 -131t-128.5 -360q401 6 535 10v-137q-411 6 -539 6q0 -261 100.5 -406t370.5 -145q151 0 318 49l32 -123q-115 -44 -231.5 -54.5t-165.5 -10.5z" />
    <glyph glyph-name="afii10054" unicode="&#x405;" horiz-adv-x="1173" 
d="M541 123q176 0 265 56.5t89 205.5q0 116 -76 168t-197 84q-120 31 -204 57.5t-186.5 91.5t-102.5 246q0 180 128.5 286.5t351.5 106.5t370 -88l-55 -123q-160 72 -338 72q-123 0 -201 -62.5t-78 -179.5t86.5 -165.5t194.5 -73.5q109 -26 296 -82.5t187 -337.5
q0 -202 -139.5 -301.5t-388.5 -99.5t-441 108l60 127q203 -96 379 -96z" />
    <glyph glyph-name="afii10055" unicode="&#x406;" horiz-adv-x="540" 
d="M184 0v1403h172v-1403h-172z" />
    <glyph glyph-name="afii10056" unicode="&#x407;" horiz-adv-x="540" 
d="M184 0v1403h172v-1403h-172zM176 1579q0 -41 -26.5 -65.5t-67.5 -24.5t-67.5 24.5t-26.5 63.5t27.5 65.5t66.5 26.5t66.5 -24.5t27.5 -65.5zM559 1579q0 -41 -28.5 -65.5t-68.5 -24.5t-64.5 24.5t-24.5 63.5t25.5 65.5t64.5 26.5t67.5 -24.5t28.5 -65.5z" />
    <glyph glyph-name="afii10057" unicode="&#x408;" horiz-adv-x="632" 
d="M254 1403h174l-2 -1135q0 -257 -117 -405t-356 -232l-49 125q197 111 272.5 216.5t75.5 285.5z" />
    <glyph glyph-name="afii10058" unicode="&#x409;" horiz-adv-x="1968" 
d="M1100 698v-573h334q188 0 231 106.5t43 180.5q0 138 -86 212t-211 74h-311zM1430 823q216 0 336 -118t120 -306t-117.5 -293.5t-308.5 -105.5h-534v1270h-402l-6 -144q-24 -461 -41.5 -606t-44 -239.5t-98 -193t-281.5 -136.5l-33 125q117 39 179.5 99.5t94.5 170
t44 282.5t24 437l17 338h719l2 -580h330z" />
    <glyph glyph-name="afii10059" unicode="&#x40a;" horiz-adv-x="1949" 
d="M1081 692v-567h334q119 0 198 71.5t79 212.5t-88.5 212t-210.5 71h-312zM1081 823h330q221 0 339 -119.5t118 -305.5t-117 -292t-309 -106h-535v692h-567v-692h-176v1401h176v-582h567v584h174v-580z" />
    <glyph glyph-name="afii10060" unicode="&#x40b;" horiz-adv-x="1544" 
d="M1070 893q231 0 291 -119t60 -201v-573h-176v532q0 129 -74.5 178.5t-220.5 49.5t-309 -74v-686h-170l-2 1266h-428v135h1159v-135h-557v-447q196 74 427 74z" />
    <glyph glyph-name="afii10061" unicode="&#x40c;" horiz-adv-x="1208" 
d="M578 1499l-78 64l252 329l122 -108zM164 0v1403h174v-584h244q86 0 153.5 46.5t100.5 174.5l92 359h164l-91 -381q-56 -216 -202 -268q193 -50 243 -256l125 -494h-170l-120 449q-64 229 -287 229h-252v-678h-174z" />
    <glyph glyph-name="afii10062" unicode="&#x40e;" horiz-adv-x="1130" 
d="M575 1464q-171 0 -331 230l96 67q55 -76 119.5 -123t124.5 -47q126 0 290 158l56 -51q-163 -234 -355 -234zM529.5 27.5q-60.5 -47.5 -166.5 -47.5t-226 34l37 138q128 -25 170 -25q43 0 78 20.5t61 94.5l37 100h-61l-422 1061h172l227 -592l131 -356h11l124 356l213 592
h177l-459 -1215q-43 -113 -103.5 -160.5z" />
    <glyph glyph-name="afii10145" unicode="&#x40f;" horiz-adv-x="1337" 
d="M1171 1399v-1399h-432v-352h-139v352h-434v1399h172v-1274h657v1274h176z" />
    <glyph glyph-name="afii10017" unicode="&#x410;" horiz-adv-x="1185" 
d="M825 500q-47 156 -94 312.5t-96 309.5l-41 138h-6l-41 -140q-23 -76 -45.5 -148.5t-64 -210t-81.5 -261.5h469zM20 0l463 1403h222l458 -1403h-182q-52 165 -115 367h-553q-67 -212 -114 -367h-179z" />
    <glyph glyph-name="afii10018" unicode="&#x411;" horiz-adv-x="1159" 
d="M291 698v-573h340q117 0 194.5 79.5t77.5 218.5t-84 207t-215 68h-313zM940 1276h-649v-453h332q227 0 340.5 -109.5t113.5 -299.5t-118 -302t-306 -112h-534v1401h821v-125z" />
    <glyph glyph-name="afii10019" unicode="&#x412;" horiz-adv-x="1247" 
d="M905 1026q0 106 -64.5 174t-211.5 68h-293v-475h293q135 0 205.5 63.5t70.5 169.5zM873 585q-73 77 -207 77h-330v-529h330q142 0 211 74t69 188q0 113 -73 190zM164 1401h504q202 0 306.5 -99.5t104.5 -259.5q0 -86 -42 -170t-150 -139q122 -40 176.5 -142t54.5 -199
q0 -179 -114.5 -285.5t-280.5 -106.5h-559v1401z" />
    <glyph glyph-name="afii10020" unicode="&#x413;" horiz-adv-x="1120" 
d="M164 0v1401h848v-137h-674v-1264h-174z" />
    <glyph glyph-name="afii10021" unicode="&#x414;" horiz-adv-x="1402" 
d="M1030 125v1151h-463l-10 -125q-37 -492 -68.5 -649.5t-66.5 -236.5t-90 -140h698zM158 0v-342h-138v467h125q134 134 181 367t75 686l15 223h786v-1276h139v-467h-137v342h-1046z" />
    <glyph glyph-name="afii10022" unicode="&#x415;" horiz-adv-x="1155" 
d="M164 0v1401h854v-131h-680v-465h573v-127h-573v-545h713v-133h-887z" />
    <glyph glyph-name="afii10024" unicode="&#x416;" horiz-adv-x="1882" 
d="M852 0v678h-215q-96 0 -172 -49.5t-115 -179.5l-121 -449h-166l125 494q25 98 82.5 163.5t161.5 92.5q-148 54 -203 268l-90 381h160l92 -359q54 -221 254 -221h207v584h174v-584h209q86 0 153.5 46.5t100.5 174.5l92 359h158l-90 -381q-56 -216 -203 -268
q104 -27 161.5 -92.5t82.5 -163.5l125 -494h-164l-121 449q-64 229 -287 229h-217v-678h-174z" />
    <glyph glyph-name="afii10025" unicode="&#x417;" horiz-adv-x="1163" 
d="M513 1290q-157 0 -345 -80l-45 117q187 96 426 96q334 0 403.5 -121.5t69.5 -190.5q0 -114 -57 -199t-164 -130l2 -10q117 -31 187.5 -121t70.5 -211q0 -219 -155 -333.5t-407 -114.5t-431 80l41 121q193 -62 377 -62t290.5 77t106.5 213t-101.5 207.5t-255.5 71.5h-170
v123h164q149 0 235.5 74t86.5 184q0 111 -86 160t-243 49z" />
    <glyph glyph-name="afii10026" unicode="&#x418;" horiz-adv-x="1366" 
d="M1202 0h-170v1135h-4l-692 -1135h-172v1399h172l-2 -1127h6l696 1131l166 -4v-1399z" />
    <glyph glyph-name="afii10027" unicode="&#x419;" horiz-adv-x="1366" 
d="M550.5 1703q63.5 -46 123.5 -46t124.5 28t168.5 127l55 -51q-163 -233 -354 -233q-140 0 -220.5 93t-111.5 136l96 70q55 -78 118.5 -124zM1202 0h-170v1135h-4l-692 -1135h-172v1399h172l-2 -1127h6l696 1131l166 -4v-1399z" />
    <glyph glyph-name="afii10028" unicode="&#x41a;" horiz-adv-x="1208" 
d="M164 0v1403h174v-584h244q86 0 153.5 46.5t100.5 174.5l92 359h164l-91 -381q-56 -216 -202 -268q193 -50 243 -256l125 -494h-170l-120 449q-64 229 -287 229h-252v-678h-174z" />
    <glyph glyph-name="afii10029" unicode="&#x41b;" horiz-adv-x="1320" 
d="M1157 1403v-1403h-176l-2 1270h-455l-6 -144q-24 -461 -41.5 -606t-44 -239.5t-98 -193t-281.5 -136.5l-33 125q117 39 179.5 99.5t94.5 170t44 282.5t24 437l17 338h778z" />
    <glyph glyph-name="afii10030" unicode="&#x41c;" horiz-adv-x="1681" 
d="M164 0v1401h196l476 -1075h12q66 150 134.5 299t133.5 301l213 475h189v-1401h-168v1096h-4l-123 -281q-37 -80 -73 -161t-75 -162q-39 -90 -78 -176.5t-79 -176.5h-162l-133 303q-45 102 -125.5 278t-163.5 374h-4l-2 -1094h-164z" />
    <glyph glyph-name="afii10031" unicode="&#x41d;" horiz-adv-x="1337" 
d="M995 811v590h179v-1401h-179v670h-655l2 -670h-178v1401h178l-2 -590h655z" />
    <glyph glyph-name="afii10032" unicode="&#x41e;" horiz-adv-x="1429" 
d="M1124 690q0 602 -410.5 602t-410.5 -604q0 -281 98.5 -426t309.5 -145t312 159.5t101 413.5zM123 690q0 510 218 621.5t385 111.5q313 0 447 -203t134 -521q0 -319 -151.5 -517t-430.5 -198q-602 0 -602 706z" />
    <glyph glyph-name="afii10033" unicode="&#x41f;" horiz-adv-x="1337" 
d="M995 0v1257h-655l2 -1257h-178v1403h1010v-1403h-179z" />
    <glyph glyph-name="afii10034" unicode="&#x420;" horiz-adv-x="1136" 
d="M338 1270v-563h278q182 0 223.5 100t41.5 177q0 144 -75 215t-198 71h-270zM1059 1014q0 -179 -100 -309t-318 -130h-303l2 -575h-176v1403h459q199 0 285.5 -77t118.5 -153.5t32 -158.5z" />
    <glyph glyph-name="afii10035" unicode="&#x421;" horiz-adv-x="1214" 
d="M727 -16q-604 0 -604 708q0 281 141.5 507t472.5 226q196 0 355 -57l-37 -129q-136 47 -276 47t-308 -81t-168 -513q0 -268 70.5 -374.5t159 -150.5t240.5 -44t319 49l32 -123q-115 -44 -231.5 -54.5t-165.5 -10.5z" />
    <glyph glyph-name="afii10036" unicode="&#x422;" horiz-adv-x="1153" 
d="M492 0v1266h-451v137h1071v-137h-448l-2 -1266h-170z" />
    <glyph glyph-name="afii10037" unicode="&#x423;" horiz-adv-x="1130" 
d="M529.5 27.5q-60.5 -47.5 -166.5 -47.5t-226 34l37 138q128 -25 170 -25q43 0 78 20.5t61 94.5l37 100h-61l-422 1061h172l227 -592l131 -356h11l124 356l213 592h177l-459 -1215q-43 -113 -103.5 -160.5z" />
    <glyph glyph-name="afii10038" unicode="&#x424;" horiz-adv-x="1636" 
d="M1274.5 1007.5q-109.5 120.5 -361.5 131.5v-852q224 12 347.5 129t123.5 294t-109.5 297.5zM250 707q0 -391 491 -420v852q-256 -15 -373.5 -132.5t-117.5 -299.5zM1385.5 331q-168.5 -153 -474.5 -169v-162h-170v162q-499 23 -579 225.5t-80 314.5q0 233 171.5 393
t487.5 175v131h170v-131q330 -11 486.5 -167t156.5 -387q0 -232 -168.5 -385z" />
    <glyph glyph-name="afii10039" unicode="&#x425;" horiz-adv-x="1140" 
d="M1108 1401q-260 -403 -434 -680l448 -721h-192q-92 152 -183.5 302.5t-183.5 303.5l-356 -606h-191l449 729q-277 448 -420 672h197q84 -141 165.5 -280.5t167.5 -280.5l338 561h195z" />
    <glyph glyph-name="afii10040" unicode="&#x426;" horiz-adv-x="1378" 
d="M1171 125h146v-465h-137v340h-1016v1399h174v-1274h657v1274h176v-1274z" />
    <glyph glyph-name="afii10041" unicode="&#x427;" horiz-adv-x="1236" 
d="M577 692q155 0 324 68v639h172v-1399h-172v625q-194 -68 -383 -68q-292 0 -354 119t-62 205v518h179v-475q0 -131 70.5 -181.5t225.5 -50.5z" />
    <glyph glyph-name="afii10042" unicode="&#x428;" horiz-adv-x="1859" 
d="M844 1401h174v-1276h502v1276h174l2 -1401h-1532v1401h170v-1276h510v1276z" />
    <glyph glyph-name="afii10043" unicode="&#x429;" horiz-adv-x="1900" 
d="M164 1401h170v-1276h510v1276h174v-1276h502v1276h176v-1276h143v-467h-137v342h-1538v1401z" />
    <glyph glyph-name="afii10044" unicode="&#x42a;" horiz-adv-x="1568" 
d="M700 698v-573h334q189 0 232 106.5t43 180.5q0 137 -86 211.5t-211 74.5h-312zM700 823h330q217 0 337 -118t120 -306t-117 -293.5t-309 -105.5h-537l2 1268h-493v133h667v-578z" />
    <glyph glyph-name="afii10045" unicode="&#x42b;" horiz-adv-x="1630" 
d="M1294 0v1403h172v-1403h-172zM668 823q219 0 337.5 -118.5t118.5 -306.5t-117.5 -293t-308.5 -105h-534v1403h172l2 -580h330zM338 698v-573h334q120 0 198 73t78 213t-87.5 213.5t-211.5 73.5h-311z" />
    <glyph glyph-name="afii10046" unicode="&#x42c;" horiz-adv-x="1206" 
d="M338 823h330q219 0 337.5 -118.5t118.5 -306.5t-117.5 -293t-308.5 -105h-534v1403h174v-580zM338 698v-573h334q120 0 198 73t78 213t-87.5 213.5t-211.5 73.5h-311z" />
    <glyph glyph-name="afii10047" unicode="&#x42d;" horiz-adv-x="1187" 
d="M454 1423q332 0 471.5 -188.5t139.5 -484.5q0 -541 -228.5 -652.5t-428.5 -111.5t-347 61l33 127q171 -51 311 -51q262 0 369 141t111 428l-541 -8v137l541 -10q-7 337 -162.5 406t-291.5 69t-281 -47l-33 123q158 61 337 61z" />
    <glyph glyph-name="afii10048" unicode="&#x42e;" horiz-adv-x="1884" 
d="M1505.5 1122q-77.5 168 -307.5 168t-315.5 -165t-85.5 -448t93 -422.5t300 -139.5t300 157t93 419q0 263 -77.5 431zM1200 -14q-579 0 -579 686h-285v-672h-172v1403h172v-604h287q34 442 229.5 533t355.5 91q552 0 553 -729q0 -499 -207.5 -603.5t-353.5 -104.5z" />
    <glyph glyph-name="afii10049" unicode="&#x42f;" horiz-adv-x="1212" 
d="M877 743v525h-279q-192 0 -231 -98.5t-39 -174.5q0 -141 81 -196.5t185 -55.5h283zM150 990q0 197 106.5 305t310.5 108h482v-1403h-172v610h-187q-126 0 -206 -50t-117 -175l-111 -385h-174l115 406q25 86 71.5 154.5t128.5 92.5q-123 35 -185 133t-62 204z" />
    <glyph glyph-name="afii10065" unicode="&#x430;" horiz-adv-x="1085" 
d="M520 1016q183 0 273 -74t90 -258v-559h135l10 -98q-84 -41 -159 -41q-74 0 -107 24.5t-37 102.5l-2 2q-141 -121 -232.5 -126t-113.5 -5q-156 0 -223.5 89.5t-67.5 208.5t93 198t286 91l256 17v63q0 125 -45 176.5t-184 51.5t-295 -56l-37 113q177 80 360 80zM449 113
q129 0 272 131v233l-256 -16q-102 -4 -151.5 -51.5t-49.5 -129.5q0 -168 185 -167z" />
    <glyph glyph-name="afii10066" unicode="&#x431;" horiz-adv-x="1044" 
d="M788 481q0 174 -53.5 278.5t-195.5 104.5t-213.5 -124t-71.5 -277q0 -350 270 -350q264 0 264 368zM617 989q158 0 251 -135.5t93 -361.5q0 -340 -161 -424t-290 -84q-231 0 -329.5 142.5t-98.5 338.5q0 311 9 379.5t13 89.5q68 318 420 461q33 14 77 30.5t88 35t86 34.5
t73 31l51 -107q-78 -42 -203 -93q-126 -50 -203 -91t-157 -122.5t-105 -297.5q2 0 5 -2q51 80 137 128t244 48z" />
    <glyph glyph-name="afii10067" unicode="&#x432;" horiz-adv-x="1017" 
d="M737 725q0 147 -200 147h-254v-297h268q86 0 136 42t50 108zM283 461v-334h280q103 0 155 47t52 117t-51 120t-156 50h-280zM903 729q0 -129 -121 -201q154 -62 154 -247q0 -124 -91 -202.5t-224 -78.5h-502v999h456q166 0 247 -70.5t81 -199.5z" />
    <glyph glyph-name="afii10068" unicode="&#x433;" horiz-adv-x="827" 
d="M119 0v999h698v-129h-534v-870h-164z" />
    <glyph glyph-name="afii10069" unicode="&#x434;" horiz-adv-x="1134" 
d="M801 127v745h-352l-5 -92q-14 -303 -39 -439t-96 -214h492zM1063 127v-406h-131v279h-768v-279h-133v406h98q97 86 120 214t29.5 234.5t14.5 239.5l10 184h664l-2 -872h98z" />
    <glyph glyph-name="afii10070" unicode="&#x435;" horiz-adv-x="1034" 
d="M540 1022q400 0 400 -477v-80h-670q0 -350 285 -350q139 0 319 71l41 -106q-176 -92 -372 -92q-245 0 -345 136t-100 348q0 417 172.5 483.5t269.5 66.5zM540 899q-131 0 -195 -89.5t-73 -236.5h510q0 238 -85.5 282t-156.5 44z" />
    <glyph glyph-name="afii10072" unicode="&#x436;" horiz-adv-x="1507" 
d="M672 0v477h-148q-166 0 -221 -153l-98 -324h-160l105 358q42 140 172 181q-98 49 -140 186l-76 272h154l76 -252q35 -124 101.5 -135.5t92.5 -11.5h142v401h164v-401h141q106 0 143 49t51 98l76 252h154l-76 -272q-41 -137 -139 -186q72 -23 111.5 -69t60.5 -112
l104 -358h-159l-99 322q-51 155 -221 155h-147v-477h-164z" />
    <glyph glyph-name="afii10073" unicode="&#x437;" horiz-adv-x="931" 
d="M435 1024q180 0 276 -66.5t96 -185.5q0 -86 -51 -143.5t-117 -77.5v-6q86 -23 140.5 -86.5t54.5 -150.5q0 -162 -123 -243t-310 -81q-100 0 -198.5 21.5t-155.5 49.5l39 107q162 -56 289 -56q293 0 293 203q0 93 -68.5 132.5t-161.5 39.5h-153v113h129q149 0 187 54
t38 112t-49 98.5t-156 40.5q-53 0 -121.5 -7t-183.5 -50l-35 106q161 76 341 76z" />
    <glyph glyph-name="afii10074" unicode="&#x438;" horiz-adv-x="1056" 
d="M938 0h-168v772h-6q-18 -35 -104 -170t-144.5 -227t-110 -172t-87 -136.5t-44.5 -66.5h-155v999h164v-759h8q25 37 47 75.5t86 136.5t129 200t107 167.5t68 105.5t48 74h160v-57v-249z" />
    <glyph glyph-name="afii10075" unicode="&#x439;" horiz-adv-x="1056" 
d="M528 1124q-171 0 -331 230l96 69q55 -78 118.5 -124t139.5 -46q114 0 276 156l56 -51q-163 -234 -355 -234zM938 0h-168v772h-6q-18 -35 -104 -170t-144.5 -227t-110 -172t-87 -136.5t-44.5 -66.5h-155v999h164v-759h8q25 37 47 75.5t86 136.5t129 200t107 167.5
t68 105.5t48 74h160v-57v-249z" />
    <glyph glyph-name="afii10076" unicode="&#x43a;" horiz-adv-x="999" 
d="M119 0v999h162v-401h184q106 0 143 49t51 98l76 252h154l-76 -272q-41 -137 -139 -186q72 -23 111.5 -69t60.5 -112l104 -358h-159l-99 322q-51 155 -221 155h-190v-477h-162z" />
    <glyph glyph-name="afii10077" unicode="&#x43b;" horiz-adv-x="1038" 
d="M752 0v872h-342l-7 -114q-10 -172 -19 -310.5t-41 -240t-98.5 -166t-189.5 -86.5l-39 127q84 31 129 76t65.5 122.5t27 195.5t14.5 292l10 231h658v-999h-168z" />
    <glyph glyph-name="afii10078" unicode="&#x43c;" horiz-adv-x="1318" 
d="M1042 0v715h-8q-23 -47 -46 -96t-60 -125t-89.5 -178.5t-107.5 -217.5h-119q-6 12 -28.5 55.5t-54 104.5t-69.5 131.5t-74 138.5t-64.5 125.5t-36.5 73.5h-9v-727h-157v999h182l248 -473q43 -84 75.5 -151.5t45.5 -91.5h4q4 8 15 32.5t28.5 60.5t39 81t46.5 94l223 448
h174v-999h-158z" />
    <glyph glyph-name="afii10079" unicode="&#x43d;" horiz-adv-x="1052" 
d="M768 0v469h-483v-469h-166v999h168v-399h481v399h166v-999h-166z" />
    <glyph glyph-name="afii10080" unicode="&#x43e;" horiz-adv-x="1081" 
d="M549 113q260 0 260 389t-260 389q-152 0 -214.5 -115t-62.5 -286t57.5 -274t219.5 -103zM878 130.5q-105 -146.5 -342 -146.5t-337.5 141.5t-100.5 365.5q0 223 110.5 376t341.5 153t332 -148t101 -371q0 -224 -105 -370.5z" />
    <glyph glyph-name="afii10081" unicode="&#x43f;" horiz-adv-x="1054" 
d="M766 0v872h-481v-872h-166v997h815l-2 -997h-166z" />
    <glyph glyph-name="afii10082" unicode="&#x440;" horiz-adv-x="1067" 
d="M546 106q109 0 180 95.5t71 314.5q0 286 -97.5 322t-140.5 36q-77 0 -159.5 -35t-112.5 -67v-594q60 -45 137.5 -58.5t121.5 -13.5zM592 1012q202 0 288.5 -138t86.5 -362q0 -370 -145.5 -450t-256.5 -80q-186 0 -280 69v-477h-166v1425h162l2 -88l10 -8q136 109 299 109
z" />
    <glyph glyph-name="afii10083" unicode="&#x441;" horiz-adv-x="933" 
d="M561 887q-137 0 -214 -104.5t-77 -278.5q0 -279 102.5 -332t209.5 -53t266 63l45 -110q-158 -84 -348 -84q-447 0 -447 499q0 345 158 440t313 95t275 -51l-39 -121q-107 37 -244 37z" />
    <glyph glyph-name="afii10084" unicode="&#x442;" horiz-adv-x="907" 
d="M373 870h-353v129h867v-129h-350v-870h-164v870z" />
    <glyph glyph-name="afii10085" unicode="&#x443;" horiz-adv-x="942" 
d="M208 -311q60 0 99 28.5t66 110.5l57 178h-80l-313 993h162l204 -686q20 -66 34 -120t22 -82h10l63 206q20 68 47 152t55 173t56.5 180t57.5 177h170q-192 -585 -269.5 -812.5t-119.5 -357.5t-109.5 -199.5t-183.5 -69.5q-23 2 -73 5t-143 29l27 117q101 -22 161 -22z" />
    <glyph glyph-name="afii10086" unicode="&#x444;" horiz-adv-x="1368" 
d="M244 496q0 -179 84.5 -281t275.5 -106v780q-291 -11 -325.5 -161t-34.5 -232zM1124 504q0 178 -80 279.5t-282 105.5v-780q362 14 362 395zM82 498q0 226 129.5 368t392.5 150l-2 436h160v-436q264 -4 394 -138t130 -364q0 -357 -190.5 -438.5t-333.5 -89.5v-414h-160
l2 414q-412 16 -467 210.5t-55 301.5z" />
    <glyph glyph-name="afii10087" unicode="&#x445;" horiz-adv-x="884" 
d="M848 999l-311 -473q86 -133 168.5 -263t168.5 -263h-186q-173 295 -248 418l-252 -418h-180l336 522q-78 119 -152.5 238t-152.5 239h186q55 -92 108.5 -185t108.5 -185l222 370h184z" />
    <glyph glyph-name="afii10088" unicode="&#x446;" horiz-adv-x="1116" 
d="M764 999h166v-872h121v-403h-133v276h-799v999h166v-872h479v872z" />
    <glyph glyph-name="afii10089" unicode="&#x447;" horiz-adv-x="999" 
d="M422 508q167 0 289 65v428h168v-1001h-168v449q-137 -76 -324 -76t-246 85.5t-59 231.5v309h168v-270q0 -119 24.5 -155.5t58.5 -51t89 -14.5z" />
    <glyph glyph-name="afii10090" unicode="&#x448;" horiz-adv-x="1466" 
d="M1182 999h166v-999h-1227v999h164v-872h360v872h166v-872h371v872z" />
    <glyph glyph-name="afii10091" unicode="&#x449;" horiz-adv-x="1509" 
d="M1182 999h166v-872h120v-403h-133v276h-1214v999h164v-872h360v872h166v-872h371v872z" />
    <glyph glyph-name="afii10092" unicode="&#x44a;" horiz-adv-x="1286" 
d="M569 522v-397h299q88 0 141.5 52t53.5 146t-60.5 146.5t-152.5 52.5h-281zM569 641h310q170 0 258 -94.5t88 -231.5t-94 -226t-234 -89h-491v872h-375v127h538v-358z" />
    <glyph glyph-name="afii10093" unicode="&#x44b;" horiz-adv-x="1329" 
d="M283 999v-358h309q170 0 258 -94.5t88 -231.5t-93 -226t-235 -89h-491v999h164zM283 522v-395h299q88 0 141 51t53 145t-60.5 146.5t-152.5 52.5h-280zM1044 0v999h166v-999h-166z" />
    <glyph glyph-name="afii10094" unicode="&#x44c;" horiz-adv-x="999" 
d="M283 999v-358h309q170 0 258 -94.5t88 -231.5t-93 -226t-235 -89h-491v999h164zM283 522v-395h299q88 0 141 51t53 145t-60.5 146.5t-152.5 52.5h-280z" />
    <glyph glyph-name="afii10095" unicode="&#x44d;" horiz-adv-x="940" 
d="M373 1022q263 0 366 -139t103 -344q0 -377 -165 -464t-277 -87q-211 0 -359 84l41 104q286 -106 438 -25t152 332l-418 -6v117l416 -10q-16 313 -285 313q-125 0 -258 -41l-37 105q132 61 283 61z" />
    <glyph glyph-name="afii10096" unicode="&#x44e;" horiz-adv-x="1431" 
d="M913 113q250 0 250 383q0 168 -36.5 244.5t-86 113.5t-160 37t-172 -115.5t-61.5 -286.5q0 -172 53.5 -274t212.5 -102zM119 0v999h164v-415h198q28 300 177.5 369t261.5 69q215 0 314 -150t99 -374q0 -351 -157.5 -432.5t-277.5 -81.5q-221 0 -319 135t-102 350h-194
v-469h-164z" />
    <glyph glyph-name="afii10097" unicode="&#x44f;" horiz-adv-x="1021" 
d="M133 705q0 127 89.5 210.5t252.5 83.5h428v-999h-164v416h-192q-84 0 -135.5 -27t-79.5 -115l-90 -274h-170l98 297q16 51 44 97t85 69v4q-166 57 -166 238zM295 711q0 -172 203 -172h241v333h-237q-90 0 -148.5 -35.5t-58.5 -125.5z" />
    <glyph glyph-name="afii10071" unicode="&#x451;" horiz-adv-x="1034" 
d="M420 1250q0 -40 -26.5 -65.5t-67.5 -25.5t-68 25.5t-27 64.5t29 64.5t68 25.5t65.5 -24.5t26.5 -64.5zM805 1250q0 -40 -28.5 -65.5t-69.5 -25.5t-66 25.5t-25 64.5t27 64.5t66 25.5t67.5 -24.5t28.5 -64.5zM540 1022q400 0 400 -477v-80h-670q0 -350 285 -350
q139 0 319 71l41 -106q-176 -92 -372 -92q-245 0 -345 136t-100 348q0 417 172.5 483.5t269.5 66.5zM540 899q-131 0 -195 -89.5t-73 -236.5h510q0 238 -85.5 282t-156.5 44z" />
    <glyph glyph-name="afii10099" unicode="&#x452;" horiz-adv-x="1048" 
d="M559 807q-116 0 -272 -74v-733h-168v1094h-109v90h109v272h168v-272h442v-90h-442v-236q174 80 313 80q176 0 268.5 -118t92.5 -369t-95 -379.5t-327 -128.5h-15q-16 0 -30 2l4 118q156 0 226.5 78t70.5 337t-91.5 294t-144.5 35z" />
    <glyph glyph-name="afii10100" unicode="&#x453;" horiz-adv-x="827" 
d="M383 1122l-74 64l252 332l119 -111zM119 0v999h698v-129h-534v-870h-164z" />
    <glyph glyph-name="afii10101" unicode="&#x454;" horiz-adv-x="952" 
d="M584.5 119q103.5 0 263.5 63l45 -110q-158 -84 -348 -84q-447 0 -447 499q0 345 158 440t313 95t275 -51l-39 -121q-107 37 -238 37t-206.5 -88t-88.5 -240l398 8v-112l-400 6q6 -244 108.5 -293t206 -49z" />
    <glyph glyph-name="afii10102" unicode="&#x455;" horiz-adv-x="913" 
d="M670 272q0 99 -86 130.5t-140 50.5t-190.5 68.5t-136.5 217.5q0 139 101 210t238 71q208 0 322 -72l-51 -117q-136 54 -262 54t-158.5 -53.5t-32.5 -90.5q0 -61 55.5 -91t137.5 -57q83 -27 145 -49t140.5 -75.5t78.5 -196.5q0 -142 -105.5 -213t-307.5 -71t-338 78
l53 114q150 -67 309 -67q228 0 228 159z" />
    <glyph glyph-name="afii10103" unicode="&#x456;" horiz-adv-x="520" 
d="M371 1264q0 -45 -33 -78t-78 -33t-77.5 33t-32.5 78t32.5 76.5t77.5 31.5t78 -31.5t33 -76.5zM174 0v999h166v-999h-166z" />
    <glyph glyph-name="afii10104" unicode="&#x457;" horiz-adv-x="520" 
d="M166 1236q0 -40 -26.5 -65.5t-67.5 -25.5t-68 25.5t-27 64.5t29 64.5t68 25.5t65.5 -24.5t26.5 -64.5zM551 1236q0 -40 -28.5 -65.5t-69.5 -25.5t-66 25.5t-25 64.5t27 64.5t66 25.5t67.5 -24.5t28.5 -64.5zM174 0v999h166v-999h-166z" />
    <glyph glyph-name="afii10105" unicode="&#x458;" horiz-adv-x="542" 
d="M170 1263q0 46 31.5 77.5t77 31.5t78 -31.5t32.5 -77.5t-32.5 -78t-78 -32t-77 32t-31.5 78zM193 27v972h165v-225l-2 -766q-8 -188 -85.5 -284.5t-270.5 -167.5q-9 18 -49 112q149 87 195.5 157t46.5 202z" />
    <glyph glyph-name="afii10106" unicode="&#x459;" horiz-adv-x="1572" 
d="M854 522v-395h301q88 0 141.5 51t53.5 145t-60.5 146.5t-152.5 52.5h-283zM854 645h311q169 0 257.5 -97t88.5 -234t-93 -225.5t-234 -88.5h-492v872h-305l-6 -114q-10 -172 -19.5 -310.5t-42 -241t-97 -166t-183.5 -85.5l-39 117q82 27 126 74t65.5 126.5t28.5 200.5
t16 295l10 231h608v-354z" />
    <glyph glyph-name="afii10107" unicode="&#x45a;" horiz-adv-x="1579" 
d="M862 498v-371h299q88 0 141.5 46t53.5 140t-60.5 139.5t-152.5 45.5h-281zM862 621h289q182 0 274.5 -86t92.5 -226t-92.5 -224.5t-235.5 -84.5h-490v500h-415v-500h-164l-2 999h166v-376h415l-2 376h164v-378z" />
    <glyph glyph-name="afii10108" unicode="&#x45b;" horiz-adv-x="1091" 
d="M971 639v-639h-166v598q0 118 -22.5 156.5t-57.5 53.5t-94 15q-133 0 -305 -98v-725h-168v1081h-148v97h148v278h166v-278h372v-97h-372v-237q216 117 360 117q180 0 233.5 -86.5t53.5 -235.5z" />
    <glyph glyph-name="afii10109" unicode="&#x45c;" horiz-adv-x="999" 
d="M119 0v999h162v-401h184q106 0 143 49t51 98l76 252h154l-76 -272q-41 -137 -139 -186q72 -23 111.5 -69t60.5 -112l104 -358h-159l-99 322q-51 155 -221 155h-190v-477h-162zM455 1096l-74 63l252 332l119 -111z" />
    <glyph glyph-name="afii10110" unicode="&#x45e;" horiz-adv-x="942" 
d="M459 1128q-139 0 -220 93.5t-112 136.5l96 69q55 -78 119 -124t140 -46q112 0 276 156l55 -51q-163 -234 -354 -234zM208 -311q60 0 99 28.5t66 110.5l57 178h-80l-313 993h162l204 -686q20 -66 34 -123t22 -86h10l63 213q20 68 47 152t55 173t56.5 180t57.5 177h170
q-192 -585 -269.5 -812.5t-119.5 -357.5t-109.5 -199.5t-183.5 -69.5q-23 2 -73 5t-143 29l27 117q101 -22 161 -22z" />
    <glyph glyph-name="afii10193" unicode="&#x45f;" horiz-adv-x="1050" 
d="M457 0h-338v999h168v-872h479v872h166v-999h-338v-295h-137v295z" />
    <glyph glyph-name="afii10050" unicode="&#x490;" horiz-adv-x="1062" 
d="M164 0v1401h727v264h135v-389h-688v-1276h-174z" />
    <glyph glyph-name="afii10098" unicode="&#x491;" horiz-adv-x="835" 
d="M676 1217h123v-345h-516v-872h-164v999h557v218z" />
    <glyph glyph-name="schwacyrillic" unicode="&#x4d9;" horiz-adv-x="993" 
d="M487 1022q247 0 344 -135.5t97 -374.5q0 -330 -149 -427t-267 -97t-186 26.5t-151 107.5t-83 343v76h666q0 352 -283 352q-143 0 -315 -70l-41 105q173 94 368 94zM491 117q131 0 193.5 90.5t71.5 232.5h-504q0 -236 84.5 -279.5t154.5 -43.5z" />
    <glyph glyph-name="Wgrave" unicode="&#x1e80;" horiz-adv-x="1714" 
d="M588 1778l123 112l252 -329l-80 -68zM1260 213q190 873 262 1188h172q-48 -208 -340 -1401h-205q-55 215 -111 416.5t-94 351.5t-57 225.5t-41 153.5l-15 2q-17 -83 -256 -1149h-210l-345 1401h181q231 -1026 268 -1190h10l74 334q25 115 49.5 221t48 210.5l47 209
t47.5 215.5h185l225 -846q13 -40 35 -126.5t36.5 -138.5t20.5 -77h13z" />
    <glyph glyph-name="wgrave" unicode="&#x1e81;" horiz-adv-x="1474" 
d="M465 1380l123 117l252 -332l-78 -69zM1069 166l74 305l143 528h168l-297 -999h-182l-146 463l-100 354h-10l-92 -354l-133 -463h-183l-293 999h168l142 -516l78 -317h10l84 330l143 503h162l166 -526l86 -307h12z" />
    <glyph glyph-name="Wacute" unicode="&#x1e82;" horiz-adv-x="1714" 
d="M872 1495l-77 64l252 329l122 -108zM1260 213q190 873 262 1188h172q-48 -208 -340 -1401h-205q-55 215 -111 416.5t-94 351.5t-57 225.5t-41 153.5l-15 2q-17 -83 -256 -1149h-210l-345 1401h181q231 -1026 268 -1190h10l74 334q25 115 49.5 221t48 210.5l47 209
t47.5 215.5h185l225 -846q13 -40 35 -126.5t36.5 -138.5t20.5 -77h13z" />
    <glyph glyph-name="wacute" unicode="&#x1e83;" horiz-adv-x="1474" 
d="M735 1096l-73 63l251 332l119 -111zM1069 166l74 305l143 528h168l-297 -999h-182l-146 463l-100 354h-10l-92 -354l-133 -463h-183l-293 999h168l142 -516l78 -317h10l84 330l143 503h162l166 -526l86 -307h12z" />
    <glyph glyph-name="Wdieresis" unicode="&#x1e84;" horiz-adv-x="1714" 
d="M1124 1579q0 -41 -28.5 -65.5t-68.5 -24.5t-64.5 24.5t-24.5 63.5t25.5 65.5t64.5 26.5t67.5 -24.5t28.5 -65.5zM741 1579q0 -41 -26.5 -65.5t-67.5 -24.5t-67.5 24.5t-26.5 63.5t27.5 65.5t66.5 26.5t66.5 -24.5t27.5 -65.5zM1260 213q190 873 262 1188h172
q-48 -208 -340 -1401h-205q-55 215 -111 416.5t-94 351.5t-57 225.5t-41 153.5l-15 2q-17 -83 -256 -1149h-210l-345 1401h181q231 -1026 268 -1190h10l74 334q25 115 49.5 221t48 210.5l47 209t47.5 215.5h185l225 -846q13 -40 35 -126.5t36.5 -138.5t20.5 -77h13z" />
    <glyph glyph-name="wdieresis" unicode="&#x1e85;" horiz-adv-x="1474" 
d="M627 1201q0 -40 -27 -65.5t-67.5 -25.5t-67.5 25.5t-27 64.5t29 64.5t67 25.5t65.5 -24.5t27.5 -64.5zM1012 1201q0 -40 -29 -65.5t-70 -25.5t-65.5 25.5t-24.5 64.5t27.5 64.5t65.5 25.5t67 -24.5t29 -64.5zM1069 166l74 305l143 528h168l-297 -999h-182l-146 463
l-100 354h-10l-92 -354l-133 -463h-183l-293 999h168l142 -516l78 -317h10l84 330l143 503h162l166 -526l86 -307h12z" />
    <glyph glyph-name="Ygrave" unicode="&#x1ef2;" horiz-adv-x="1097" 
d="M287 1763l123 113l252 -330l-80 -67zM633 0h-182v606l-431 797h183l192 -369l144 -284h8l155 297l195 356h178l-442 -789v-614z" />
    <glyph glyph-name="ygrave" unicode="&#x1ef3;" horiz-adv-x="942" 
d="M209 1380l123 117l252 -332l-78 -69zM208 -311q60 0 99 28.5t66 110.5l57 178h-80l-313 993h162l204 -686q20 -66 34 -123t22 -86h10l63 213q20 68 47 152t55 173t56.5 180t57.5 177h170q-192 -585 -269.5 -812.5t-119.5 -357.5t-109.5 -199.5t-183.5 -69.5q-23 2 -73 5
t-143 29l27 117q101 -22 161 -22z" />
    <glyph glyph-name="uni1F00" unicode="&#x1f00;" horiz-adv-x="1114" 
d="M649 1386q0 -49 -40 -118.5t-111 -120.5l-39 45q27 29 47 73t20 68q0 86 -108 107l39 123l24 14q168 -46 168 -191zM496 883q-54 0 -105 -33t-96 -109t-45 -217q0 -238 61.5 -321.5t184.5 -83.5q124 0 262 121l2 528q-67 67 -138.5 91t-125.5 24zM758 104
q-147 -120 -330 -120t-266.5 135.5t-83.5 361.5t100.5 379.5t308.5 153.5q159 0 283 -113l39 98h115v-874h120l9 -100q-77 -35 -145 -35q-69 0 -100.5 29.5t-41.5 82.5z" />
    <glyph glyph-name="uni1F01" unicode="&#x1f01;" horiz-adv-x="1114" 
d="M514 1337q0 -29 20.5 -72.5t47.5 -72.5l-37 -45q-74 51 -114 121t-40 130t42 108t126 71l25 -14l41 -123q-70 -12 -90.5 -43t-20.5 -60zM496 883q-54 0 -105 -33t-96 -109t-45 -217q0 -238 61.5 -321.5t184.5 -83.5q124 0 262 121l2 528q-67 67 -138.5 91t-125.5 24z
M758 104q-147 -120 -330 -120t-266.5 135.5t-83.5 361.5t100.5 379.5t308.5 153.5q159 0 283 -113l39 98h115v-874h120l9 -100q-77 -35 -145 -35q-69 0 -100.5 29.5t-41.5 82.5z" />
    <glyph glyph-name="uni1F02" unicode="&#x1f02;" horiz-adv-x="1114" 
d="M483 1524l135 67l156 -391l-74 -39zM479 1393q0 -47 -39 -117t-112 -121l-39 45q27 29 46 72.5t19 71.5t-19.5 59t-88.5 43l41 125l24 14q168 -43 168 -192zM496 883q-54 0 -105 -33t-96 -109t-45 -217q0 -238 61.5 -321.5t184.5 -83.5q124 0 262 121l2 528
q-67 67 -138.5 91t-125.5 24zM758 104q-147 -120 -330 -120t-266.5 135.5t-83.5 361.5t100.5 379.5t308.5 153.5q159 0 283 -113l39 98h115v-874h120l9 -100q-77 -35 -145 -35q-69 0 -100.5 29.5t-41.5 82.5z" />
    <glyph glyph-name="uni1F03" unicode="&#x1f03;" horiz-adv-x="1114" 
d="M692 1604l111 -406l-80 -31q-25 58 -174 383zM428 1343q0 -29 19.5 -72.5t46.5 -72.5l-37 -43q-104 70 -129 142.5t-25 95.5q0 145 170 192l23 -14q10 -31 20 -62.5t21 -62.5q-70 -12 -89.5 -43t-19.5 -60zM496 883q-54 0 -105 -33t-96 -109t-45 -217q0 -238 61.5 -321.5
t184.5 -83.5q124 0 262 121l2 528q-67 67 -138.5 91t-125.5 24zM758 104q-147 -120 -330 -120t-266.5 135.5t-83.5 361.5t100.5 379.5t308.5 153.5q159 0 283 -113l39 98h115v-874h120l9 -100q-77 -35 -145 -35q-69 0 -100.5 29.5t-41.5 82.5z" />
    <glyph glyph-name="uni1F04" unicode="&#x1f04;" horiz-adv-x="1114" 
d="M629 1153l-74 39l156 391l135 -67zM551 1393q0 -47 -39 -117t-113 -121l-39 45q27 29 46.5 72.5t19.5 71.5t-19.5 59t-89.5 43l41 125l25 14q168 -43 168 -192zM496 883q-54 0 -105 -33t-96 -109t-45 -217q0 -238 61.5 -321.5t184.5 -83.5q124 0 262 121l2 528
q-67 67 -138.5 91t-125.5 24zM758 104q-147 -120 -330 -120t-266.5 135.5t-83.5 361.5t100.5 379.5t308.5 153.5q159 0 283 -113l39 98h115v-874h120l9 -100q-77 -35 -145 -35q-69 0 -100.5 29.5t-41.5 82.5z" />
    <glyph glyph-name="uni1F05" unicode="&#x1f05;" horiz-adv-x="1114" 
d="M645 1151l-76 39l156 391q38 -18 135 -70zM449 1343q0 -29 19 -72.5t46 -72.5l-37 -43q-106 72 -129.5 143.5t-23.5 94.5q0 145 170 192l22 -14q10 -31 20.5 -62.5t20.5 -62.5q-70 -12 -89 -43t-19 -60zM496 883q-54 0 -105 -33t-96 -109t-45 -217q0 -238 61.5 -321.5
t184.5 -83.5q124 0 262 121l2 528q-67 67 -138.5 91t-125.5 24zM758 104q-147 -120 -330 -120t-266.5 135.5t-83.5 361.5t100.5 379.5t308.5 153.5q159 0 283 -113l39 98h115v-874h120l9 -100q-77 -35 -145 -35q-69 0 -100.5 29.5t-41.5 82.5z" />
    <glyph glyph-name="uni1F06" unicode="&#x1f06;" horiz-adv-x="1114" 
d="M524 1276q0 64 -104 78l35 100l26 12q168 -37 168 -149q0 -94 -149 -168l-37 37q61 56 61 90zM377 1675q53 0 130 -26.5t114.5 -39t66.5 -12.5l121 80l55 -39q-25 -68 -71 -110.5t-101 -42.5t-99 12t-85 26.5t-76 27t-65 12.5l-121 -78l-56 51q74 139 187 139zM496 883
q-54 0 -105 -33t-96 -109t-45 -217q0 -238 61.5 -321.5t184.5 -83.5q124 0 262 121l2 528q-67 67 -138.5 91t-125.5 24zM758 104q-147 -120 -330 -120t-266.5 135.5t-83.5 361.5t100.5 379.5t308.5 153.5q159 0 283 -113l39 98h115v-874h120l9 -100q-77 -35 -145 -35
q-69 0 -100.5 29.5t-41.5 82.5z" />
    <glyph glyph-name="uni1F07" unicode="&#x1f07;" horiz-adv-x="1114" 
d="M416 1317q0 115 170 145l24 -12l37 -98q-63 -8 -83.5 -27.5t-20.5 -50.5t61 -88l-37 -37q-151 84 -151 168zM403 1675q53 0 130 -26.5t115 -39t67 -12.5l121 80l55 -39q-25 -68 -71 -110.5t-101 -42.5t-99.5 12t-85 26.5t-75.5 27t-66 12.5l-121 -78l-55 51
q74 139 186 139zM496 883q-54 0 -105 -33t-96 -109t-45 -217q0 -238 61.5 -321.5t184.5 -83.5q124 0 262 121l2 528q-67 67 -138.5 91t-125.5 24zM758 104q-147 -120 -330 -120t-266.5 135.5t-83.5 361.5t100.5 379.5t308.5 153.5q159 0 283 -113l39 98h115v-874h120l9 -100
q-77 -35 -145 -35q-69 0 -100.5 29.5t-41.5 82.5z" />
    <glyph glyph-name="uni1F08" unicode="&#x1f08;" horiz-adv-x="1185" 
d="M209 1245q0 -49 -40 -118.5t-112 -120.5l-39 45q27 29 47.5 72.5t20.5 72.5t-20.5 59.5t-88.5 42.5l39 123l25 15q168 -46 168 -191zM825 500q-47 156 -94 312.5t-96 309.5l-41 138h-6l-41 -140q-23 -76 -45.5 -148.5t-64 -210t-81.5 -261.5h469zM20 0l463 1403h222
l458 -1403h-182q-52 165 -115 367h-553q-67 -212 -114 -367h-179z" />
    <glyph glyph-name="uni1F09" unicode="&#x1f09;" horiz-adv-x="1185" 
d="M104 1178q0 -28 20.5 -72.5t47.5 -73.5l-37 -45q-74 51 -113.5 121t-39.5 130t42 108.5t126 70.5l24 -14l41 -123q-70 -12 -90.5 -43t-20.5 -59zM825 500q-47 156 -94 312.5t-96 309.5l-41 138h-6l-41 -140q-23 -76 -45.5 -148.5t-64 -210t-81.5 -261.5h469zM20 0
l463 1403h222l458 -1403h-182q-52 165 -115 367h-553q-67 -212 -114 -367h-179z" />
    <glyph glyph-name="uni1F0A" unicode="&#x1f0a;" horiz-adv-x="1185" 
d="M-12 1356l135 67l156 -391l-74 -39zM-16 1225q0 -47 -39 -117t-113 -121l-39 45q27 29 46.5 72t19.5 72t-19.5 59.5t-89.5 42.5l41 125l25 14q168 -43 168 -192zM825 500q-47 156 -94 312.5t-96 309.5l-41 138h-6l-41 -140q-23 -76 -45.5 -148.5t-64 -210t-81.5 -261.5
h469zM20 0l463 1403h222l458 -1403h-182q-52 165 -115 367h-553q-67 -212 -114 -367h-179z" />
    <glyph glyph-name="uni1F0B" unicode="&#x1f0b;" horiz-adv-x="1185" 
d="M160 1432l110 -406l-80 -31q-25 58 -174 383zM-104 1171q0 -29 19 -72.5t46 -72.5l-37 -43q-106 72 -129.5 143.5t-23.5 94.5q0 145 170 192l22 -14q10 -31 20.5 -62.5t20.5 -62.5q-70 -12 -89 -43t-19 -60zM825 500q-47 156 -94 312.5t-96 309.5l-41 138h-6l-41 -140
q-23 -76 -45.5 -148.5t-64 -210t-81.5 -261.5h469zM20 0l463 1403h222l458 -1403h-182q-52 165 -115 367h-553q-67 -212 -114 -367h-179z" />
    <glyph glyph-name="uni1F0C" unicode="&#x1f0c;" horiz-adv-x="1185" 
d="M90 981l-74 39l156 391l135 -68zM12 1221q0 -47 -39 -117t-112 -121l-39 45q27 29 46 72.5t19 71.5t-19.5 59t-88.5 43l41 125l24 14q168 -43 168 -192zM825 500q-47 156 -94 312.5t-96 309.5l-41 138h-6l-41 -140q-23 -76 -45.5 -148.5t-64 -210t-81.5 -261.5h469zM20 0
l463 1403h222l458 -1403h-182q-52 165 -115 367h-553q-67 -212 -114 -367h-179z" />
    <glyph glyph-name="uni1F0D" unicode="&#x1f0d;" horiz-adv-x="1185" 
d="M96 981l-76 39l156 391q38 -18 135 -70zM-100 1173q0 -29 19.5 -72.5t45.5 -72.5l-37 -43q-106 72 -129.5 143.5t-23.5 94.5q0 145 170 192l22 -14q10 -31 20.5 -62.5t20.5 -62.5q-70 -12 -89 -43t-19 -60zM825 500q-47 156 -94 312.5t-96 309.5l-41 138h-6l-41 -140
q-23 -76 -45.5 -148.5t-64 -210t-81.5 -261.5h469zM20 0l463 1403h222l458 -1403h-182q-52 165 -115 367h-553q-67 -212 -114 -367h-179z" />
    <glyph glyph-name="uni1F0E" unicode="&#x1f0e;" horiz-adv-x="1185" 
d="M6 1008q0 63 -104 77l35 101l26 12q168 -37 168 -149q0 -93 -149 -168l-37 37q61 56 61 90zM-141 1407q48 0 67 -7l118 -38q97 -33 126 -33l121 80l55 -39q-25 -68 -71 -110.5t-101 -42.5q-75 0 -184 38.5t-142 38.5l-120 -77l-56 51q74 139 187 139zM825 500
q-47 156 -94 312.5t-96 309.5l-41 138h-6l-41 -140q-23 -76 -45.5 -148.5t-64 -210t-81.5 -261.5h469zM20 0l463 1403h222l458 -1403h-182q-52 165 -115 367h-553q-67 -212 -114 -367h-179z" />
    <glyph glyph-name="uni1F0F" unicode="&#x1f0f;" horiz-adv-x="1185" 
d="M4 1012q0 -37 62 -92l-37 -37q-152 84 -152 168q0 115 170 145l25 -12l37 -99q-105 -13 -105 -73zM-135 1409q48 0 67 -7l118 -38q97 -33 126 -33l121 80l55 -39q-25 -68 -71 -110.5t-101 -42.5q-75 0 -184 38.5t-141 38.5l-121 -77l-56 51q74 139 187 139zM825 500
q-47 156 -94 312.5t-96 309.5l-41 138h-6l-41 -140q-23 -76 -45.5 -148.5t-64 -210t-81.5 -261.5h469zM20 0l463 1403h222l458 -1403h-182q-52 165 -115 367h-553q-67 -212 -114 -367h-179z" />
    <glyph glyph-name="uni1F10" unicode="&#x1f10;" horiz-adv-x="899" 
d="M614 1386q0 -49 -39.5 -118.5t-111.5 -120.5l-39 45q27 29 47.5 73t20.5 68q0 86 -109 107l39 123l24 14q168 -46 168 -191zM511 -14q-198 0 -313.5 71t-115.5 224q0 96 55.5 161.5t132.5 89.5l2 7q-66 18 -119 67t-53 123q0 140 107 217.5t288 77.5t312 -53l-37 -113
q-139 43 -237 43t-140.5 -13.5t-81.5 -45t-39 -91.5q0 -99 58 -126t151 -27h137v-115h-139q-148 0 -186.5 -64.5t-38.5 -117.5q0 -192 272 -192q131 0 297 71l39 -102q-61 -35 -158.5 -63.5t-192.5 -28.5z" />
    <glyph glyph-name="uni1F11" unicode="&#x1f11;" horiz-adv-x="899" 
d="M473 1337q0 -29 20.5 -72.5t47.5 -72.5l-37 -45q-74 51 -114 121t-40 130t42 108t126 71l25 -14l41 -123q-70 -12 -90.5 -43t-20.5 -60zM511 -14q-198 0 -313.5 71t-115.5 224q0 96 55.5 161.5t132.5 89.5l2 7q-66 18 -119 67t-53 123q0 140 107 217.5t288 77.5t312 -53
l-37 -113q-139 43 -237 43t-140.5 -13.5t-81.5 -45t-39 -91.5q0 -99 58 -126t151 -27h137v-115h-139q-148 0 -186.5 -64.5t-38.5 -117.5q0 -192 272 -192q131 0 297 71l39 -102q-61 -35 -158.5 -63.5t-192.5 -28.5z" />
    <glyph glyph-name="uni1F12" unicode="&#x1f12;" horiz-adv-x="899" 
d="M475 1524l135 67l156 -391l-74 -39zM471 1393q0 -47 -39 -117t-113 -121l-38 45q27 29 46 72.5t19 71.5t-19.5 59t-88.5 43l41 125l24 14q168 -43 168 -192zM511 -14q-198 0 -313.5 71t-115.5 224q0 96 55.5 161.5t132.5 89.5l2 7q-66 18 -119 67t-53 123
q0 140 107 217.5t288 77.5t312 -53l-37 -113q-139 43 -237 43t-140.5 -13.5t-81.5 -45t-39 -91.5q0 -99 58 -126t151 -27h137v-115h-139q-148 0 -186.5 -64.5t-38.5 -117.5q0 -192 272 -192q131 0 297 71l39 -102q-61 -35 -158.5 -63.5t-192.5 -28.5z" />
    <glyph glyph-name="uni1F13" unicode="&#x1f13;" horiz-adv-x="899" 
d="M637 1604l111 -406l-80 -31q-25 58 -174 383zM373 1343q0 -29 19.5 -72.5t45.5 -72.5l-37 -43q-106 72 -129.5 143.5t-23.5 94.5q0 145 170 192l22 -14q10 -31 20.5 -62.5t20.5 -62.5q-70 -12 -89 -43t-19 -60zM511 -14q-198 0 -313.5 71t-115.5 224q0 96 55.5 161.5
t132.5 89.5l2 7q-66 18 -119 67t-53 123q0 140 107 217.5t288 77.5t312 -53l-37 -113q-139 43 -237 43t-140.5 -13.5t-81.5 -45t-39 -91.5q0 -99 58 -126t151 -27h137v-115h-139q-148 0 -186.5 -64.5t-38.5 -117.5q0 -192 272 -192q131 0 297 71l39 -102
q-61 -35 -158.5 -63.5t-192.5 -28.5z" />
    <glyph glyph-name="uni1F14" unicode="&#x1f14;" horiz-adv-x="899" 
d="M559 1153l-74 39l156 391l135 -67zM481 1393q0 -47 -39 -117t-112 -121l-39 45q27 29 46 72.5t19 71.5t-19.5 59t-88.5 43l41 125l24 14q168 -43 168 -192zM511 -14q-198 0 -313.5 71t-115.5 224q0 96 55.5 161.5t132.5 89.5l2 7q-66 18 -119 67t-53 123q0 140 107 217.5
t288 77.5t312 -53l-37 -113q-139 43 -237 43t-140.5 -13.5t-81.5 -45t-39 -91.5q0 -99 58 -126t151 -27h137v-115h-139q-148 0 -186.5 -64.5t-38.5 -117.5q0 -192 272 -192q131 0 297 71l39 -102q-61 -35 -158.5 -63.5t-192.5 -28.5z" />
    <glyph glyph-name="uni1F15" unicode="&#x1f15;" horiz-adv-x="899" 
d="M584 1151l-76 39l156 391q38 -18 135 -70zM387 1343q0 -29 19.5 -72.5t46.5 -72.5l-37 -43q-104 70 -129 142.5t-25 95.5q0 145 170 192l23 -14q10 -31 20 -62.5t21 -62.5q-70 -12 -89.5 -43t-19.5 -60zM511 -14q-198 0 -313.5 71t-115.5 224q0 96 55.5 161.5t132.5 89.5
l2 7q-66 18 -119 67t-53 123q0 140 107 217.5t288 77.5t312 -53l-37 -113q-139 43 -237 43t-140.5 -13.5t-81.5 -45t-39 -91.5q0 -99 58 -126t151 -27h137v-115h-139q-148 0 -186.5 -64.5t-38.5 -117.5q0 -192 272 -192q131 0 297 71l39 -102q-61 -35 -158.5 -63.5
t-192.5 -28.5z" />
    <glyph glyph-name="uni1F18" unicode="&#x1f18;" horiz-adv-x="1155" 
d="M-8 1241q0 -49 -40 -118.5t-112 -121.5l-39 46q27 29 47.5 72.5t20.5 72.5t-20.5 59.5t-88.5 42.5l39 123l25 15q168 -46 168 -191zM164 0v1401h854v-131h-680v-465h573v-127h-573v-545h713v-133h-887z" />
    <glyph glyph-name="uni1F19" unicode="&#x1f19;" horiz-adv-x="1155" 
d="M-113 1178q0 -28 20.5 -72.5t47.5 -73.5l-37 -45q-74 51 -114 121t-40 130t42 108.5t126 70.5l25 -14l41 -123q-70 -12 -90.5 -43t-20.5 -59zM164 0v1401h854v-131h-680v-465h573v-127h-573v-545h713v-133h-887z" />
    <glyph glyph-name="uni1F1A" unicode="&#x1f1a;" horiz-adv-x="1155" 
d="M-244 1368l135 68l156 -392l-74 -38zM-248 1237q0 -47 -39 -116.5t-112 -121.5l-39 45q27 29 46 72t19 72t-19.5 59.5t-88.5 42.5l41 125l24 15q168 -43 168 -193zM164 0v1401h854v-131h-680v-465h573v-127h-573v-545h713v-133h-887z" />
    <glyph glyph-name="uni1F1B" unicode="&#x1f1b;" horiz-adv-x="1155" 
d="M-72 1444l111 -406l-80 -30q-1 3 -174 383zM-336 1184q0 -28 19.5 -72.5t46.5 -73.5l-37 -43q-104 70 -129 142.5t-25 95.5q0 145 170 192l23 -14q10 -31 20 -62.5t21 -62.5q-70 -12 -89.5 -43t-19.5 -59zM164 0v1401h854v-131h-680v-465h573v-127h-573v-545h713v-133
h-887z" />
    <glyph glyph-name="uni1F1C" unicode="&#x1f1c;" horiz-adv-x="1155" 
d="M-213 993l-74 39l156 391l135 -67zM-291 1233q0 -47 -39 -116.5t-112 -121.5l-39 45q27 29 46 72t19 72t-19.5 59.5t-88.5 42.5l41 125l24 14q168 -43 168 -192zM164 0v1401h854v-131h-680v-465h573v-127h-573v-545h713v-133h-887z" />
    <glyph glyph-name="uni1F1D" unicode="&#x1f1d;" horiz-adv-x="1155" 
d="M-215 989l-76 39l156 391q8 -3 135 -69zM-412 1182q0 -28 19.5 -72.5t46.5 -73.5l-37 -43q-104 70 -129 142.5t-25 95.5q0 145 170 192l23 -14q10 -31 20.5 -62.5t20.5 -62.5q-70 -12 -89.5 -43t-19.5 -59zM164 0v1401h854v-131h-680v-465h573v-127h-573v-545h713v-133
h-887z" />
    <glyph glyph-name="uni1F20" unicode="&#x1f20;" horiz-adv-x="1052" 
d="M596 1386q0 -49 -40 -118.5t-112 -120.5l-38 45q27 29 47 73t20 68q0 86 -108 107l38 123l25 14q168 -46 168 -191zM291 909q179 113 363 113q166 0 222 -87t56 -235v-700h-166v659q0 119 -22.5 157t-57.5 53.5t-94 15.5q-131 0 -305 -99v-786h-168v999h166v-86z" />
    <glyph glyph-name="uni1F21" unicode="&#x1f21;" horiz-adv-x="1052" 
d="M485 1337q0 -29 20.5 -72.5t47.5 -72.5l-37 -45q-74 51 -114 121t-40 130t42 108t126 71l25 -14l41 -123q-70 -12 -90.5 -43t-20.5 -60zM291 909q179 113 363 113q166 0 222 -87t56 -235v-700h-166v659q0 119 -22.5 157t-57.5 53.5t-94 15.5q-131 0 -305 -99v-786h-168
v999h166v-86z" />
    <glyph glyph-name="uni1F22" unicode="&#x1f22;" horiz-adv-x="1052" 
d="M451 1524l135 67l155 -391l-73 -39zM322 1344q0 28 -19.5 59t-89.5 43l41 125l25 14q168 -43 167 -192q0 -47 -38.5 -117t-112.5 -121l-39 45q27 29 46.5 72.5t19.5 71.5zM291 909q179 113 363 113q166 0 222 -87t56 -235v-700h-166v659q0 119 -22.5 157t-57.5 53.5
t-94 15.5q-131 0 -305 -99v-786h-168v999h166v-86z" />
    <glyph glyph-name="uni1F23" unicode="&#x1f23;" horiz-adv-x="1052" 
d="M631 1604l110 -406l-79 -31q-12 27 -175 383zM367 1343q0 -29 19.5 -72.5t45.5 -72.5l-37 -43q-106 72 -129.5 143.5t-23.5 94.5q0 145 170 192l22 -14q10 -31 20.5 -62.5t20.5 -62.5q-70 -12 -89 -43t-19 -60zM291 909q179 113 363 113q166 0 222 -87t56 -235v-700h-166
v659q0 119 -22.5 157t-57.5 53.5t-94 15.5q-131 0 -305 -99v-786h-168v999h166v-86z" />
    <glyph glyph-name="uni1F24" unicode="&#x1f24;" horiz-adv-x="1052" 
d="M569 1153l-73 39l155 391l135 -67zM492 1393q0 -47 -39 -117t-113 -121l-39 45q27 29 46.5 72.5t19.5 71.5t-19.5 59t-89.5 43l41 125l25 14q168 -43 168 -192zM291 909q179 113 363 113q166 0 222 -87t56 -235v-700h-166v659q0 119 -22.5 157t-57.5 53.5t-94 15.5
q-131 0 -305 -99v-786h-168v999h166v-86z" />
    <glyph glyph-name="uni1F25" unicode="&#x1f25;" horiz-adv-x="1052" 
d="M580 1151l-76 39l155 391q45 -20 136 -70zM383 1343q0 -29 19.5 -72.5t46.5 -72.5l-37 -43q-104 70 -129 142.5t-25 95.5q0 145 170 192l23 -14q10 -31 20 -62.5t21 -62.5q-70 -12 -89.5 -43t-19.5 -60zM291 909q179 113 363 113q166 0 222 -87t56 -235v-700h-166v659
q0 119 -22.5 157t-57.5 53.5t-94 15.5q-131 0 -305 -99v-786h-168v999h166v-86z" />
    <glyph glyph-name="uni1F26" unicode="&#x1f26;" horiz-adv-x="1052" 
d="M477 1276q0 64 -104 78l35 100l26 12q168 -37 168 -149q0 -93 -149 -168l-37 37q61 56 61 90zM330 1675q53 0 130 -26.5t114.5 -39t66.5 -12.5l121 80l55 -39q-25 -68 -71 -110.5t-101 -42.5t-99 12t-85 26.5t-76 27t-66 12.5l-120 -78l-56 51q74 139 187 139zM291 909
q179 113 363 113q166 0 222 -87t56 -235v-700h-166v659q0 119 -22.5 157t-57.5 53.5t-94 15.5q-131 0 -305 -99v-786h-168v999h166v-86z" />
    <glyph glyph-name="uni1F27" unicode="&#x1f27;" horiz-adv-x="1052" 
d="M485 1276q0 -37 62 -92l-37 -37q-152 84 -152 168q0 115 170 145l25 -12l37 -98q-105 -13 -105 -74zM346 1673q53 0 130 -26.5t115 -39t66 -12.5l121 80l56 -39q-25 -68 -71.5 -110.5t-101.5 -42.5t-99 12t-85 26.5t-75.5 27t-65.5 12.5l-121 -78l-55 51q74 139 186 139z
M291 909q179 113 363 113q166 0 222 -87t56 -235v-700h-166v659q0 119 -22.5 157t-57.5 53.5t-94 15.5q-131 0 -305 -99v-786h-168v999h166v-86z" />
    <glyph glyph-name="uni1F28" unicode="&#x1f28;" horiz-adv-x="1337" 
d="M0 1243q0 -49 -40 -118.5t-112 -120.5l-38 45q27 29 47 72.5t20 72.5t-20.5 59.5t-87.5 42.5l38 123l25 15q168 -46 168 -191zM995 811v590h179v-1401h-179v670h-655l2 -670h-178v1401h178l-2 -590h655z" />
    <glyph glyph-name="uni1F29" unicode="&#x1f29;" horiz-adv-x="1337" 
d="M-113 1178q0 -28 20.5 -72.5t47.5 -73.5l-37 -45q-74 51 -114 121t-40 130t42 108.5t126 70.5l25 -14l41 -123q-70 -12 -90.5 -43t-20.5 -59zM995 811v590h179v-1401h-179v670h-655l2 -670h-178v1401h178l-2 -590h655z" />
    <glyph glyph-name="uni1F2A" unicode="&#x1f2a;" horiz-adv-x="1337" 
d="M-244 1354l135 67l156 -391l-74 -39zM-248 1223q0 -47 -39 -117t-112 -121l-39 45q27 29 46 72.5t19 71.5t-19.5 59t-88.5 43l41 125l24 14q168 -43 168 -192zM995 811v590h179v-1401h-179v670h-655l2 -670h-178v1401h178l-2 -590h655z" />
    <glyph glyph-name="uni1F2B" unicode="&#x1f2b;" horiz-adv-x="1337" 
d="M-72 1436l111 -406l-80 -31q-25 58 -174 383zM-336 1176q0 -28 19.5 -72.5t46.5 -73.5l-37 -43q-104 70 -129 142.5t-25 95.5q0 145 170 192l23 -14q10 -31 20 -62.5t21 -62.5q-70 -12 -89.5 -43t-19.5 -59zM995 811v590h179v-1401h-179v670h-655l2 -670h-178v1401h178
l-2 -590h655z" />
    <glyph glyph-name="uni1F2C" unicode="&#x1f2c;" horiz-adv-x="1337" 
d="M-172 983l-74 39l156 391l135 -67zM-250 1223q0 -47 -39 -117t-112 -121l-39 45q27 29 46 72.5t19 71.5t-19.5 59t-88.5 43l41 125l24 14q168 -43 168 -192zM995 811v590h179v-1401h-179v670h-655l2 -670h-178v1401h178l-2 -590h655z" />
    <glyph glyph-name="uni1F2D" unicode="&#x1f2d;" horiz-adv-x="1337" 
d="M-176 981l-76 39l156 391q38 -18 135 -70zM-373 1173q0 -29 19.5 -72.5t46.5 -72.5l-37 -43q-104 70 -129 142.5t-25 95.5q0 145 170 192l23 -14q10 -31 20.5 -62.5t20.5 -62.5q-70 -12 -89.5 -43t-19.5 -60zM995 811v590h179v-1401h-179v670h-655l2 -670h-178v1401h178
l-2 -590h655z" />
    <glyph glyph-name="uni1F2E" unicode="&#x1f2e;" horiz-adv-x="1337" 
d="M-295 1255.5q-109 38.5 -141 38.5l-121 -77l-55 51q74 139 186 139q48 0 127.5 -26.5t117.5 -39t66 -12.5l121 80l55 -39q-25 -68 -71 -110.5t-111 -42.5t-174 38.5zM-279 1008q0 63 -104 77l35 101l26 12q168 -37 168 -149q0 -94 -149 -168l-37 37q61 56 61 90zM995 811
v590h179v-1401h-179v670h-655l2 -670h-178v1401h178l-2 -590h655z" />
    <glyph glyph-name="uni1F2F" unicode="&#x1f2f;" horiz-adv-x="1337" 
d="M-98 1219q-55 0 -99.5 12t-85.5 26.5t-75.5 26.5t-65.5 12l-121 -77l-55 51q74 139 186 139q48 0 127.5 -26.5t117.5 -39t67 -12.5l120 80l56 -39q-25 -68 -71 -110.5t-101 -42.5zM-274 1012q0 -38 61 -92l-37 -37q-151 84 -151 168q0 115 170 145l24 -12l37 -99
q-104 -13 -104 -73zM995 811v590h179v-1401h-179v670h-655l2 -670h-178v1401h178l-2 -590h655z" />
    <glyph glyph-name="uni1F30" unicode="&#x1f30;" horiz-adv-x="489" 
d="M375 1386q0 -49 -40 -118.5t-112 -120.5l-39 45q27 29 47.5 73t20.5 68q0 86 -109 107l39 123l25 14q168 -46 168 -191zM292 -10q-149 0 -149 151v858h166v-874h121l8 -100q-77 -35 -146 -35z" />
    <glyph glyph-name="uni1F31" unicode="&#x1f31;" horiz-adv-x="489" 
d="M242 1337q0 -29 20.5 -72.5t46.5 -72.5l-37 -45q-74 51 -113.5 121t-39.5 130t42 108t126 71l24 -14l41 -123q-70 -12 -90 -43t-20 -60zM292 -10q-149 0 -149 151v858h166v-874h121l8 -100q-77 -35 -146 -35z" />
    <glyph glyph-name="uni1F32" unicode="&#x1f32;" horiz-adv-x="489" 
d="M170 1524l135 67l156 -391l-74 -39zM166 1393q0 -47 -39 -117t-113 -121l-39 45q27 29 46.5 72.5t19.5 71.5t-19.5 59t-89.5 43l41 125l25 14q168 -43 168 -192zM292 -10q-149 0 -149 151v858h166v-874h121l8 -100q-77 -35 -146 -35z" />
    <glyph glyph-name="uni1F33" unicode="&#x1f33;" horiz-adv-x="489" 
d="M346 1608l111 -406l-80 -31q-25 58 -174 383zM82 1348q0 -28 19.5 -72.5t45.5 -73.5l-36 -43q-107 72 -130.5 143.5t-23.5 94.5q0 145 170 192l23 -14q10 -31 20 -62.5t20 -62.5q-70 -12 -89 -43t-19 -59zM292 -10q-149 0 -149 151v858h166v-874h121l8 -100
q-77 -35 -146 -35z" />
    <glyph glyph-name="uni1F34" unicode="&#x1f34;" horiz-adv-x="489" 
d="M311 1153l-73 39l155 391l135 -67zM109 1344q0 28 -19.5 59t-89.5 43l41 125l25 14q168 -43 167 -192q0 -47 -38.5 -117t-112.5 -121l-39 45q27 29 46.5 72.5t19.5 71.5zM292 -10q-149 0 -149 151v858h166v-874h121l8 -100q-77 -35 -146 -35z" />
    <glyph glyph-name="uni1F35" unicode="&#x1f35;" horiz-adv-x="489" 
d="M307 1151l-76 39l156 391q38 -18 135 -70zM111 1343q0 -29 19.5 -72.5t45.5 -72.5l-37 -43q-106 72 -129.5 143.5t-23.5 94.5q0 145 170 192l22 -14q10 -31 20.5 -62.5t20.5 -62.5q-70 -12 -89 -43t-19 -60zM292 -10q-149 0 -149 151v858h166v-874h121l8 -100
q-77 -35 -146 -35z" />
    <glyph glyph-name="uni1F36" unicode="&#x1f36;" horiz-adv-x="489" 
d="M82 1675q53 0 130 -26.5t115 -39t66 -12.5l121 80l55 -39q-25 -68 -71 -110.5t-101 -42.5t-99 12t-85 26.5t-76 27t-65 12.5l-121 -78l-55 51q74 139 186 139zM229 1276q0 64 -104 78l35 100l26 12q168 -37 168 -149q0 -94 -149 -168l-37 37q61 56 61 90zM292 -10
q-149 0 -149 151v858h166v-874h121l8 -100q-77 -35 -146 -35z" />
    <glyph glyph-name="uni1F37" unicode="&#x1f37;" horiz-adv-x="489" 
d="M80 1675q53 0 130 -26.5t114.5 -39t66.5 -12.5l121 80l55 -39q-25 -68 -71 -110.5t-101 -42.5t-99 12t-85 26.5t-76 27t-65 12.5l-121 -78l-55 51q74 139 186 139zM219 1278q0 -37 62 -92l-37 -37q-152 84 -152 168q0 115 170 145l25 -12l37 -98q-105 -13 -105 -74z
M292 -10q-149 0 -149 151v858h166v-874h121l8 -100q-77 -35 -146 -35z" />
    <glyph glyph-name="uni1F38" unicode="&#x1f38;" horiz-adv-x="540" 
d="M4 1241q0 -49 -40 -118.5t-111 -121.5l-39 46q27 29 47 72.5t20 72.5t-20.5 59.5t-87.5 42.5l39 123l24 15q168 -46 168 -191zM184 0v1403h172v-1403h-172z" />
    <glyph glyph-name="uni1F39" unicode="&#x1f39;" horiz-adv-x="540" 
d="M-98 1180q0 -28 20.5 -72.5t46.5 -73.5l-37 -45q-74 51 -113.5 121t-39.5 130t42 108.5t126 70.5l24 -14l41 -123q-70 -12 -90 -43t-20 -59zM184 0v1403h172v-1403h-172z" />
    <glyph glyph-name="uni1F3A" unicode="&#x1f3a;" horiz-adv-x="540" 
d="M-227 1354l135 67l155 -391l-73 -39zM-231 1223q0 -47 -39 -117t-113 -121l-39 45q27 29 46.5 72.5t19.5 71.5t-19.5 59t-89.5 43l41 125l25 14q168 -43 168 -192zM184 0v1403h172v-1403h-172z" />
    <glyph glyph-name="uni1F3B" unicode="&#x1f3b;" horiz-adv-x="540" 
d="M-61 1434l110 -406l-80 -31q-25 58 -174 383zM-326 1173q0 -29 19.5 -72.5t46.5 -72.5l-37 -43q-104 70 -129 142.5t-25 95.5q0 145 170 192l23 -14q10 -31 20.5 -62.5t20.5 -62.5q-70 -12 -89.5 -43t-19.5 -60zM184 0v1403h172v-1403h-172z" />
    <glyph glyph-name="uni1F3C" unicode="&#x1f3c;" horiz-adv-x="540" 
d="M-162 983l-74 39l156 391l135 -67zM-240 1223q0 -47 -38.5 -117t-112.5 -121l-39 45q27 29 46 72.5t19 71.5t-19 59t-89 43l41 125l24 14q168 -43 168 -192zM184 0v1403h172v-1403h-172z" />
    <glyph glyph-name="uni1F3D" unicode="&#x1f3d;" horiz-adv-x="540" 
d="M-172 981l-76 39l156 391q38 -18 135 -70zM-369 1173q0 -29 19.5 -72.5t46.5 -72.5l-37 -43q-104 70 -129 142.5t-25 95.5q0 145 170 192l23 -14q10 -31 20.5 -62.5t20.5 -62.5q-70 -12 -89.5 -43t-19.5 -60zM184 0v1403h172v-1403h-172z" />
    <glyph glyph-name="uni1F3E" unicode="&#x1f3e;" horiz-adv-x="540" 
d="M-403 1411q47 0 126.5 -26.5t117.5 -39t67 -12.5l121 80l55 -39q-25 -68 -71 -110.5t-101 -42.5q-75 0 -184 38.5t-142 38.5l-121 -77l-55 51q74 139 187 139zM-256 1012q0 63 -104 78l34 100l27 12q168 -37 168 -149q0 -93 -150 -168l-36 37q61 56 61 90zM184 0v1403
h172v-1403h-172z" />
    <glyph glyph-name="uni1F3F" unicode="&#x1f3f;" horiz-adv-x="540" 
d="M-410 1409q48 0 127.5 -26.5t117.5 -39t67 -12.5l121 80l55 -39q-25 -68 -71 -110.5t-101 -42.5q-77 0 -184.5 38.5t-141.5 38.5l-121 -77l-55 51q74 139 186 139zM-270 1012q0 -38 61 -92l-37 -37q-151 84 -151 168q0 115 170 145l24 -12l37 -99q-104 -13 -104 -73z
M184 0v1403h172v-1403h-172z" />
    <glyph glyph-name="uni1F40" unicode="&#x1f40;" horiz-adv-x="1081" 
d="M643 1386q0 -49 -40 -118.5t-111 -120.5l-39 45q27 29 47 73t20 68q0 86 -108 107l39 123l24 14q168 -46 168 -191zM549 113q260 0 260 389t-260 389q-152 0 -214.5 -115t-62.5 -286t57.5 -274t219.5 -103zM878 130.5q-105 -146.5 -342 -146.5t-337.5 141.5t-100.5 365.5
q0 223 110.5 376t341.5 153t332 -148t101 -371q0 -224 -105 -370.5z" />
    <glyph glyph-name="uni1F41" unicode="&#x1f41;" horiz-adv-x="1081" 
d="M559 1337q0 -29 20.5 -72.5t47.5 -72.5l-37 -45q-74 51 -114 121t-40 130t42 108t126 71l25 -14l41 -123q-70 -12 -90.5 -43t-20.5 -60zM549 113q260 0 260 389t-260 389q-152 0 -214.5 -115t-62.5 -286t57.5 -274t219.5 -103zM878 130.5q-105 -146.5 -342 -146.5
t-337.5 141.5t-100.5 365.5q0 223 110.5 376t341.5 153t332 -148t101 -371q0 -224 -105 -370.5z" />
    <glyph glyph-name="uni1F42" unicode="&#x1f42;" horiz-adv-x="1081" 
d="M532 1524l136 67l155 -391l-73 -39zM528 1393q0 -47 -38.5 -117t-112.5 -121l-39 45q27 29 46 72.5t19 71.5t-19 59t-89 43l41 125l24 14q168 -43 168 -192zM549 113q260 0 260 389t-260 389q-152 0 -214.5 -115t-62.5 -286t57.5 -274t219.5 -103zM878 130.5
q-105 -146.5 -342 -146.5t-337.5 141.5t-100.5 365.5q0 223 110.5 376t341.5 153t332 -148t101 -371q0 -224 -105 -370.5z" />
    <glyph glyph-name="uni1F43" unicode="&#x1f43;" horiz-adv-x="1081" 
d="M713 1604l110 -406l-80 -31q-25 58 -174 383zM449 1343q0 -29 19 -72.5t46 -72.5l-37 -43q-106 72 -129.5 143.5t-23.5 94.5q0 145 170 192l22 -14q10 -31 20.5 -62.5t20.5 -62.5q-70 -12 -89 -43t-19 -60zM549 113q260 0 260 389t-260 389q-152 0 -214.5 -115
t-62.5 -286t57.5 -274t219.5 -103zM878 130.5q-105 -146.5 -342 -146.5t-337.5 141.5t-100.5 365.5q0 223 110.5 376t341.5 153t332 -148t101 -371q0 -224 -105 -370.5z" />
    <glyph glyph-name="uni1F44" unicode="&#x1f44;" horiz-adv-x="1081" 
d="M678 1153l-74 39l156 391l135 -67zM600 1393q0 -47 -39 -117t-112 -121l-39 45q27 29 46 72.5t19 71.5t-19.5 59t-88.5 43l41 125l24 14q168 -43 168 -192zM549 113q260 0 260 389t-260 389q-152 0 -214.5 -115t-62.5 -286t57.5 -274t219.5 -103zM878 130.5
q-105 -146.5 -342 -146.5t-337.5 141.5t-100.5 365.5q0 223 110.5 376t341.5 153t332 -148t101 -371q0 -224 -105 -370.5z" />
    <glyph glyph-name="uni1F45" unicode="&#x1f45;" horiz-adv-x="1081" 
d="M645 1151l-76 39l156 391q38 -18 135 -70zM449 1343q0 -29 19 -72.5t46 -72.5l-37 -43q-106 72 -129.5 143.5t-23.5 94.5q0 145 170 192l22 -14q10 -31 20.5 -62.5t20.5 -62.5q-70 -12 -89 -43t-19 -60zM549 113q260 0 260 389t-260 389q-152 0 -214.5 -115t-62.5 -286
t57.5 -274t219.5 -103zM878 130.5q-105 -146.5 -342 -146.5t-337.5 141.5t-100.5 365.5q0 223 110.5 376t341.5 153t332 -148t101 -371q0 -224 -105 -370.5z" />
    <glyph glyph-name="uni1F48" unicode="&#x1f48;" horiz-adv-x="1429" 
d="M18 1245q0 -49 -39.5 -118.5t-111.5 -120.5l-39 45q27 29 47.5 72.5t20.5 72.5t-20.5 59.5t-88.5 42.5l39 123l24 15q168 -46 168 -191zM1124 690q0 602 -410.5 602t-410.5 -604q0 -281 98.5 -426t309.5 -145t312 159.5t101 413.5zM123 690q0 510 218 621.5t385 111.5
q313 0 447 -203t134 -521q0 -319 -151.5 -517t-430.5 -198q-602 0 -602 706z" />
    <glyph glyph-name="uni1F49" unicode="&#x1f49;" horiz-adv-x="1429" 
d="M-76 1178q0 -28 20.5 -72.5t47.5 -73.5l-37 -45q-74 51 -114 121t-40 130t42 108.5t126 70.5l25 -14l41 -123q-70 -12 -90.5 -43t-20.5 -59zM1124 690q0 602 -410.5 602t-410.5 -604q0 -281 98.5 -426t309.5 -145t312 159.5t101 413.5zM123 690q0 510 218 621.5
t385 111.5q313 0 447 -203t134 -521q0 -319 -151.5 -517t-430.5 -198q-602 0 -602 706z" />
    <glyph glyph-name="uni1F4A" unicode="&#x1f4a;" horiz-adv-x="1429" 
d="M-207 1352l135 67l156 -391l-74 -39zM-211 1221q0 -47 -39 -117t-112 -121l-39 45q27 29 46 72.5t19 71.5t-19.5 59t-88.5 43l41 125l24 14q168 -43 168 -192zM1124 690q0 602 -410.5 602t-410.5 -604q0 -281 98.5 -426t309.5 -145t312 159.5t101 413.5zM123 690
q0 510 218 621.5t385 111.5q313 0 447 -203t134 -521q0 -319 -151.5 -517t-430.5 -198q-602 0 -602 706z" />
    <glyph glyph-name="uni1F4B" unicode="&#x1f4b;" horiz-adv-x="1429" 
d="M-43 1434l111 -406l-80 -31q-25 58 -174 383zM-307 1173q0 -29 19.5 -72.5t45.5 -72.5l-37 -43q-106 72 -129.5 143.5t-23.5 94.5q0 145 170 192l22 -14q10 -31 20.5 -62.5t20.5 -62.5q-70 -12 -89 -43t-19 -60zM1124 690q0 602 -410.5 602t-410.5 -604q0 -281 98.5 -426
t309.5 -145t312 159.5t101 413.5zM123 690q0 510 218 621.5t385 111.5q313 0 447 -203t134 -521q0 -319 -151.5 -517t-430.5 -198q-602 0 -602 706z" />
    <glyph glyph-name="uni1F4C" unicode="&#x1f4c;" horiz-adv-x="1429" 
d="M-111 983l-73 39l155 391l135 -67zM-188 1223q0 -47 -39 -117t-113 -121l-39 45q27 29 46.5 72.5t19.5 71.5t-19.5 59t-89.5 43l41 125l25 14q168 -43 168 -192zM1124 690q0 602 -410.5 602t-410.5 -604q0 -281 98.5 -426t309.5 -145t312 159.5t101 413.5zM123 690
q0 510 218 621.5t385 111.5q313 0 447 -203t134 -521q0 -319 -151.5 -517t-430.5 -198q-602 0 -602 706z" />
    <glyph glyph-name="uni1F4D" unicode="&#x1f4d;" horiz-adv-x="1429" 
d="M-115 983l-75 39l155 391q54 -24 135 -70zM-311 1176q0 -28 19.5 -72.5t45.5 -73.5l-37 -43q-106 72 -129.5 143.5t-23.5 94.5q0 145 170 192l22 -14q10 -31 20.5 -62.5t20.5 -62.5q-70 -12 -89 -43t-19 -59zM1124 690q0 602 -410.5 602t-410.5 -604q0 -281 98.5 -426
t309.5 -145t312 159.5t101 413.5zM123 690q0 510 218 621.5t385 111.5q313 0 447 -203t134 -521q0 -319 -151.5 -517t-430.5 -198q-602 0 -602 706z" />
    <glyph glyph-name="uni1F50" unicode="&#x1f50;" horiz-adv-x="1054" 
d="M674 1386q0 -49 -40 -118.5t-112 -120.5l-39 45q27 29 47.5 73t20.5 68q0 86 -109 107l39 123l25 14q168 -46 168 -191zM932 999v-608q0 -178 -108.5 -290.5t-305.5 -112.5t-296 104.5t-99 272.5v634h168v-634q0 -109 50 -176.5t176 -67.5t185.5 74.5t59.5 187.5v616h170
z" />
    <glyph glyph-name="uni1F51" unicode="&#x1f51;" horiz-adv-x="1054" 
d="M530 1337q0 -29 20.5 -72.5t47.5 -72.5l-37 -45q-74 51 -113.5 121t-39.5 130t42 108t125 71l25 -14l41 -123q-70 -12 -90.5 -43t-20.5 -60zM932 999v-608q0 -178 -108.5 -290.5t-305.5 -112.5t-296 104.5t-99 272.5v634h168v-634q0 -109 50 -176.5t176 -67.5t185.5 74.5
t59.5 187.5v616h170z" />
    <glyph glyph-name="uni1F52" unicode="&#x1f52;" horiz-adv-x="1054" 
d="M512 1524l135 67l156 -391l-74 -39zM508 1393q0 -47 -39 -117t-113 -121l-39 45q27 29 46.5 72.5t19.5 71.5t-19.5 59t-89.5 43l41 125l25 14q168 -43 168 -192zM932 999v-608q0 -178 -108.5 -290.5t-305.5 -112.5t-296 104.5t-99 272.5v634h168v-634q0 -109 50 -176.5
t176 -67.5t185.5 74.5t59.5 187.5v616h170z" />
    <glyph glyph-name="uni1F53" unicode="&#x1f53;" horiz-adv-x="1054" 
d="M649 1604l111 -406l-80 -31q-25 58 -174 383zM385 1343q0 -29 19.5 -72.5t46.5 -72.5l-37 -43q-104 70 -129 142.5t-25 95.5q0 145 170 192l23 -14q10 -31 20 -62.5t21 -62.5q-70 -12 -89.5 -43t-19.5 -60zM932 999v-608q0 -178 -108.5 -290.5t-305.5 -112.5t-296 104.5
t-99 272.5v634h168v-634q0 -109 50 -176.5t176 -67.5t185.5 74.5t59.5 187.5v616h170z" />
    <glyph glyph-name="uni1F54" unicode="&#x1f54;" horiz-adv-x="1054" 
d="M625 1153l-74 39l156 391l135 -67zM547 1393q0 -47 -39 -117t-113 -121l-39 45q27 29 46.5 72.5t19.5 71.5t-19.5 59t-89.5 43l41 125l25 14q168 -43 168 -192zM932 999v-608q0 -178 -108.5 -290.5t-305.5 -112.5t-296 104.5t-99 272.5v634h168v-634q0 -109 50 -176.5
t176 -67.5t185.5 74.5t59.5 187.5v616h170z" />
    <glyph glyph-name="uni1F55" unicode="&#x1f55;" horiz-adv-x="1054" 
d="M600 1151l-76 39l156 391q38 -18 135 -70zM403 1343q0 -29 19.5 -72.5t46.5 -72.5l-37 -43q-106 72 -129.5 143.5t-23.5 94.5q0 145 170 192l22 -14q10 -31 20.5 -62.5t20.5 -62.5q-70 -12 -89.5 -43t-19.5 -60zM932 999v-608q0 -178 -108.5 -290.5t-305.5 -112.5
t-296 104.5t-99 272.5v634h168v-634q0 -109 50 -176.5t176 -67.5t185.5 74.5t59.5 187.5v616h170z" />
    <glyph glyph-name="uni1F56" unicode="&#x1f56;" horiz-adv-x="1054" 
d="M346 1673q53 0 130 -26.5t115 -39t66 -12.5l121 80l56 -39q-25 -68 -71.5 -110.5t-101.5 -42.5t-99 12t-85 26.5t-75.5 27t-65.5 12.5l-121 -78l-55 51q74 139 186 139zM494 1274q0 63 -105 78l35 100l27 12q168 -37 167 -149q0 -94 -149 -168l-37 37q27 25 44.5 46
t17.5 44zM932 999v-608q0 -178 -108.5 -290.5t-305.5 -112.5t-296 104.5t-99 272.5v634h168v-634q0 -109 50 -176.5t176 -67.5t185.5 74.5t59.5 187.5v616h170z" />
    <glyph glyph-name="uni1F57" unicode="&#x1f57;" horiz-adv-x="1054" 
d="M373 1673q53 0 130 -26.5t114.5 -39t66.5 -12.5l121 80l55 -39q-25 -68 -71 -110.5t-101 -42.5t-99 12t-85 26.5t-76 27t-66 12.5l-120 -78l-56 51q74 139 187 139zM385 1315q0 115 170 145l25 -12l36 -98q-63 -8 -83.5 -27.5t-20.5 -50.5t61 -88l-36 -37
q-152 84 -152 168zM932 999v-608q0 -178 -108.5 -290.5t-305.5 -112.5t-296 104.5t-99 272.5v634h168v-634q0 -109 50 -176.5t176 -67.5t185.5 74.5t59.5 187.5v616h170z" />
    <glyph glyph-name="uni1F59" unicode="&#x1f59;" horiz-adv-x="1097" 
d="M-184 1178q0 -28 20.5 -72.5t46.5 -73.5l-37 -45q-74 51 -113.5 121t-39.5 130t42 108.5t126 70.5l24 -14l41 -123q-70 -12 -90 -43t-20 -59zM633 0h-182v606l-431 797h183l192 -369l144 -284h8l155 297l195 356h178l-442 -789v-614z" />
    <glyph glyph-name="uni1F5B" unicode="&#x1f5b;" horiz-adv-x="1097" 
d="M-115 1434l111 -406l-80 -31q-25 58 -174 383zM-379 1173q0 -29 19.5 -72.5t46.5 -72.5l-37 -43q-104 70 -129 142.5t-25 95.5q0 145 170 192l23 -14q10 -31 20 -62.5t21 -62.5q-70 -12 -89.5 -43t-19.5 -60zM633 0h-182v606l-431 797h183l192 -369l144 -284h8l155 297
l195 356h178l-442 -789v-614z" />
    <glyph glyph-name="uni1F5D" unicode="&#x1f5d;" horiz-adv-x="1097" 
d="M-244 981l-75 39l155 391q54 -24 135 -70zM-440 1173q0 -29 19.5 -72.5t45.5 -72.5l-37 -43q-106 72 -129.5 143.5t-23.5 94.5q0 145 170 192l22 -14q10 -31 20.5 -62.5t20.5 -62.5q-70 -12 -89 -43t-19 -60zM633 0h-182v606l-431 797h183l192 -369l144 -284h8l155 297
l195 356h178l-442 -789v-614z" />
    <glyph glyph-name="uni1F5F" unicode="&#x1f5f;" horiz-adv-x="1097" 
d="M-195 1217q-55 0 -99 12t-85 26.5t-75.5 26.5t-65.5 12l-121 -77l-55 51q74 139 186 139q48 0 127.5 -26.5t117.5 -39t66 -12.5l121 80l55 -39q-25 -68 -71 -110.5t-101 -42.5zM-371 1010q0 -37 62 -92l-37 -37q-152 84 -152 168q0 115 170 145l25 -12l37 -99
q-105 -13 -105 -73zM633 0h-182v606l-431 797h183l192 -369l144 -284h8l155 297l195 356h178l-442 -789v-614z" />
    <glyph glyph-name="uni1F60" unicode="&#x1f60;" horiz-adv-x="1495" 
d="M877 1386q0 -49 -40 -118.5t-112 -120.5l-39 45q27 29 47.5 73t20.5 68q0 86 -109 107l39 123l25 14q168 -46 168 -191zM748 143q-82 -157 -290 -157q-203 0 -290.5 137.5t-87.5 368.5q0 306 121 403.5t213 120.5l35 -111q-203 -100 -203 -416q0 -167 33.5 -236
t81 -101.5t110.5 -32.5q108 0 157.5 60t49.5 145v364h153l3 -364q0 -136 65.5 -170.5t110.5 -34.5q239 0 239 370q0 323 -205 416l37 111q173 -43 253.5 -185.5t80.5 -338.5q0 -344 -144.5 -425t-246.5 -81t-172 43t-98 114h-6z" />
    <glyph glyph-name="uni1F61" unicode="&#x1f61;" horiz-adv-x="1495" 
d="M725 1337q0 -29 20.5 -72.5t47.5 -72.5l-37 -45q-74 51 -114 121t-40 130t42 108t126 71l25 -14l41 -123q-70 -12 -90.5 -43t-20.5 -60zM748 143q-82 -157 -290 -157q-203 0 -290.5 137.5t-87.5 368.5q0 306 121 403.5t213 120.5l35 -111q-203 -100 -203 -416
q0 -167 33.5 -236t81 -101.5t110.5 -32.5q108 0 157.5 60t49.5 145v364h153l3 -364q0 -136 65.5 -170.5t110.5 -34.5q239 0 239 370q0 323 -205 416l37 111q173 -43 253.5 -185.5t80.5 -338.5q0 -344 -144.5 -425t-246.5 -81t-172 43t-98 114h-6z" />
    <glyph glyph-name="uni1F62" unicode="&#x1f62;" horiz-adv-x="1495" 
d="M748 1524l135 67l155 -391l-73 -39zM743 1393q0 -47 -38.5 -117t-112.5 -121l-39 45q27 29 46 72.5t19 71.5t-19 59t-89 43l41 125l24 14q168 -43 168 -192zM748 143q-82 -157 -290 -157q-203 0 -290.5 137.5t-87.5 368.5q0 306 121 403.5t213 120.5l35 -111
q-203 -100 -203 -416q0 -167 33.5 -236t81 -101.5t110.5 -32.5q108 0 157.5 60t49.5 145v364h153l3 -364q0 -136 65.5 -170.5t110.5 -34.5q239 0 239 370q0 323 -205 416l37 111q173 -43 253.5 -185.5t80.5 -338.5q0 -344 -144.5 -425t-246.5 -81t-172 43t-98 114h-6z" />
    <glyph glyph-name="uni1F63" unicode="&#x1f63;" horiz-adv-x="1495" 
d="M911 1604l111 -406l-80 -31q-25 58 -174 383zM647 1343q0 -29 19.5 -72.5t46.5 -72.5l-37 -43q-104 70 -129 142.5t-25 95.5q0 145 170 192l23 -14q10 -31 20 -62.5t21 -62.5q-70 -12 -89.5 -43t-19.5 -60zM748 143q-82 -157 -290 -157q-203 0 -290.5 137.5t-87.5 368.5
q0 306 121 403.5t213 120.5l35 -111q-203 -100 -203 -416q0 -167 33.5 -236t81 -101.5t110.5 -32.5q108 0 157.5 60t49.5 145v364h153l3 -364q0 -136 65.5 -170.5t110.5 -34.5q239 0 239 370q0 323 -205 416l37 111q173 -43 253.5 -185.5t80.5 -338.5q0 -344 -144.5 -425
t-246.5 -81t-172 43t-98 114h-6z" />
    <glyph glyph-name="uni1F64" unicode="&#x1f64;" horiz-adv-x="1495" 
d="M872 1153l-73 39l155 391l136 -67zM795 1393q0 -47 -39 -117t-113 -121l-39 45q27 29 46.5 72.5t19.5 71.5t-19.5 59t-89.5 43l41 125l25 14q168 -43 168 -192zM748 143q-82 -157 -290 -157q-203 0 -290.5 137.5t-87.5 368.5q0 306 121 403.5t213 120.5l35 -111
q-203 -100 -203 -416q0 -167 33.5 -236t81 -101.5t110.5 -32.5q108 0 157.5 60t49.5 145v364h153l3 -364q0 -136 65.5 -170.5t110.5 -34.5q239 0 239 370q0 323 -205 416l37 111q173 -43 253.5 -185.5t80.5 -338.5q0 -344 -144.5 -425t-246.5 -81t-172 43t-98 114h-6z" />
    <glyph glyph-name="uni1F65" unicode="&#x1f65;" horiz-adv-x="1495" 
d="M838 1151l-76 39l156 391q38 -18 135 -70zM641 1343q0 -29 19.5 -72.5t46.5 -72.5l-37 -43q-104 70 -129 142.5t-25 95.5q0 145 170 192l23 -14q10 -31 20 -62.5t21 -62.5q-70 -12 -89.5 -43t-19.5 -60zM748 143q-82 -157 -290 -157q-203 0 -290.5 137.5t-87.5 368.5
q0 306 121 403.5t213 120.5l35 -111q-203 -100 -203 -416q0 -167 33.5 -236t81 -101.5t110.5 -32.5q108 0 157.5 60t49.5 145v364h153l3 -364q0 -136 65.5 -170.5t110.5 -34.5q239 0 239 370q0 323 -205 416l37 111q173 -43 253.5 -185.5t80.5 -338.5q0 -344 -144.5 -425
t-246.5 -81t-172 43t-98 114h-6z" />
    <glyph glyph-name="uni1F66" unicode="&#x1f66;" horiz-adv-x="1495" 
d="M602 1614q48 0 127.5 -26.5t117.5 -39t66 -12.5l121 80l56 -39q-25 -68 -71.5 -111t-101.5 -43t-99 12.5t-85 27t-75.5 26.5t-65.5 12l-121 -78l-55 52q74 139 186 139zM750 1214q0 64 -105 78l35 101l27 12q168 -37 167 -150q0 -94 -149 -168l-37 37q62 57 62 90z
M748 143q-82 -157 -290 -157q-203 0 -290.5 137.5t-87.5 368.5q0 306 121 403.5t213 120.5l35 -111q-203 -100 -203 -416q0 -167 33.5 -236t81 -101.5t110.5 -32.5q108 0 157.5 60t49.5 145v364h153l3 -364q0 -136 65.5 -170.5t110.5 -34.5q239 0 239 370q0 323 -205 416
l37 111q173 -43 253.5 -185.5t80.5 -338.5q0 -344 -144.5 -425t-246.5 -81t-172 43t-98 114h-6z" />
    <glyph glyph-name="uni1F67" unicode="&#x1f67;" horiz-adv-x="1495" 
d="M606 1638q53 0 165 -38.5t147 -38.5l120 79l56 -38q-25 -68 -71.5 -111t-101.5 -43t-99 12.5t-85 26.5t-75.5 26.5t-65.5 12.5l-121 -78l-55 51q74 139 186 139zM745 1241q0 -35 62 -92l-37 -37q-152 84 -152 168q0 115 170 145l25 -12l37 -98q-105 -13 -105 -74z
M748 143q-82 -157 -290 -157q-203 0 -290.5 137.5t-87.5 368.5q0 306 121 403.5t213 120.5l35 -111q-203 -100 -203 -416q0 -167 33.5 -236t81 -101.5t110.5 -32.5q108 0 157.5 60t49.5 145v364h153l3 -364q0 -136 65.5 -170.5t110.5 -34.5q239 0 239 370q0 323 -205 416
l37 111q173 -43 253.5 -185.5t80.5 -338.5q0 -344 -144.5 -425t-246.5 -81t-172 43t-98 114h-6z" />
    <glyph glyph-name="uni1F68" unicode="&#x1f68;" horiz-adv-x="1423" 
d="M47 1241q0 -49 -40 -118.5t-111 -121.5l-39 46q27 29 47 72.5t20 72.5t-20.5 59.5t-87.5 42.5l39 123l24 15q168 -46 168 -191zM1124 721q0 569 -403 569q-219 0 -319.5 -153.5t-100.5 -411.5q0 -387 97.5 -478t176.5 -110v-137h-497v127h225l2 4q-155 113 -168.5 308
t-13.5 311t32.5 243t146.5 279.5t420 152.5q307 0 446 -196t139 -500q0 -435 -207 -598l4 -4h239v-127h-503v135q284 68 284 586z" />
    <glyph glyph-name="uni1F69" unicode="&#x1f69;" horiz-adv-x="1423" 
d="M-41 1159q0 -29 20.5 -73t47.5 -72l-37 -45q-74 51 -114 121t-40 130t42 108t126 71l25 -15l41 -122q-70 -12 -90.5 -43t-20.5 -60zM1124 721q0 569 -403 569q-219 0 -319.5 -153.5t-100.5 -411.5q0 -387 97.5 -478t176.5 -110v-137h-497v127h225l2 4
q-155 113 -168.5 308t-13.5 311t32.5 243t146.5 279.5t420 152.5q307 0 446 -196t139 -500q0 -435 -207 -598l4 -4h239v-127h-503v135q284 68 284 586z" />
    <glyph glyph-name="uni1F6A" unicode="&#x1f6a;" horiz-adv-x="1423" 
d="M-190 1352l135 67l155 -391l-73 -39zM-319 1172q0 28 -19.5 59t-89.5 43l41 125l25 14q168 -43 167 -192q0 -47 -38.5 -117t-112.5 -121l-39 45q27 29 46.5 72.5t19.5 71.5zM1124 721q0 569 -403 569q-219 0 -319.5 -153.5t-100.5 -411.5q0 -387 97.5 -478t176.5 -110
v-137h-497v127h225l2 4q-155 113 -168.5 308t-13.5 311t32.5 243t146.5 279.5t420 152.5q307 0 446 -196t139 -500q0 -435 -207 -598l4 -4h239v-127h-503v135q284 68 284 586z" />
    <glyph glyph-name="uni1F6B" unicode="&#x1f6b;" horiz-adv-x="1423" 
d="M-20 1434l110 -406l-80 -31q-25 58 -174 383zM-285 1173q0 -29 19.5 -72.5t46.5 -72.5l-37 -43q-104 70 -129 142.5t-25 95.5q0 145 170 192l23 -14q10 -31 20.5 -62.5t20.5 -62.5q-70 -12 -89.5 -43t-19.5 -60zM1124 721q0 569 -403 569q-219 0 -319.5 -153.5
t-100.5 -411.5q0 -387 97.5 -478t176.5 -110v-137h-497v127h225l2 4q-155 113 -168.5 308t-13.5 311t32.5 243t146.5 279.5t420 152.5q307 0 446 -196t139 -500q0 -435 -207 -598l4 -4h239v-127h-503v135q284 68 284 586z" />
    <glyph glyph-name="uni1F6C" unicode="&#x1f6c;" horiz-adv-x="1423" 
d="M-51 981l-74 39l156 391l135 -68zM-129 1221q0 -47 -39 -117t-113 -121l-38 45q27 29 46 72.5t19 71.5t-19.5 59t-88.5 43l40 125l25 14q168 -43 168 -192zM1124 721q0 569 -403 569q-219 0 -319.5 -153.5t-100.5 -411.5q0 -387 97.5 -478t176.5 -110v-137h-497v127h225
l2 4q-155 113 -168.5 308t-13.5 311t32.5 243t146.5 279.5t420 152.5q307 0 446 -196t139 -500q0 -435 -207 -598l4 -4h239v-127h-503v135q284 68 284 586z" />
    <glyph glyph-name="uni1F6D" unicode="&#x1f6d;" horiz-adv-x="1423" 
d="M-49 977l-76 39l156 391q38 -18 135 -70zM-246 1169q0 -29 19.5 -72.5t46.5 -72.5l-37 -43q-104 70 -129 142.5t-25 95.5q0 145 170 192l23 -14q10 -31 20.5 -62.5t20.5 -62.5q-70 -12 -89.5 -43t-19.5 -60zM1124 721q0 569 -403 569q-219 0 -319.5 -153.5t-100.5 -411.5
q0 -387 97.5 -478t176.5 -110v-137h-497v127h225l2 4q-155 113 -168.5 308t-13.5 311t32.5 243t146.5 279.5t420 152.5q307 0 446 -196t139 -500q0 -435 -207 -598l4 -4h239v-127h-503v135q284 68 284 586z" />
    <glyph glyph-name="uni1F6E" unicode="&#x1f6e;" horiz-adv-x="1423" 
d="M-188 1261.5q-109 38.5 -142 38.5l-121 -77l-55 51q74 139 187 139q52 0 129 -26.5t115 -39t67 -12.5l121 80l55 -39q-25 -68 -71 -110.5t-111 -42.5t-174 38.5zM-172 1014q0 63 -104 78l34 100l27 12q168 -37 168 -149q0 -93 -150 -168l-36 37q61 56 61 90zM1124 721
q0 569 -403 569q-219 0 -319.5 -153.5t-100.5 -411.5q0 -387 97.5 -478t176.5 -110v-137h-497v127h225l2 4q-155 113 -168.5 308t-13.5 311t32.5 243t146.5 279.5t420 152.5q307 0 446 -196t139 -500q0 -435 -207 -598l4 -4h239v-127h-503v135q284 68 284 586z" />
    <glyph glyph-name="uni1F6F" unicode="&#x1f6f;" horiz-adv-x="1423" 
d="M-315 1407q47 0 126.5 -26.5t117.5 -39t67 -12.5l121 80l55 -39q-25 -68 -71 -110.5t-101 -42.5q-75 0 -184 38.5t-142 38.5l-120 -77l-56 51q74 139 187 139zM-176 1010q0 -36 61 -92l-37 -37q-151 84 -151 168q0 115 170 145l24 -12l37 -99q-104 -13 -104 -73z
M1124 721q0 569 -403 569q-219 0 -319.5 -153.5t-100.5 -411.5q0 -387 97.5 -478t176.5 -110v-137h-497v127h225l2 4q-155 113 -168.5 308t-13.5 311t32.5 243t146.5 279.5t420 152.5q307 0 446 -196t139 -500q0 -435 -207 -598l4 -4h239v-127h-503v135q284 68 284 586z" />
    <glyph glyph-name="uni1F70" unicode="&#x1f70;" horiz-adv-x="1114" 
d="M305 1503l162 82l190 -438l-82 -43zM496 883q-54 0 -105 -33t-96 -109t-45 -217q0 -238 61.5 -321.5t184.5 -83.5q124 0 262 121l2 528q-67 67 -138.5 91t-125.5 24zM758 104q-147 -120 -330 -120t-266.5 135.5t-83.5 361.5t100.5 379.5t308.5 153.5q159 0 283 -113
l39 98h115v-874h120l9 -100q-77 -35 -145 -35q-69 0 -100.5 29.5t-41.5 82.5z" />
    <glyph glyph-name="uni1F71" unicode="&#x1f71;" horiz-adv-x="1114" 
d="M514 1104l-82 39l189 438l163 -78zM496 883q-54 0 -105 -33t-96 -109t-45 -217q0 -238 61.5 -321.5t184.5 -83.5q124 0 262 121l2 528q-67 67 -138.5 91t-125.5 24zM758 104q-147 -120 -330 -120t-266.5 135.5t-83.5 361.5t100.5 379.5t308.5 153.5q159 0 283 -113l39 98
h115v-874h120l9 -100q-77 -35 -145 -35q-69 0 -100.5 29.5t-41.5 82.5z" />
    <glyph glyph-name="uni1F72" unicode="&#x1f72;" horiz-adv-x="899" 
d="M244 1503l162 82l190 -438l-82 -43zM511 -14q-198 0 -313.5 71t-115.5 224q0 96 55.5 161.5t132.5 89.5l2 7q-66 18 -119 67t-53 123q0 140 107 217.5t288 77.5t312 -53l-37 -113q-139 43 -237 43t-140.5 -13.5t-81.5 -45t-39 -91.5q0 -99 58 -126t151 -27h137v-115h-139
q-148 0 -186.5 -64.5t-38.5 -117.5q0 -192 272 -192q131 0 297 71l39 -102q-61 -35 -158.5 -63.5t-192.5 -28.5z" />
    <glyph glyph-name="uni1F73" unicode="&#x1f73;" horiz-adv-x="899" 
d="M455 1104l-82 39l188 438l164 -78zM511 -14q-198 0 -313.5 71t-115.5 224q0 96 55.5 161.5t132.5 89.5l2 7q-66 18 -119 67t-53 123q0 140 107 217.5t288 77.5t312 -53l-37 -113q-139 43 -237 43t-140.5 -13.5t-81.5 -45t-39 -91.5q0 -99 58 -126t151 -27h137v-115h-139
q-148 0 -186.5 -64.5t-38.5 -117.5q0 -192 272 -192q131 0 297 71l39 -102q-61 -35 -158.5 -63.5t-192.5 -28.5z" />
    <glyph glyph-name="uni1F74" unicode="&#x1f74;" horiz-adv-x="1052" 
d="M221 1503l162 82l190 -438l-81 -43zM291 909q179 113 363 113q166 0 222 -87t56 -235v-700h-166v659q0 119 -22.5 157t-57.5 53.5t-94 15.5q-131 0 -305 -99v-786h-168v999h166v-86z" />
    <glyph glyph-name="uni1F75" unicode="&#x1f75;" horiz-adv-x="1052" 
d="M453 1104l-82 39l188 438l164 -78zM291 909q179 113 363 113q166 0 222 -87t56 -235v-700h-166v659q0 119 -22.5 157t-57.5 53.5t-94 15.5q-131 0 -305 -99v-786h-168v999h166v-86z" />
    <glyph glyph-name="uni1F76" unicode="&#x1f76;" horiz-adv-x="489" 
d="M-45 1503l162 82l190 -438l-82 -43zM292 -10q-149 0 -149 151v858h166v-874h121l8 -100q-77 -35 -146 -35z" />
    <glyph glyph-name="uni1F77" unicode="&#x1f77;" horiz-adv-x="489" 
d="M231 1104l-81 39l188 438l164 -78zM292 -10q-149 0 -149 151v858h166v-874h121l8 -100q-77 -35 -146 -35z" />
    <glyph glyph-name="uni1F78" unicode="&#x1f78;" horiz-adv-x="1081" 
d="M303 1503l162 82l190 -438l-82 -43zM549 113q260 0 260 389t-260 389q-152 0 -214.5 -115t-62.5 -286t57.5 -274t219.5 -103zM878 130.5q-105 -146.5 -342 -146.5t-337.5 141.5t-100.5 365.5q0 223 110.5 376t341.5 153t332 -148t101 -371q0 -224 -105 -370.5z" />
    <glyph glyph-name="uni1F79" unicode="&#x1f79;" horiz-adv-x="1081" 
d="M541 1104l-82 39l188 438l164 -78zM549 113q260 0 260 389t-260 389q-152 0 -214.5 -115t-62.5 -286t57.5 -274t219.5 -103zM878 130.5q-105 -146.5 -342 -146.5t-337.5 141.5t-100.5 365.5q0 223 110.5 376t341.5 153t332 -148t101 -371q0 -224 -105 -370.5z" />
    <glyph glyph-name="uni1F7A" unicode="&#x1f7a;" horiz-adv-x="1054" 
d="M256 1503l162 82l190 -438l-82 -43zM932 999v-608q0 -178 -108.5 -290.5t-305.5 -112.5t-296 104.5t-99 272.5v634h168v-634q0 -109 50 -176.5t176 -67.5t185.5 74.5t59.5 187.5v616h170z" />
    <glyph glyph-name="uni1F7B" unicode="&#x1f7b;" horiz-adv-x="1054" 
d="M489 1104l-81 39l188 438l164 -78zM932 999v-608q0 -178 -108.5 -290.5t-305.5 -112.5t-296 104.5t-99 272.5v634h168v-634q0 -109 50 -176.5t176 -67.5t185.5 74.5t59.5 187.5v616h170z" />
    <glyph glyph-name="uni1F7C" unicode="&#x1f7c;" horiz-adv-x="1495" 
d="M485 1503l162 82l191 -438l-82 -43zM748 143q-82 -157 -290 -157q-203 0 -290.5 137.5t-87.5 368.5q0 306 121 403.5t213 120.5l35 -111q-203 -100 -203 -416q0 -167 33.5 -236t81 -101.5t110.5 -32.5q108 0 157.5 60t49.5 145v364h153l3 -364q0 -136 65.5 -170.5
t110.5 -34.5q239 0 239 370q0 323 -205 416l37 111q173 -43 253.5 -185.5t80.5 -338.5q0 -344 -144.5 -425t-246.5 -81t-172 43t-98 114h-6z" />
    <glyph glyph-name="uni1F7D" unicode="&#x1f7d;" horiz-adv-x="1495" 
d="M739 1104l-82 39l189 438l164 -78zM748 143q-82 -157 -290 -157q-203 0 -290.5 137.5t-87.5 368.5q0 306 121 403.5t213 120.5l35 -111q-203 -100 -203 -416q0 -167 33.5 -236t81 -101.5t110.5 -32.5q108 0 157.5 60t49.5 145v364h153l3 -364q0 -136 65.5 -170.5
t110.5 -34.5q239 0 239 370q0 323 -205 416l37 111q173 -43 253.5 -185.5t80.5 -338.5q0 -344 -144.5 -425t-246.5 -81t-172 43t-98 114h-6z" />
    <glyph glyph-name="uni1F80" unicode="&#x1f80;" horiz-adv-x="1114" 
d="M684 1386q0 -49 -40 -118.5t-112 -120.5l-38 45q27 29 47 73t20 68q0 86 -108 107l39 123l24 14q168 -46 168 -191zM615 -537q-68 0 -102 26t-36 108v266h137v-277h154v-86q-85 -37 -153 -37zM496 883q-54 0 -105 -33t-96 -109t-45 -217q0 -238 61.5 -321.5t184.5 -83.5
q124 0 262 121l2 528q-67 67 -138.5 91t-125.5 24zM758 104q-147 -120 -330 -120t-266.5 135.5t-83.5 361.5t100.5 379.5t308.5 153.5q159 0 283 -113l39 98h115v-874h120l9 -100q-77 -35 -145 -35q-69 0 -100.5 29.5t-41.5 82.5z" />
    <glyph glyph-name="uni1F81" unicode="&#x1f81;" horiz-adv-x="1114" 
d="M569 1337q0 -29 20.5 -72.5t47.5 -72.5l-37 -45q-74 51 -114 121t-40 130t42 108t126 71l25 -14l41 -123q-70 -12 -90.5 -43t-20.5 -60zM615 -537q-68 0 -102 26t-36 108v266h137v-277h154v-86q-85 -37 -153 -37zM496 883q-54 0 -105 -33t-96 -109t-45 -217
q0 -238 61.5 -321.5t184.5 -83.5q124 0 262 121l2 528q-67 67 -138.5 91t-125.5 24zM758 104q-147 -120 -330 -120t-266.5 135.5t-83.5 361.5t100.5 379.5t308.5 153.5q159 0 283 -113l39 98h115v-874h120l9 -100q-77 -35 -145 -35q-69 0 -100.5 29.5t-41.5 82.5z" />
    </font>
</defs>
</svg>
