<?xml version="1.0" encoding="UTF-8" standalone="no"?>
<!-- Generator: Adobe Illustrator 15.0.0, SVG Export Plug-In . SVG Version: 6.00 Build 0)  -->
<svg id="Layer_1" xmlns:rdf="http://www.w3.org/1999/02/22-rdf-syntax-ns#" xmlns="http://www.w3.org/2000/svg" enable-background="new 0 0 308.922 51.999" xml:space="preserve" height="51.999px" viewBox="0 0 308.922 51.999" width="308.92px" version="1.1" y="0px" x="0px" xmlns:cc="http://creativecommons.org/ns#" xmlns:dc="http://purl.org/dc/elements/1.1/"><metadata id="metadata121"><rdf:RDF><cc:Work rdf:about=""><dc:format>image/svg+xml</dc:format><dc:type rdf:resource="http://purl.org/dc/dcmitype/StillImage"/><dc:title/></cc:Work></rdf:RDF></metadata><g id="g3"><g id="g59"><g id="g61"><g id="g4249" transform="translate(12.285 -92.965)"><path id="path63" d="m-2.7657 107.42c-0.772 0-1.478 0.252-2.123 0.76-0.652 0.513-0.977 1.016-0.977 1.525v12.413 5.884h-6.421v-5.884-10.393c0-2.869 0.706-5.141 2.12-6.806 1.417-1.674 3.707-2.511 6.886-2.511h9.12v5.013h-8.605z" fill="#4e4e4e"/><path id="path4278" fill="#4e4e4e" d="m10.261 128v-25.595h6.084v25.594h-6.084z"/><path id="path65" fill="#bcba33" d="m10.383 98.816v-5.663h5.853v5.663h-5.853z"/><g fill="#4e4e4e"><path id="path67" d="m58.037 128c0 1.816-0.17 3.34-0.506 4.574-0.351 1.234-0.887 2.234-1.612 2.992-0.724 0.766-1.659 1.312-2.814 1.641-1.134 0.324-2.52 0.486-4.129 0.486h-6.36v-5.013h6.139c0.725 0 1.323-0.051 1.777-0.159 0.455-0.113 0.815-0.302 1.062-0.574 0.242-0.271 0.404-0.658 0.485-1.17 0.081-0.506 0.117-1.145 0.117-1.904v-0.873h-21.914c-2.754 0-4.859-0.627-6.311-1.879-1.453-1.254-2.178-3.273-2.178-6.071v-9.693c0-1.596 0.171-2.903 0.519-3.919 0.342-1.016 0.857-1.823 1.551-2.424 0.682-0.598 1.56-1.014 2.637-1.252 1.063-0.234 2.325-0.354 3.782-0.354h27.755v6.807 18.785zm-5.842-18.514c0-0.726-0.135-1.252-0.404-1.581-0.27-0.324-0.788-0.486-1.557-0.486h-20.411c-0.768 0-1.282 0.163-1.552 0.486-0.265 0.329-0.401 0.855-0.401 1.581v11.435c0 0.726 0.136 1.255 0.401 1.58 0.27 0.328 0.784 0.487 1.552 0.487h20.411c0.769 0 1.288-0.159 1.557-0.487 0.269-0.325 0.404-0.854 0.404-1.58v-11.435z"/><path id="path69" d="m94.29 128v-5.884-12.852c0-0.648-0.103-1.12-0.288-1.41-0.192-0.29-0.646-0.435-1.38-0.435h-20.357c-0.842 0-1.426 0.154-1.755 0.462-0.324 0.306-0.481 0.862-0.481 1.656v12.579 5.884h-6.085v-5.884-13.827-15.141h6.134l-0.049 9.257h23.51c2.335 0.072 4.053 0.619 5.167 1.636 1.106 1.02 1.661 2.763 1.661 5.223v11.221 7.515h-6.077z"/><path id="path71" d="m113.12 128c-1.08 0-2.095-0.119-3.077-0.354-0.971-0.236-1.821-0.653-2.546-1.252-0.732-0.598-1.312-1.417-1.75-2.451-0.44-1.037-0.661-2.348-0.661-3.949v-23.139h6.077v5.551h10.215v5.013h-10.215v13.502c0 0.837 0.149 1.392 0.437 1.657 0.279 0.277 1.042 0.41 2.263 0.41h6.475 1.783v5.012h-9.001z"/><path id="path75" d="m134.57 128c-3.098 0-5.293-0.671-6.57-2.016-1.279-1.34-1.921-3.321-1.921-5.935v-9.693c0-1.23 0.14-2.34 0.399-3.322 0.266-0.978 0.725-1.81 1.382-2.502 0.642-0.691 1.515-1.216 2.604-1.58 1.093-0.363 2.461-0.547 4.106-0.547h21.45v5.013h-20.365c-1.107 0-1.9 0.201-2.384 0.598-0.473 0.401-0.712 1.073-0.712 2.017v10.342c0 0.947 0.239 1.617 0.712 2.015 0.484 0.401 1.276 0.599 2.384 0.599h20.594v5.012h-21.679z"/><path id="path77" d="m161.29 128v-34.852h6.085v34.852h-6.085z"/><path id="path4282" d="m172.04 128v-25.595h6.071v25.594h-6.071z"/></g><path id="path79" fill="#bcba33" d="m172.16 98.816v-5.663h5.847v5.663h-5.847z"/><path id="path81" d="m191.28 128c-3.088 0-5.285-0.671-6.563-2.016-1.286-1.34-1.925-3.321-1.925-5.935v-9.693c0-1.23 0.141-2.34 0.404-3.322 0.267-0.978 0.725-1.81 1.377-2.502 0.652-0.691 1.52-1.216 2.608-1.58 1.09-0.363 2.455-0.547 4.098-0.547h21.456v5.013h-20.361c-1.107 0-1.9 0.201-2.386 0.598-0.472 0.401-0.718 1.073-0.718 2.017v10.342c0 0.947 0.246 1.617 0.718 2.015 0.485 0.401 1.278 0.599 2.386 0.599h20.598v5.012h-21.692z" fill="#4e4e4e"/><path id="path85" d="m293.99 113.45-10.899-11.379h-19.124c-1.896 1.858-3.685 3.585-4.397 4.201l-3.112 2.683c-1.728 1.486-2.591 3.031-2.58 4.633 0.009 1.601 0.992 3.427 2.964 5.486l11.864 12.4c0.692 0.718 1.034 1.273 1.052 1.665 0.01 0.393-0.253 0.816-0.772 1.264l-2.984 2.571c-0.511 0.444-0.975 0.645-1.384 0.601-0.415-0.046-0.968-0.426-1.646-1.146l-8.064-8.422h0.145l-15.603-16.174 13.42-9.42h-8.48l-20.195 13.613v-22.871h-6.079v34.852h6.079v-5.499l10.729-7.515 12.505 13.014h0.08l11.845 12.225c3.417 3.574 6.709 3.989 9.88 1.262l2.888-2.5c0.716-0.619 1.265-1.174 1.616-1.652 0.353-0.482 0.57-0.938 0.664-1.365 0.086-0.427 0.082-0.828-0.003-1.195-0.095-0.372-0.231-0.735-0.406-1.086 0.208 0.171 0.455 0.338 0.726 0.509 0.236 0.141 0.467 0.3 0.677 0.466 0.203 0.171 0.437 0.324 0.681 0.461 2.284 1.342 4.779 0.846 7.484-1.486l10.013-9.752c1.986-1.709 3.014-3.408 3.066-5.086 0.036-1.681-0.836-3.461-2.65-5.358zm-15.867 16.982c-0.586 0.494-1.088 0.773-1.537 0.834-0.437 0.055-0.892-0.15-1.337-0.615l-14.545-15.206c-0.451-0.461-0.621-0.906-0.515-1.316 0.104-0.419 0.432-0.875 1.008-1.365l5.758-5.539 16.917 17.674-5.749 5.533z" fill="#4e4e4e"/><g id="g87" fill="#4e4e4e" transform="translate(-12.287 92.777)"><path id="path89" d="m87.812 51.913h-1.259l-2.459-6.589-0.01 0.021-2.449 6.567h-1.259l-2.878-7.505h0.959l2.528 6.566 0.01-0.032 2.469-6.534h1.259l2.449 6.588 0.01-0.021 2.549-6.566h0.959l-2.878 7.505z"/><path id="path91" d="m92.858 51.913v-7.505h7.106v0.829h-6.126v2.399h5.887v0.829h-5.887v2.618h6.167v0.829h-7.147z"/><path id="path93" d="m108.92 51.913h-6.276v-7.505h6.177c1.489 0 1.919 0.808 1.919 1.669v0.643c0 0.524-0.29 1.092-1.169 1.18v0.043c0.759 0.032 1.449 0.359 1.449 1.483v0.894c-0.001 1.047-0.9 1.593-2.1 1.593zm0.84-5.891c0-0.677-0.74-0.785-1.03-0.785h-5.107v2.399h5.057c0.53 0 1.08-0.175 1.08-0.927v-0.687zm0.28 3.512c0-0.916-0.5-1.068-1.389-1.068h-5.027v2.618h5.177c0.919 0 1.239-0.339 1.239-1.004v-0.546z"/><path id="path95" d="m125.62 51.913h-5.817v-7.505h5.847c1.809 0 2.619 0.437 2.938 1.854 0.11 0.512 0.15 1.112 0.15 1.897 0 2.761-0.66 3.754-3.118 3.754zm2.138-4.113c0-2.182-0.649-2.563-1.849-2.563h-5.127v5.847h4.967c1.199 0 2.009-0.273 2.009-2.521v-0.763z"/><path id="path97" d="m131.61 51.913v-7.505h7.106v0.829h-6.126v2.399h5.887v0.829h-5.887v2.618h6.167v0.829h-7.147z"/><path id="path99" d="m145.85 51.913h-1.199l-4.008-7.505h1.099l3.508 6.588 3.508-6.588h1.1l-4.008 7.505z"/><path id="path101" d="m152.18 51.913v-7.505h7.106v0.829h-6.126v2.399h5.887v0.829h-5.887v2.618h6.167v0.829h-7.147z"/><path id="path103" d="m161.96 51.913v-7.505h0.979v6.676h5.617v0.829h-6.596z"/><path id="path105" d="m177.3 51.999h-4.167c-1.949 0-2.579-0.926-2.579-2.813v-2.051c0-1.897 0.63-2.804 2.579-2.804h4.167c1.969 0 2.579 0.906 2.579 2.804v2.051c0 1.887-0.611 2.813-2.579 2.813zm1.599-5.246c0-1.309-0.77-1.592-1.699-1.592h-3.968c-0.93 0-1.699 0.283-1.699 1.592v2.814c0 1.309 0.77 1.604 1.699 1.604h3.968c0.93 0 1.699-0.295 1.699-1.604v-2.814z"/><path id="path107" d="m188.53 48.956h-4.788v2.957h-0.979v-7.505h5.957c1.189 0 1.939 0.239 2.049 1.593 0.01 0.141 0.021 0.283 0.021 0.447-0.001 1.668-0.141 2.508-2.26 2.508zm1.28-2.606c0-0.895-0.47-1.112-1.319-1.112h-4.748v2.891h4.828c0.789 0 1.239-0.283 1.239-1.069v-0.71z"/><path id="path109" d="m203.76 51.913v-6.589h-0.02l-4.408 6.589h-0.699l-4.407-6.589h-0.021v6.589h-0.979v-7.505h1.529l4.228 6.294 4.228-6.294h1.529v7.505h-0.98z"/><path id="path111" d="m207.75 51.913v-7.505h7.105v0.829h-6.127v2.399h5.888v0.829h-5.888v2.618h6.167v0.829h-7.145z"/><path id="path113" d="m225.08 51.913-6.605-6.567-0.021-0.021v6.589h-0.979v-7.505h1.459l6.627 6.588v-0.021-6.566h0.979v7.505h-1.46z"/><path id="path115" d="m233.39 45.237v6.676h-0.979v-6.676h-3.658v-0.829h8.296v0.829h-3.659z"/></g></g></g></g></g></svg>
