<?xml version="1.0" encoding="UTF-8" standalone="no"?>
<!-- Created with Inkscape (http://www.inkscape.org/) -->
<svg id="svg4116" xmlns:rdf="http://www.w3.org/1999/02/22-rdf-syntax-ns#" xmlns="http://www.w3.org/2000/svg" height="32" width="160" version="1.1" xmlns:cc="http://creativecommons.org/ns#" xmlns:dc="http://purl.org/dc/elements/1.1/">
 <metadata id="metadata4121">
  <rdf:RDF>
   <cc:Work rdf:about="">
    <dc:format>image/svg+xml</dc:format>
    <dc:type rdf:resource="http://purl.org/dc/dcmitype/StillImage"/>
    <dc:title/>
   </cc:Work>
  </rdf:RDF>
 </metadata>
 <rect id="rect3026-8" height="32" width="160" y="0" x="0" fill="none"/>
 <g id="g4052" fill="#fabb00">
  <path id="path3839-8-9" d="M9.8436,31.798c-10.144-8.214-11.968-13.886-6.0906-22.88h1.2447c-5.6374,8.5789-3.922,13.965,5.7323,21.783,0.30606,0.24485,0.3527,0.68937,0.10785,0.99543-0.24631,0.30023-0.69083,0.34833-0.99398,0.10202"/>
  <path id="path3841-3-2" d="M12.221,30.463c-9.5465-7.731-11.262-13.079-5.7193-21.546h1.2432c-5.2963,8.0494-3.6917,13.115,5.3661,20.449,0.30169,0.24339,0.34979,0.68937,0.10348,0.99252-0.24485,0.3046-0.68937,0.35124-0.99398,0.10494"/>
  <path id="path3843-8-3" d="M14.601,29.13c-8.9548-7.254-10.556-12.262-5.3389-20.212h1.2447c-4.9714,7.5319-3.4819,12.257,4.9842,19.113,0.30461,0.24485,0.34979,0.69083,0.10202,0.99398-0.24485,0.30169-0.68937,0.34979-0.99252,0.10494"/>
  <path id="path3845-9-6" d="M16.982,27.793c-8.3626-6.772-9.8448-11.442-4.958-18.875h1.2403c-4.6376,7.0103-3.2618,11.404,4.6084,17.776,0.30169,0.24631,0.34833,0.69083,0.10348,0.99398-0.24485,0.30169-0.69083,0.34979-0.99398,0.10494"/>
 </g>
 <g id="g4036" fill="#0061a1">
  <polygon id="polygon3823-5" points="29.835,10.845,34.868,15.62,31.204,15.62,27.7,12.089,27.7,15.62,24.712,15.62,24.712,6.581,27.7,6.581,27.7,9.694,31.266,6.581,34.65,6.581" transform="matrix(1.4574438,0,0,1.4574438,0.25117874,4.2942279e-4)"/>
  <polygon id="polygon3825-7" points="43.689,15.62,36.085,15.62,36.085,6.581,39.078,6.581,39.078,13.665,43.689,13.665" transform="matrix(1.4574438,0,0,1.4574438,0.25117874,4.2942279e-4)"/>
  <polygon id="polygon3827-7" points="47.701,10.085,51.305,10.085,51.305,11.843,47.701,11.843,47.701,13.665,52.703,13.665,52.703,15.62,44.74,15.62,44.74,6.581,52.516,6.581,52.516,8.429,47.701,8.429" transform="matrix(1.4574438,0,0,1.4574438,0.25117874,4.2942279e-4)"/>
  <polygon id="polygon3829-9" points="57.217,10.085,60.82,10.085,60.82,11.843,57.217,11.843,57.217,13.665,62.221,13.665,62.221,15.62,54.256,15.62,54.256,6.581,62.031,6.581,62.031,8.429,57.217,8.429" transform="matrix(1.4574438,0,0,1.4574438,0.25117874,4.2942279e-4)"/>
  <polygon id="polygon3831-2" points="73.647,10.276,71.51,15.62,68.711,15.62,66.575,10.276,66.575,15.62,63.859,15.62,63.859,6.581,67.896,6.581,70.176,12.333,72.454,6.581,76.43,6.581,76.43,15.62,73.647,15.62" transform="matrix(1.4574438,0,0,1.4574438,0.25117874,4.2942279e-4)"/>
  <path id="path3833-7" d="m119.21,17.582h3.6028l-1.8131-4.8985-1.7898,4.8985zm4.3374,2.3319h-5.0704l-1.0304,2.8522h-4.3578l5.343-13.174h5.2526l5.3648,13.174h-4.47l-1.0319-2.8522z"/>
  <polygon id="polygon3835-2" points="95.74,15.62,92.121,10.784,92.121,15.62,89.321,15.62,89.321,6.581,92.09,6.581,95.473,11.14,95.473,6.581,98.273,6.581,98.273,15.62" transform="matrix(1.4574438,0,0,1.4574438,0.25117874,4.2942279e-4)"/>
  <polygon id="polygon3837-4" points="106.9,15.62,103.28,10.784,103.28,15.62,100.48,15.62,100.48,6.581,103.25,6.581,106.64,11.14,106.64,6.581,109.44,6.581,109.44,15.62" transform="matrix(1.4574438,0,0,1.4574438,0.25117874,4.2942279e-4)"/>
 </g>
 <g id="g4046" fill="#0061a1">
  <path id="path3839-8" d="M19.54,0.15783c10.144,8.2142,11.969,13.886,6.091,22.88h-1.2446c5.6376-8.578,3.9216-13.965-5.7324-21.783-0.306-0.2449-0.352-0.68938-0.108-0.99545,0.247-0.30023,0.691-0.34832,0.994-0.10202"/>
  <path id="path3841-3" d="M17.163,1.4929c9.547,7.7317,11.262,13.079,5.719,21.547h-1.2428c5.2968-8.05,3.6918-13.116-5.3662-20.45-0.302-0.2434-0.35-0.6894-0.104-0.9925,0.245-0.3046,0.69-0.3513,0.994-0.1049"/>
  <path id="path3843-8" d="m14.783,2.8264c8.9545,7.2537,10.556,12.261,5.3386,20.212h-1.2447c4.9717-7.532,3.4817-12.257-4.9843-19.113-0.305-0.2448-0.35-0.6908-0.102-0.994,0.245-0.3016,0.689-0.3497,0.992-0.1049"/>
  <path id="path3845-9" d="M12.402,4.1629c8.363,6.7731,9.845,11.442,4.958,18.875h-1.2402c4.6372-7.01,3.2622-11.404-4.6088-17.776-0.301-0.2463-0.348-0.6908-0.103-0.994,0.245-0.3017,0.691-0.3498,0.994-0.1049"/>
 </g>
</svg>
