<?xml version="1.0" encoding="UTF-8" standalone="no"?>
<!-- Created with Inkscape (http://www.inkscape.org/) -->

<svg
   xmlns:dc="http://purl.org/dc/elements/1.1/"
   xmlns:cc="http://creativecommons.org/ns#"
   xmlns:rdf="http://www.w3.org/1999/02/22-rdf-syntax-ns#"
   xmlns:svg="http://www.w3.org/2000/svg"
   xmlns="http://www.w3.org/2000/svg"
   xmlns:sodipodi="http://sodipodi.sourceforge.net/DTD/sodipodi-0.dtd"
   xmlns:inkscape="http://www.inkscape.org/namespaces/inkscape"
   id="svg2"
   version="1.1"
   inkscape:version="0.91 r13725"
   width="15.880422mm"
   height="18.062222mm"
   viewBox="0 0 56.26921 63.999999"
   sodipodi:docname="logo.svg">
  <metadata
     id="metadata8">
    <rdf:RDF>
      <cc:Work
         rdf:about="">
        <dc:format>image/svg+xml</dc:format>
        <dc:type
           rdf:resource="http://purl.org/dc/dcmitype/StillImage" />
        <dc:title></dc:title>
      </cc:Work>
    </rdf:RDF>
  </metadata>
  <defs
     id="defs6" />
  <sodipodi:namedview
     pagecolor="#ffffff"
     bordercolor="#666666"
     borderopacity="1"
     objecttolerance="10"
     gridtolerance="10"
     guidetolerance="10"
     inkscape:pageopacity="0"
     inkscape:pageshadow="2"
     inkscape:window-width="1314"
     inkscape:window-height="909"
     id="namedview4"
     showgrid="false"
     units="mm"
     fit-margin-top="0"
     fit-margin-left="0"
     fit-margin-right="0"
     fit-margin-bottom="0"
     inkscape:zoom="1"
     inkscape:cx="116.94338"
     inkscape:cy="75.118624"
     inkscape:window-x="2328"
     inkscape:window-y="258"
     inkscape:window-maximized="0"
     inkscape:current-layer="svg2" />
  <path
     style="fill:#2ba9e0;fill-opacity:1"
     d="m 38.456032,61.9221 c 1.148202,-1.1428 2.492928,-2.8231 2.988285,-3.7338 3.32208,-6.108 2.883257,-13.3537 -1.135808,-18.7541 -0.715776,-0.9618 -1.251155,-1.7802 -1.189731,-1.8187 0.06142,-0.038 0.913648,-0.4334 1.89383,-0.8777 2.107792,-0.9554 4.991331,-3.7562 6.062278,-5.8885 0.992557,-1.9761 1.641965,-5.5204 1.370023,-7.4772 l -0.216675,-1.5592 1.350646,1.4774 c 1.657222,1.8127 4.64671,6.3209 5.22495,7.8793 0.2345,0.632 0.664512,1.6661 0.955588,2.2981 0.410764,0.8919 0.524547,2.178 0.50831,5.7454 -0.01974,4.3306 -0.08075,4.755 -1.056208,7.3443 C 53.32231,51.572 49.372048,56.6466 44.894467,59.8106 42.87825,61.2354 37.504832,64 36.751818,64 36.540935,64 37.30783,63.065 38.456032,61.9221 Z M 10.996292,59.498 C 5.8409548,55.7209 2.1050928,50.175 0.50268577,43.9202 -0.09966423,41.569 -0.18049623,34.5607 0.36798277,32.2413 1.6908418,26.6472 4.5702888,22.1724 8.9361535,18.9259 10.041012,18.1044 12.01454,16.9977 16.94173,14.4367 22.688343,11.4498 24.94922,8.0251 24.94922,2.3073 l 0,-2.3073 3.857574,3.8679 c 2.121666,2.1273 4.874037,4.7453 6.116379,5.8177 l 2.258802,1.9499 -2.718129,0.2498 c -5.64061,0.5182 -9.843055,3.7874 -11.512837,8.9559 -1.164452,3.6044 -0.799581,7.4937 0.987106,10.5219 l 0.635948,1.0778 -1.043564,0.2219 c -2.080467,0.4422 -5.005618,1.5797 -5.999112,2.3329 -0.558744,0.4236 -1.100328,0.7702 -1.203517,0.7702 -0.326591,0 -3.04079,2.7431 -3.898064,3.9396 -3.8840684,5.421 -4.1377294,13.3248 -0.608483,18.9596 0.706843,1.1285 1.179716,2.0482 1.05083,2.0437 -0.128886,0 -0.973024,-0.5493 -1.875861,-1.2108 z m 11.840904,-0.3261 c -2.210935,-0.7628 -5.083311,-3.6288 -5.854839,-5.8418 -0.801646,-2.2993 -0.748002,-5.5856 0.123341,-7.5554 1.959021,-4.4287 6.846823,-7.0845 11.166591,-6.0674 4.491608,1.0575 7.235617,3.749 8.195645,8.0388 0.969189,4.3308 -1.53092,9.2816 -5.609239,11.1076 -2.025696,0.9069 -5.872748,1.0595 -8.021499,0.3182 z m 15.67051,-28.6456 c -1.156553,-0.7052 -2.069035,-2.1904 -2.065676,-3.3621 0.0013,-0.4153 0.287762,-1.1883 0.636828,-1.7178 2.125712,-3.2246 6.873276,-1.9915 6.901081,1.7926 0.01306,1.7766 -0.649097,2.8435 -2.155414,3.4728 -1.461008,0.6105 -2.066941,0.5766 -3.316819,-0.1855 z m -8.506502,-5.8994 c -2.615324,-1.1201 -2.81662,-5.7075 -0.300746,-6.8539 2.741212,-1.2489 5.394678,0.3661 5.415269,3.2961 0.0087,1.2409 -0.171079,1.7579 -0.891914,2.5646 -0.976386,1.0927 -2.921851,1.5502 -4.222609,0.9932 z M 46.585411,20.42 C 46.304822,20.1027 44.18207,18.0703 41.868179,15.9035 l -4.207075,-3.9397 5.545085,-0.2003 c 3.049795,-0.1102 6.723056,-0.3182 8.162797,-0.4623 l 2.617715,-0.262 -1.830023,2.1038 c -2.032601,2.3367 -3.562288,4.7828 -4.065145,6.5003 -0.393632,1.3445 -0.812835,1.5607 -1.506122,0.7767 z"
     id="path4146"
     inkscape:connector-curvature="0" />
  <path
     style="fill:#000000"
     d=""
     id="path4142"
     inkscape:connector-curvature="0" />
  <path
     style="fill:#000000"
     d=""
     id="path4140"
     inkscape:connector-curvature="0" />
  <path
     style="fill:#000000"
     d=""
     id="path4138"
     inkscape:connector-curvature="0" />
</svg>
