<?xml version="1.0" encoding="utf-8"?>
<!-- Generator: Adobe Illustrator 19.0.0, SVG Export Plug-In . SVG Version: 6.00 Build 0)  -->
<svg version="1.1" id="Layer_1" xmlns="http://www.w3.org/2000/svg" xmlns:xlink="http://www.w3.org/1999/xlink" x="0px" y="0px"
	 viewBox="-420 282.3 64 32" style="enable-background:new -420 282.3 64 32;" xml:space="preserve">
<style type="text/css">
	.st0{fill:#0063A3;}
</style>
<g>
	<path id="XMLID_60_" class="st0" d="M-391.6,295.1c-1-1.3-2.2-2.3-3.6-3v-7.4l-11.1,8.4c-4.6,3.5-5.5,10.1-2,14.7
		c3.5,4.6,10.1,5.5,14.7,2C-388.9,306.3-388,299.7-391.6,295.1z"/>
	<path id="XMLID_1_" class="st0" d="M-367.8,295.1c-1-1.3-2.2-2.3-3.6-3v-7.4l-11.1,8.4c-4.6,3.5-5.5,10.1-2,14.7
		c3.5,4.6,10.1,5.5,14.7,2C-365.1,306.3-364.2,299.7-367.8,295.1z"/>
</g>
</svg>
